<?xml version="1.0" standalone="no"?>
<!DOCTYPE svg PUBLIC "-//W3C//DTD SVG 20010904//EN"
 "http://www.w3.org/TR/2001/REC-SVG-20010904/DTD/svg10.dtd">
<svg version="1.0" xmlns="http://www.w3.org/2000/svg"
 width="1920.000000pt" height="1080.000000pt" viewBox="0 0 1920.000000 1080.000000"
 preserveAspectRatio="xMidYMid meet">

<g transform="translate(0.000000,1080.000000) scale(0.100000,-0.100000)"
fill="#000000" stroke="none">
<path d="M0 5655 l0 -3575 603 6 c331 4 603 7 604 8 1 1 5 253 9 561 l6 560
-36 34 c-40 36 -76 98 -76 130 0 11 -5 31 -11 45 -9 19 -9 48 1 118 23 174 83
248 200 248 71 0 109 -17 143 -62 29 -40 57 -110 57 -144 0 -22 4 -25 28 -22
25 3 27 6 32 64 6 73 43 128 101 153 l39 16 0 128 c0 120 -1 127 -20 127 -19
0 -20 7 -20 240 0 233 1 240 20 240 20 0 20 7 20 1734 l0 1733 -50 5 c-122 12
-118 108 4 108 70 0 51 10 -28 15 -36 2 -70 6 -76 10 -17 11 -11 23 14 29 15
4 26 14 28 29 4 32 32 28 36 -5 3 -25 8 -28 38 -28 26 0 34 4 33 18 0 10 -3
12 -6 5 -2 -7 -11 -13 -19 -13 -14 0 -16 5 -18 45 -1 17 -9 21 -48 23 -41 3
-48 6 -48 23 0 19 5 20 70 17 l70 -3 0 478 0 477 -850 0 -850 0 0 -3575z m710
2619 c0 -9 -9 -18 -20 -21 -18 -5 -20 -14 -20 -108 0 -95 2 -104 20 -110 37
-12 23 -35 -20 -35 l-40 0 0 145 0 145 40 0 c30 0 40 -4 40 -16z m390 1 c0
-10 10 -15 30 -15 23 0 30 -4 30 -20 0 -18 -7 -20 -76 -20 -66 0 -75 2 -72 17
2 10 12 19 23 21 11 3 24 10 28 18 11 19 37 18 37 -1z m-145 -50 l0 -50 -105
0 -105 0 -3 29 c-2 15 -1 39 2 53 6 23 8 24 109 21 l102 -3 0 -50z m273 5 c2
-26 10 -48 18 -53 19 -11 18 -37 -1 -37 -12 0 -15 -13 -15 -60 0 -63 -15 -85
-43 -62 -7 6 -51 12 -97 14 -48 2 -85 7 -85 13 0 6 12 11 28 13 29 4 36 25 13
39 -26 16 -38 51 -25 76 16 30 28 37 64 37 43 -1 65 -21 65 -60 0 -23 -8 -39
-26 -55 -31 -26 -19 -40 26 -30 l30 7 0 97 c0 101 3 114 30 109 10 -2 16 -17
18 -48z m197 39 c4 -6 4 -31 0 -55 -5 -35 -10 -44 -23 -42 -11 2 -18 15 -20
36 -3 31 -5 32 -48 32 -37 0 -44 3 -44 20 0 18 7 20 64 20 36 0 68 -5 71 -11z
m73 -27 c2 -20 9 -32 18 -32 8 0 14 -9 14 -20 0 -11 -6 -20 -14 -20 -10 0 -16
-14 -18 -42 -2 -32 -8 -44 -21 -46 -11 -2 -20 3 -23 15 -4 16 -16 18 -92 18
-73 0 -87 3 -90 17 -2 11 5 18 20 20 17 2 24 11 26 31 4 37 36 33 40 -6 3 -22
8 -27 32 -27 53 0 60 8 60 64 0 57 5 68 30 64 9 -2 16 -16 18 -36z m-528 -112
c0 -17 -7 -20 -44 -20 -38 0 -45 -3 -50 -25 -8 -31 -33 -33 -38 -2 -3 19 -10
22 -55 25 -45 3 -53 6 -53 23 0 18 8 19 120 19 113 0 120 -1 120 -20z m-190
-60 c0 -17 9 -20 87 -22 75 -3 88 -6 91 -21 3 -16 -5 -17 -105 -15 l-108 3 -3
28 c-4 30 14 61 29 51 5 -3 9 -14 9 -24z m558 3 c3 -20 10 -22 80 -25 64 -3
77 -6 80 -20 3 -16 -7 -18 -102 -18 l-106 0 0 38 c0 21 3 42 7 46 13 13 38 1
41 -21z m80 -375 l-3 -83 -285 0 -285 0 -3 69 c-2 38 -1 75 2 83 4 10 61 13
291 13 l286 0 -3 -82z m192 -238 l0 -80 -149 0 c-83 0 -152 -4 -155 -8 -4 -8
289 -287 320 -305 8 -4 14 -15 14 -22 0 -12 -21 -15 -114 -15 l-113 0 -64 57
c-35 32 -91 83 -124 113 -98 91 -89 88 -137 45 -24 -21 -70 -63 -104 -94 -145
-134 -119 -121 -243 -121 -60 0 -112 4 -115 9 -3 4 11 23 32 42 169 153 302
283 295 290 -5 5 -74 10 -153 11 l-145 3 -3 64 c-2 35 -1 70 2 77 4 12 90 14
481 14 l475 0 0 -80z m30 -579 c0 -63 -3 -80 -16 -85 -8 -3 -101 -3 -205 0
l-189 7 0 -69 c0 -38 -4 -75 -9 -82 -5 -9 -31 -12 -92 -10 l-84 3 -5 75 -5 75
-205 5 -205 5 -3 64 c-2 35 -1 70 2 77 4 12 95 14 511 14 l505 0 0 -79z m-808
-268 l3 -98 402 -3 403 -2 5 -23 c4 -13 5 -48 3 -78 l-3 -54 -497 -3 -498 -2
0 180 0 180 90 0 89 0 3 -97z m576 -521 l3 -82 -288 2 -288 3 -3 74 c-2 53 1
77 10 83 7 4 137 7 288 5 l275 -2 3 -83z m187 -217 l0 -80 -142 -3 c-79 -1
-143 -6 -143 -10 0 -4 10 -16 23 -26 12 -10 53 -46 92 -80 38 -34 83 -73 100
-87 16 -14 45 -40 64 -56 50 -43 36 -53 -77 -53 -114 0 -105 -5 -271 137
l-119 102 -134 -114 c-123 -106 -137 -114 -185 -121 -52 -6 -169 -1 -179 8 -6
7 -1 11 126 123 57 50 124 109 149 132 l46 42 -146 1 c-125 0 -148 2 -153 16
-11 30 -7 142 7 147 6 3 221 5 477 4 l465 -2 0 -80z m35 -525 l0 -80 -207 -2
-208 -3 -3 -68 -3 -68 -87 3 -87 3 -3 67 -3 68 -207 2 -207 3 -3 64 c-2 35 -1
70 2 77 4 12 95 14 511 14 l505 0 0 -80z m-32 -427 l-3 -178 -90 0 -90 0 -5
100 -5 100 -42 1 c-24 1 -196 2 -383 3 l-340 1 0 75 0 75 480 0 480 0 -2 -177z
m-849 -415 c23 -59 132 -278 139 -278 4 0 17 21 28 48 l21 47 -49 98 c-52 105
-52 112 13 105 27 -2 36 -10 53 -45 12 -23 26 -42 31 -42 6 0 20 19 31 42 16
32 28 43 49 45 54 7 56 -2 21 -70 -59 -116 -60 -118 -34 -176 13 -29 27 -52
31 -52 4 0 40 68 79 150 70 148 72 150 104 150 18 0 36 -4 39 -10 9 -14 -215
-462 -228 -457 -6 2 -29 40 -52 85 -22 45 -42 82 -45 82 -3 0 -26 -40 -50 -89
-24 -50 -48 -87 -53 -84 -11 7 -227 444 -227 461 0 8 16 12 45 12 38 0 47 -4
54 -22z m697 -66 c20 -42 70 -144 110 -225 41 -82 71 -153 68 -158 -3 -5 -21
-9 -40 -9 -31 0 -36 4 -56 48 -12 26 -27 50 -32 54 -6 4 -52 8 -103 8 l-92 0
-26 -55 c-25 -53 -27 -55 -65 -55 -21 0 -41 3 -43 8 -8 12 222 474 233 467 5
-3 26 -40 46 -83z m-503 -664 c66 -37 97 -90 97 -163 0 -83 -38 -141 -165
-249 l-30 -26 102 0 c121 0 121 0 104 -112 0 -5 -89 -8 -196 -8 l-195 0 0 54
0 53 130 125 c112 108 130 130 130 157 0 39 -31 71 -68 71 -41 0 -64 -21 -71
-66 -5 -30 -11 -39 -26 -38 -11 1 -37 2 -57 2 -38 2 -38 2 -38 44 0 55 40 122
88 148 43 23 159 27 195 8z"/>
<path d="M787 8234 c-15 -16 9 -24 69 -24 50 0 64 3 64 15 0 12 -14 15 -63 15
-35 0 -67 -3 -70 -6z"/>
<path d="M1060 8150 c0 -15 7 -20 25 -20 18 0 25 5 25 20 0 15 -7 20 -25 20
-18 0 -25 -5 -25 -20z"/>
<path d="M1387 4343 c-3 -10 -15 -37 -26 -60 l-20 -43 60 0 59 0 -30 60 c-17
33 -32 60 -34 60 -2 0 -6 -8 -9 -17z"/>
<path d="M13216 9199 c-10 -23 -10 -42 -3 -75 9 -40 8 -47 -10 -65 l-20 -21
-44 22 c-24 13 -56 31 -71 41 -14 11 -31 19 -37 19 -18 0 -13 -92 7 -130 36
-70 48 -83 112 -125 l64 -42 30 41 c17 22 29 45 27 51 -1 5 25 -16 58 -48 33
-31 64 -57 71 -57 6 0 15 -10 20 -22 l9 -23 0 22 c1 12 9 24 20 28 11 3 38 26
60 50 23 25 43 45 45 45 2 0 6 -9 9 -20 3 -11 1 -18 -4 -14 -5 3 -9 0 -9 -6 0
-33 346 -380 536 -538 92 -77 225 -175 230 -170 3 3 2 21 -1 39 -5 24 -18 42
-47 63 -121 87 -265 214 -469 414 -85 84 -157 151 -160 150 -3 -2 9 8 26 22
86 71 125 133 133 213 5 51 -1 57 -32 29 -12 -10 -42 -27 -68 -36 -43 -16 -49
-16 -63 -3 -18 19 -19 49 -4 92 7 18 9 44 5 58 l-6 27 -201 0 -200 0 -13 -31z
m283 7 c9 -10 9 -16 1 -21 -16 -10 -40 2 -40 20 0 19 24 20 39 1z m46 -65 c-9
-16 -25 -3 -18 15 4 10 9 12 15 6 6 -6 7 -15 3 -21z"/>
<path d="M15408 9203 c-22 -54 -134 -195 -235 -299 -56 -57 -106 -104 -111
-104 -4 0 -21 -13 -37 -30 -20 -21 -24 -30 -13 -30 8 0 32 14 53 30 21 17 41
30 45 30 4 0 39 28 78 63 73 63 224 253 262 327 l20 40 -25 0 c-18 0 -29 -8
-37 -27z"/>
<path d="M16607 9163 c-36 -137 -88 -222 -237 -387 -75 -83 -167 -178 -205
-211 -67 -59 -195 -150 -226 -160 -15 -5 -16 -46 -15 -433 l1 -427 51 -65 c85
-109 131 -182 105 -165 -6 3 -52 12 -103 20 -133 21 -162 27 -173 35 -5 4 -32
11 -60 15 -27 4 -54 10 -60 15 -5 4 -32 11 -59 15 -27 3 -56 10 -65 15 -14 8
-47 21 -61 25 -53 14 -69 21 -200 84 -109 52 -137 68 -205 113 -64 43 -91 69
-78 74 7 3 40 24 75 46 35 22 75 45 90 50 16 6 28 14 28 19 0 5 5 9 11 9 5 0
24 14 42 30 35 33 62 44 98 38 33 -4 64 -72 84 -184 26 -136 34 -164 50 -164
10 0 15 12 16 38 4 169 27 262 63 262 8 0 25 19 39 43 14 23 46 58 71 77 49
36 66 71 46 95 -11 14 -19 56 -22 118 -1 36 26 56 76 57 32 0 37 3 31 18 -5 9
-10 31 -12 48 -4 25 -1 32 16 37 37 9 25 36 -19 43 -22 4 -43 11 -46 15 -10
17 -54 9 -66 -11 -7 -11 -16 -20 -21 -20 -4 0 -5 5 -1 12 4 7 3 8 -4 4 -7 -4
-12 -14 -12 -22 0 -8 -5 -14 -12 -14 -21 0 -113 -50 -167 -91 l-54 -41 6 49
c7 64 -19 187 -50 237 -33 52 -49 68 -100 99 -40 25 -42 26 -40 6 1 -11 19
-39 41 -62 77 -81 111 -207 80 -300 -9 -29 -29 -70 -43 -92 -35 -55 -128 -147
-136 -135 -3 5 -1 10 4 10 6 0 11 5 11 10 0 7 -6 7 -20 0 -10 -6 -17 -16 -14
-24 3 -8 -8 -20 -29 -30 -41 -19 -71 -22 -47 -5 11 8 7 9 -19 5 -18 -3 -38 -6
-43 -6 -6 0 -4 -7 3 -17 13 -15 11 -16 -22 -10 -21 3 -41 1 -48 -6 -7 -7 -20
-7 -46 0 -19 6 -44 9 -55 6 -12 -3 -22 1 -26 11 -4 10 -18 16 -37 16 -29 0
-29 1 -14 18 10 10 17 27 17 37 0 21 59 85 78 85 8 0 12 6 9 13 -4 13 -56 11
-71 -4 -18 -16 -63 -9 -100 16 l-36 25 6 -28 c8 -33 30 -52 61 -52 27 0 31
-18 6 -26 -10 -3 -35 -14 -56 -25 -22 -10 -45 -19 -54 -19 -8 0 -12 -4 -8 -9
3 -5 1 -12 -5 -16 -6 -4 -7 -11 -4 -17 4 -6 0 -14 -7 -19 -19 -11 8 -31 66
-48 41 -12 71 -40 161 -150 15 -19 116 -106 221 -191 21 -18 78 -129 91 -181
13 -51 -11 -199 -39 -233 -62 -78 -72 -111 -32 -111 11 0 24 -3 28 -7 4 -4 16
-1 27 6 19 14 72 13 183 -4 90 -14 100 -16 143 -44 22 -14 42 -23 44 -20 3 2
11 -2 18 -11 7 -8 20 -15 30 -15 25 0 77 -62 85 -102 11 -48 36 -108 46 -108
5 0 16 15 25 33 22 42 30 46 81 43 23 -1 44 2 45 6 2 5 29 12 61 15 44 5 62
11 76 29 15 19 20 21 25 9 8 -21 30 -19 51 5 23 25 111 28 155 5 20 -11 30
-12 30 -4 0 16 -62 69 -82 69 -9 0 -20 5 -23 10 -3 6 -19 10 -34 10 -44 0 -91
20 -91 39 0 10 -14 30 -31 47 -17 16 -51 61 -76 99 -26 39 -58 81 -72 94 l-26
23 75 -7 c41 -4 82 -11 90 -15 8 -4 47 -10 87 -14 82 -7 103 -13 103 -31 0 -7
17 -50 39 -96 21 -46 51 -122 66 -169 15 -47 30 -92 33 -100 3 -8 6 -20 7 -25
0 -6 13 -32 28 -58 22 -37 26 -51 17 -62 -8 -10 -11 -98 -11 -292 0 -171 -4
-284 -10 -293 -7 -11 -9 1 -6 40 7 82 -11 247 -34 310 -12 30 -24 69 -29 85
-16 61 -33 87 -54 81 -12 -2 -58 -8 -103 -12 -71 -6 -83 -4 -83 9 0 29 75 77
172 111 51 19 74 39 63 57 -4 6 -10 7 -14 3 -17 -24 -79 -57 -157 -86 -80 -28
-126 -57 -123 -76 6 -35 -37 -70 -103 -86 -26 -6 -27 -5 -18 19 9 24 6 29 -14
26 -4 -1 -14 4 -22 10 -19 16 -114 15 -124 -1 -5 -8 -10 -9 -14 -1 -8 12 -168
11 -177 -2 -8 -11 -95 28 -107 49 -5 9 -18 18 -28 20 -39 5 -64 17 -64 30 0 8
-7 14 -15 14 -19 0 -34 12 -86 63 -21 20 -42 37 -46 37 -5 0 -14 9 -21 20 -7
11 -23 20 -37 20 -14 0 -25 5 -25 10 0 6 -6 10 -14 10 -8 0 -36 19 -62 43 -27
23 -61 51 -76 60 -39 24 -37 71 6 177 41 100 45 121 29 127 -7 3 -13 -3 -13
-12 0 -9 -9 -19 -20 -22 -14 -4 -22 -17 -26 -43 -5 -30 -13 -42 -40 -56 -22
-12 -30 -22 -24 -29 5 -6 9 -20 9 -30 0 -11 4 -42 8 -70 10 -66 10 -251 0
-345 -11 -107 -24 -150 -45 -150 -10 0 -35 -18 -57 -40 -28 -29 -36 -42 -28
-52 16 -19 27 -154 14 -162 -6 -4 -11 -20 -11 -35 0 -15 -9 -36 -20 -46 -12
-11 -18 -25 -15 -36 3 -10 1 -26 -6 -37 -10 -16 -9 -24 4 -43 21 -29 22 -56 2
-75 -13 -13 -15 -13 -15 -1 0 8 -6 20 -14 26 -16 13 -26 -4 -26 -43 0 -22 -36
-104 -80 -185 -11 -19 -33 -49 -51 -67 -31 -32 -34 -33 -51 -17 -17 15 -18 15
-18 -10 0 -22 -6 -27 -37 -33 -54 -10 -63 8 -63 135 0 77 6 124 20 171 13 44
20 94 20 155 0 50 7 139 15 199 11 80 12 127 5 175 -5 36 -10 134 -10 216 0
83 -7 195 -15 250 -13 82 -13 125 -5 235 6 74 15 209 20 300 5 91 14 228 20
306 9 117 8 146 -4 175 l-14 34 -159 -1 c-133 0 -171 -4 -238 -23 -152 -43
-345 -152 -493 -278 -35 -29 -69 -53 -75 -53 -7 0 -21 16 -32 36 l-19 36 52
46 c48 44 52 51 62 111 5 36 8 66 7 67 -6 5 -80 34 -88 34 -5 0 -9 -7 -9 -15
0 -8 -4 -23 -9 -33 -6 -9 -17 -38 -27 -64 -21 -60 -35 -72 -79 -65 -33 5 -49
-6 -22 -16 6 -3 -1 -6 -17 -6 -23 -1 -26 2 -17 13 8 10 8 16 -3 25 -17 14 -29
0 -20 -23 5 -13 -2 -16 -45 -16 -34 0 -51 -4 -52 -12 -5 -59 28 -119 107 -193
68 -64 69 -83 9 -160 -59 -75 -137 -205 -180 -298 -70 -150 -138 -399 -150
-542 -7 -94 -13 -117 -26 -110 -5 4 -9 2 -9 -4 0 -5 6 -12 13 -15 6 -3 -42 -3
-108 1 -66 3 -128 6 -137 5 -22 -1 -23 16 -2 39 15 17 15 19 0 35 -14 13 -22
14 -39 6 -12 -6 -56 -12 -97 -15 -60 -3 -84 -9 -117 -30 -24 -15 -46 -27 -50
-27 -18 -1 -61 -48 -81 -88 -23 -44 -22 -62 4 -62 8 0 14 -4 14 -9 0 -5 10
-11 23 -15 13 -3 39 -16 59 -30 35 -23 89 -32 238 -39 25 -1 51 -8 59 -15 7
-7 21 -10 30 -6 23 10 194 32 208 27 7 -3 15 -26 18 -51 9 -68 35 -212 45
-247 58 -196 153 -402 251 -545 274 -399 713 -669 1189 -730 96 -13 397 -13
475 0 143 22 185 31 270 58 284 91 508 228 740 454 49 48 93 84 97 80 4 -4 8
-424 8 -932 l1 -925 -28 1 c-15 1 -57 7 -93 14 -82 14 -160 24 -160 19 0 -2 4
-20 10 -38 7 -26 6 -41 -4 -60 -46 -88 -79 -147 -87 -156 -5 -5 -9 -19 -9 -31
0 -22 -26 -52 -154 -173 -48 -46 -66 -70 -64 -85 1 -12 -7 -31 -19 -43 -12
-12 -27 -41 -34 -65 -19 -72 -43 -130 -56 -135 -6 -2 -32 3 -57 11 -26 9 -78
16 -116 16 -70 0 -70 0 -70 28 0 15 -6 35 -13 44 -12 15 -19 11 -73 -38 -62
-58 -120 -94 -153 -94 -10 0 -21 -7 -25 -15 -8 -23 -53 -18 -70 7 -15 21 -25
24 -107 27 -46 1 -55 21 -30 62 19 31 19 31 23 8 5 -35 61 -39 87 -7 15 18 21
20 34 10 12 -10 21 -10 43 0 34 14 154 115 154 129 0 5 18 48 41 95 47 97 70
108 79 38 6 -41 65 -126 96 -138 43 -16 54 -8 52 42 -1 63 -42 146 -98 198
-41 39 -44 46 -50 105 -4 43 -2 74 6 94 7 17 13 25 14 19 0 -6 24 -16 53 -23
49 -11 53 -11 69 9 10 12 22 19 27 15 15 -8 31 -73 31 -121 0 -39 42 -134 58
-134 16 1 90 27 120 43 17 10 32 25 32 35 0 24 91 112 116 112 20 0 103 85
116 120 4 12 0 27 -12 42 -10 13 -20 35 -22 48 -3 22 -10 25 -78 36 -41 6
-142 23 -225 38 -164 30 -296 53 -393 66 -35 5 -67 12 -71 15 -5 2 -40 9 -77
15 -120 18 -267 42 -319 51 -27 5 -79 13 -115 19 -36 5 -123 19 -195 30 -71
12 -161 25 -199 30 -38 6 -85 14 -105 20 -20 5 -51 10 -68 10 -18 0 -52 4 -75
9 -39 9 -183 30 -310 46 -53 7 -54 9 -32 80 8 28 18 105 21 172 l6 121 -42 84
c-23 45 -64 117 -91 158 -27 42 -53 91 -56 110 -11 57 -34 87 -86 111 -26 12
-48 26 -48 31 0 4 -6 8 -14 8 -8 0 -16 6 -18 12 -3 9 -9 8 -21 -4 -9 -9 -17
-21 -17 -26 0 -6 -13 -24 -29 -41 -31 -33 -74 -41 -113 -20 -20 11 -19 11 8
40 15 16 24 29 20 29 -5 0 3 9 17 20 27 21 53 83 42 100 -3 5 -13 10 -21 10
-8 0 -14 5 -14 10 0 6 -18 10 -40 10 -29 0 -40 4 -40 15 0 8 -3 15 -7 15 -9 0
-54 34 -89 67 -13 12 -24 19 -24 16 0 -3 -7 0 -15 7 -8 7 -21 10 -29 7 -17 -7
-12 54 11 123 24 73 27 140 8 190 -39 105 -55 168 -55 216 0 27 -4 54 -9 60
-14 15 -21 73 -10 79 5 4 15 3 22 -2 23 -18 94 -35 116 -28 13 4 21 15 21 28
0 34 -34 116 -63 151 -14 17 -33 40 -41 51 -12 16 -16 17 -30 6 -10 -9 -14
-22 -10 -37 7 -27 -7 -32 -27 -8 -17 21 -63 44 -87 44 -51 0 -77 -217 -50
-408 10 -75 8 -105 -8 -90 -10 11 -34 193 -34 267 0 71 23 185 41 206 13 14
11 25 -4 25 -8 0 -24 9 -37 20 -21 18 -25 19 -39 6 -12 -13 -12 -20 -2 -42 20
-45 -6 -83 -36 -53 -9 9 -14 5 -19 -15 -6 -27 -18 -33 -29 -16 -11 17 -23 2
-57 -70 -18 -39 -38 -70 -43 -70 -12 0 -35 56 -35 83 0 20 -23 22 -39 4 -11
-15 -2 -97 21 -174 17 -58 44 -57 111 3 l51 45 18 -23 c10 -13 18 -32 18 -44
0 -11 3 -24 6 -27 22 -22 52 -121 47 -157 -5 -36 -11 -43 -67 -74 -33 -19 -79
-51 -101 -71 -34 -31 -40 -33 -46 -19 -4 13 -8 14 -13 6 -4 -7 -13 -9 -19 -5
-25 16 -197 30 -197 16 0 -5 -15 -7 -34 -5 -20 2 -62 -5 -97 -17 -34 -12 -64
-19 -67 -17 -3 3 -1 25 4 48 l9 43 51 3 c51 3 52 3 58 40 14 88 -1 270 -30
337 -14 34 -16 35 -68 35 -30 0 -66 4 -81 10 -18 7 -32 6 -47 -3 -21 -13 -88
-142 -88 -172 0 -9 -4 -24 -9 -33 -5 -9 -12 -54 -15 -99 l-7 -83 25 0 c14 0
28 -4 31 -10 3 -5 19 -10 36 -10 37 0 38 -21 2 -52 -32 -26 -53 -68 -53 -102
0 -36 -20 -86 -35 -86 -20 0 -155 -138 -208 -212 -106 -150 -176 -358 -192
-570 -4 -49 -10 -90 -13 -92 -4 -2 -63 2 -132 9 -69 7 -208 20 -310 30 -102 9
-221 20 -265 25 -96 11 -398 34 -740 55 -137 8 -322 20 -410 25 -201 13 -294
17 -630 31 -148 5 -276 12 -283 15 -7 2 -10 8 -7 14 4 6 -5 10 -21 10 -22 0
-25 -3 -16 -12 16 -16 15 -28 -3 -28 -9 0 -26 -7 -38 -15 -12 -8 -31 -14 -42
-14 -11 0 -45 -5 -75 -10 -30 -6 -72 -8 -93 -4 -37 6 -39 5 -32 -16 8 -26 -19
-29 -45 -6 -18 16 -70 20 -137 10 -31 -5 -51 -2 -80 13 -89 45 -88 45 -123 25
-82 -46 -75 -45 -139 -28 -32 8 -69 15 -82 15 -30 0 -113 26 -161 51 -20 10
-42 19 -48 19 -7 0 -25 9 -41 21 -29 20 -31 21 -50 3 -13 -12 -34 -18 -60 -17
-21 1 -39 -2 -39 -7 0 -5 -6 -7 -14 -4 -8 3 -17 1 -20 -4 -10 -16 42 -23 114
-16 74 7 130 -12 130 -44 0 -9 9 -32 20 -50 11 -18 20 -46 20 -62 0 -16 4 -31
9 -34 4 -3 6 -17 3 -31 -3 -16 0 -25 9 -25 7 0 9 -3 6 -6 -3 -4 3 -18 13 -32
11 -13 20 -32 20 -41 0 -10 4 -21 9 -26 5 -6 14 -39 20 -75 6 -36 13 -80 17
-98 4 -19 2 -43 -4 -55 -5 -12 -15 -42 -22 -67 -7 -25 -16 -54 -20 -65 -27
-66 -35 -135 -14 -135 12 0 60 50 87 92 14 23 17 53 17 207 0 99 -4 190 -9
204 -10 26 1 58 13 38 4 -6 29 -11 56 -11 64 0 183 -23 246 -48 28 -12 84 -28
125 -36 174 -36 237 -62 579 -232 91 -45 212 -107 269 -138 58 -31 157 -80
220 -108 140 -63 256 -148 429 -314 124 -118 188 -194 413 -489 128 -167 156
-208 214 -315 90 -168 129 -223 162 -232 17 -5 186 -7 375 -6 l343 3 3 30 c2
17 5 80 7 140 2 61 7 111 10 113 3 2 19 1 36 -3 23 -5 28 -11 24 -25 -3 -11 0
-20 10 -24 11 -4 15 -20 15 -61 0 -51 3 -57 39 -91 22 -19 41 -45 43 -57 l3
-22 2904 0 c2172 0 2905 3 2908 11 3 9 12 9 32 1 22 -8 33 -7 52 6 l23 17 -22
0 c-24 0 -28 10 -10 28 17 17 39 15 32 -3 -4 -8 -1 -15 5 -15 6 0 10 5 9 11
-2 6 3 14 10 16 6 3 12 0 12 -6 0 -19 17 -12 23 8 3 12 18 23 38 29 24 6 34
14 34 28 0 15 6 18 33 16 24 -3 32 0 32 12 0 9 12 19 26 22 16 4 22 9 14 14
-16 10 15 21 36 13 8 -3 27 0 41 8 22 12 27 11 38 -4 16 -22 39 -22 56 0 13
15 11 16 -21 10 -30 -6 -33 -5 -18 7 24 18 79 8 85 -15 7 -25 23 -24 23 1 0
21 15 27 25 10 3 -5 15 -6 29 0 26 9 39 3 49 -22 4 -11 12 -15 21 -12 11 4 19
-2 25 -19 5 -13 17 -27 25 -30 14 -6 14 -10 4 -27 -11 -17 -10 -25 5 -51 9
-17 17 -36 17 -44 0 -10 119 -14 603 -20 331 -3 688 -5 792 -3 l190 3 3 3573
2 3572 -1288 0 -1288 0 -17 -67z m-1314 -1206 c-15 -22 -50 -56 -78 -74 -47
-33 -49 -34 -57 -14 -8 23 -29 27 -60 10 -23 -12 -25 -11 -30 15 -2 16 5 21
35 28 39 8 116 55 177 107 l35 30 3 -31 c3 -22 -5 -43 -25 -71z m-298 -66
c-56 -7 -55 -5 -32 -88 9 -29 12 -53 9 -53 -19 1 -142 129 -142 148 0 4 48 5
107 3 85 -4 97 -6 58 -10z m-1538 -343 c-3 -8 -6 -5 -6 6 -1 11 2 17 5 13 3
-3 4 -12 1 -19z m1877 -105 c4 -5 11 -8 14 -9 19 -1 98 -28 107 -36 5 -4 18
-8 30 -8 11 0 33 -7 49 -15 15 -8 37 -15 47 -15 10 0 20 -4 24 -9 9 -15 -82
-150 -110 -163 -35 -16 -53 2 -32 32 10 15 12 31 7 55 -4 19 -6 36 -3 39 2 2
-6 7 -19 11 -29 9 -68 44 -68 61 0 7 -8 15 -19 19 -21 6 -59 45 -44 45 5 0 13
-3 17 -7z m-94 -148 c7 -9 8 -15 2 -15 -5 0 -12 7 -16 15 -3 8 -4 15 -2 15 2
0 9 -7 16 -15z m540 5 c0 -5 -4 -10 -10 -10 -5 0 -10 5 -10 10 0 6 5 10 10 10
6 0 10 -4 10 -10z m-687 -595 c41 -19 80 -35 86 -35 6 0 11 -4 11 -10 0 -5 8
-10 17 -10 9 0 14 -3 10 -6 -3 -4 -26 2 -49 13 -24 11 -54 24 -68 28 -14 4
-29 11 -35 15 -5 4 -25 11 -42 15 -18 3 -33 11 -33 16 0 16 27 10 103 -26z
m1214 -652 c-3 -10 -5 -2 -5 17 0 19 2 27 5 18 2 -10 2 -26 0 -35z m-3857
-961 c0 -15 -7 -16 -47 -12 -34 3 -40 5 -20 8 15 2 27 8 27 13 0 5 9 9 20 9
12 0 20 -7 20 -18z m-863 -211 c15 -25 32 -53 39 -61 7 -8 20 -37 29 -65 20
-59 41 -85 67 -85 22 0 60 -18 70 -34 11 -17 -2 -26 -40 -26 -27 0 -41 -6 -50
-21 -12 -18 -20 -21 -55 -16 -33 5 -51 15 -84 50 l-42 44 14 40 c11 30 12 56
5 104 -5 35 -10 81 -10 103 0 34 2 37 16 26 8 -8 27 -34 41 -59z m803 -214
c41 -2 45 -5 53 -34 15 -52 4 -66 -46 -59 -60 10 -87 10 -129 1 -46 -9 -98 9
-98 35 0 13 11 19 40 24 22 3 48 16 58 27 13 16 24 19 47 14 17 -4 50 -8 75
-8z m-2070 -619 c40 2 50 -2 88 -36 24 -22 61 -50 82 -63 21 -13 52 -44 69
-69 37 -54 75 -91 154 -148 61 -45 64 -51 45 -82 -15 -24 -1 -53 27 -58 13 -3
15 1 10 17 -5 16 2 31 24 57 25 28 31 43 31 82 0 38 7 57 31 90 30 41 74 72
101 72 7 0 22 -7 33 -16 38 -28 9 -176 -36 -182 -39 -6 -67 -64 -36 -74 26 -9
234 11 270 26 32 14 53 15 145 6 167 -17 170 -18 224 -85 53 -66 66 -107 18
-56 -17 17 -34 31 -39 31 -4 0 -20 12 -35 27 l-26 26 -133 -12 c-157 -15 -366
-63 -385 -89 -21 -27 -72 -130 -72 -145 0 -8 19 -32 43 -53 23 -22 58 -58 77
-80 37 -43 102 -90 180 -129 27 -14 53 -30 57 -37 29 -46 59 -58 154 -63 95
-5 208 -23 221 -34 13 -11 -22 -124 -53 -172 -16 -25 -46 -61 -67 -80 -39 -36
-209 -149 -224 -149 -4 0 -43 -17 -86 -38 -72 -36 -79 -38 -110 -25 -18 7 -35
20 -39 29 -3 8 -11 13 -19 10 -14 -5 -58 34 -84 77 -22 36 -117 137 -129 137
-5 0 -11 6 -14 14 -4 10 1 13 18 12 21 -3 23 0 18 33 -2 20 -11 53 -19 74 -18
49 -18 50 12 44 20 -3 24 -1 19 12 -4 9 -9 28 -12 44 -7 36 12 36 57 -2 19
-15 51 -32 70 -36 l35 -7 -19 21 c-10 11 -57 59 -103 106 -72 73 -83 88 -77
110 4 18 2 27 -10 31 -13 5 -15 14 -11 33 4 19 0 35 -14 52 -11 14 -23 38 -26
52 -6 23 -3 28 19 37 30 11 33 36 11 80 -12 23 -23 30 -44 30 -36 0 -61 9 -61
22 0 5 9 23 21 39 l21 29 -31 39 c-17 21 -38 44 -47 52 -10 8 -40 41 -67 74
-27 33 -77 89 -111 125 -33 36 -72 82 -86 103 -22 33 -30 37 -67 37 -23 0 -45
-4 -48 -10 -3 -5 -13 -10 -22 -10 -14 0 -14 2 1 19 17 18 17 20 -1 31 -15 9
-14 10 7 4 14 -5 45 -7 70 -6z m480 -1226 c0 -15 -2 -15 -10 -2 -13 20 -13 33
0 25 6 -3 10 -14 10 -23z m-25 -61 c-9 -16 -25 -3 -18 15 4 10 9 12 15 6 6 -6
7 -15 3 -21z m24 -257 c7 -37 10 -69 7 -72 -11 -10 -36 21 -41 52 -6 27 7 86
19 86 2 0 9 -30 15 -66z m3973 -86 c23 -36 26 -63 12 -89 -7 -13 -13 -36 -14
-52 0 -27 -1 -27 -42 -20 -47 9 -125 7 -175 -3 -26 -5 -33 -3 -33 10 0 20 75
96 95 96 24 0 65 22 65 35 0 16 39 44 61 44 9 1 23 -9 31 -21z"/>
<path d="M11615 4700 c-3 -5 1 -23 10 -40 12 -24 19 -29 29 -21 7 6 17 7 22 3
5 -4 2 2 -7 13 -9 11 -19 28 -22 38 -7 19 -22 23 -32 7z"/>
<path d="M10840 3199 c0 -22 42 -79 125 -166 67 -72 125 -115 125 -93 0 5 -4
10 -9 10 -8 0 -159 163 -213 231 -18 22 -28 28 -28 18z"/>
<path d="M11110 2981 c0 -7 140 -83 208 -112 46 -20 58 -11 15 12 -16 8 -30
17 -33 20 -16 21 -190 94 -190 80z"/>
<path d="M10876 2908 c4 -7 18 -28 31 -46 13 -17 21 -36 18 -42 -9 -15 57 -79
90 -86 l30 -7 -26 24 c-14 14 -39 35 -55 47 l-29 23 35 -7 35 -6 -55 56 c-49
50 -92 76 -74 44z"/>
<path d="M11006 2880 c5 -5 32 -12 59 -15 28 -2 41 -2 30 1 -11 3 -24 10 -29
15 -14 13 -73 12 -60 -1z"/>
<path d="M11260 2866 c0 -2 9 -6 20 -9 11 -3 18 -1 14 4 -5 9 -34 13 -34 5z"/>
<path d="M11138 2843 c6 -2 18 -2 25 0 6 3 1 5 -13 5 -14 0 -19 -2 -12 -5z"/>
<path d="M11191 2840 c-17 -10 42 -30 83 -29 27 2 28 2 6 6 -14 3 -29 8 -35
12 -19 15 -42 19 -54 11z"/>
<path d="M11358 2827 c24 -7 36 -7 44 1 9 9 1 12 -32 11 l-45 -1 33 -11z"/>
<path d="M14888 8693 c-10 -2 -18 -8 -18 -13 0 -5 -7 -7 -16 -3 -27 10 -270
-175 -252 -193 4 -4 14 -1 22 5 8 7 20 11 28 11 20 -3 58 11 58 21 0 5 6 9 14
9 8 0 16 3 18 8 6 14 104 92 116 92 7 0 12 3 12 8 0 4 10 12 22 17 13 6 24 18
26 28 4 17 1 18 -30 10z"/>
<path d="M15022 8632 c-25 -4 -25 -21 -1 -32 8 -4 43 -22 78 -40 59 -30 63
-31 56 -11 -12 38 4 43 51 17 24 -13 44 -21 44 -16 0 15 -63 58 -95 66 -16 4
-34 9 -40 13 -12 7 -62 9 -93 3z m45 -18 c-3 -3 -12 -4 -19 -1 -8 3 -5 6 6 6
11 1 17 -2 13 -5z"/>
<path d="M14980 8564 c0 -13 46 -54 61 -54 8 0 41 -24 73 -54 51 -47 57 -50
51 -27 -9 35 -70 97 -120 121 -42 20 -65 25 -65 14z"/>
<path d="M14866 8542 c-3 -6 8 -13 25 -17 18 -4 53 -29 85 -61 29 -30 56 -54
59 -54 3 0 3 12 0 28 -3 15 -2 21 1 14 3 -7 15 -17 27 -23 12 -7 19 -8 15 -4
-4 5 -3 14 3 21 13 16 4 34 -17 34 -8 0 -14 5 -14 10 0 6 -6 10 -14 10 -7 0
-19 6 -25 14 -6 7 -30 17 -54 20 -23 4 -52 9 -63 12 -12 3 -25 1 -28 -4z"/>
<path d="M14778 8485 c-3 -3 -36 -8 -74 -10 -72 -5 -183 -36 -151 -43 10 -2
24 2 32 8 10 9 20 7 39 -5 15 -10 35 -15 48 -11 16 4 30 -2 48 -19 14 -13 41
-27 60 -32 28 -8 40 -19 63 -64 27 -51 47 -73 47 -51 0 5 9 12 20 15 15 4 20
14 20 39 0 19 5 39 11 45 34 34 -69 137 -123 122 -15 -4 -28 -3 -30 3 -2 5 -6
6 -10 3z"/>
<path d="M14870 8199 c0 -17 27 -45 35 -37 3 3 -3 16 -14 29 -16 19 -20 20
-21 8z"/>
<path d="M14620 8133 c0 -13 5 -23 10 -23 13 0 13 11 0 30 -8 12 -10 11 -10
-7z"/>
<path d="M1638 8073 c-39 -6 -35 -21 8 -29 41 -7 70 10 44 26 -8 5 -17 9 -20
8 -3 0 -17 -3 -32 -5z"/>
<path d="M12993 7936 c-18 -6 -36 -19 -39 -29 -12 -38 41 -127 76 -127 17 0
50 30 50 45 0 5 6 16 14 24 8 9 16 27 18 41 3 22 -1 25 -31 28 -19 2 -40 9
-45 16 -8 9 -20 9 -43 2z m87 -53 c-19 -13 -24 -13 -31 -2 -6 10 -2 16 14 20
33 9 42 -1 17 -18z"/>
<path d="M3847 6733 c-4 -3 -7 -44 -7 -90 l0 -83 165 0 165 0 0 60 c0 46 -4
61 -17 69 -45 23 -291 59 -306 44z"/>
<path d="M3518 6719 c-16 -9 -18 -29 -18 -189 l0 -180 -90 0 -90 0 0 140 c0
127 -2 140 -18 140 -20 0 -63 -27 -75 -47 -4 -7 -14 -13 -21 -13 -21 0 -227
-179 -246 -214 -6 -13 -23 -29 -36 -34 -13 -6 -33 -31 -45 -54 -12 -24 -31
-53 -42 -65 l-20 -23 62 0 c68 0 75 -6 74 -67 -1 -18 -2 -330 -2 -693 l-1
-660 -45 0 c-25 0 -45 -4 -45 -8 0 -17 82 -115 147 -177 42 -39 44 -39 120
-41 85 -1 123 -15 172 -65 30 -30 61 -83 61 -104 0 -12 31 -45 43 -45 3 0 8
46 9 103 l3 102 75 3 c96 4 152 -12 200 -57 55 -52 72 -92 73 -172 l1 -69 32
0 c17 0 46 -3 63 -6 39 -8 37 -2 -36 119 -29 48 -53 90 -53 92 0 2 -11 21 -25
41 -30 44 -23 57 31 52 36 -3 40 -7 95 -98 31 -52 61 -96 66 -97 8 -3 17 12
75 117 17 30 35 61 41 68 11 14 87 17 87 2 0 -13 -37 -83 -76 -145 -80 -128
-84 -139 -84 -235 l0 -90 -32 -2 c-18 0 -39 -1 -45 -1 -7 1 -13 -3 -13 -7 0
-8 96 -100 104 -100 3 0 25 21 48 47 170 186 222 233 381 339 88 60 173 115
187 122 14 7 32 19 40 26 41 35 294 175 390 215 78 33 140 60 175 76 17 8 75
28 130 45 55 17 118 40 140 51 22 10 47 19 56 19 8 0 24 7 35 15 10 8 27 15
36 15 15 0 29 6 103 43 11 6 74 12 140 13 117 2 175 13 265 51 70 29 85 39
132 84 42 40 48 50 48 87 0 36 -3 42 -26 48 -14 4 -52 4 -84 1 l-59 -5 -20 41
c-12 25 -24 80 -29 134 -5 51 -15 99 -22 107 -6 8 -9 24 -5 35 5 16 0 21 -27
27 -18 4 -53 8 -78 9 -25 1 -51 4 -57 8 -6 4 -43 10 -82 13 -69 5 -71 4 -72
-18 l0 -23 -9 22 c-8 20 -16 21 -127 23 -65 0 -145 2 -178 4 -74 3 -85 0 -85
-28 l-1 -21 -18 22 c-17 21 -30 23 -130 27 -62 2 -117 8 -125 15 -7 6 -16 35
-19 64 -22 187 -41 256 -107 387 -70 139 -182 270 -232 270 -15 0 -28 3 -29 8
-7 66 -69 122 -242 216 -49 27 -68 34 -72 24 -3 -7 -6 -56 -7 -108 l-3 -95
-355 0 -355 0 -3 168 -2 167 -53 0 c-28 0 -60 -5 -69 -11z m-108 -659 c0 -107
18 -114 22 -8 l3 83 50 0 c48 0 50 -1 62 -35 l12 -35 0 36 c1 41 7 50 27 42
11 -4 14 -29 14 -109 0 -103 0 -104 -24 -104 -18 0 -25 7 -31 33 l-8 32 -6
-30 c-8 -39 -51 -50 -52 -13 l0 23 -9 -22 c-7 -18 -17 -23 -43 -23 -18 0 -38
5 -45 12 -17 17 -16 195 1 201 23 8 27 -4 27 -83z m298 31 c3 -23 -1 -31 -13
-31 -9 0 -19 9 -22 20 -10 38 -23 9 -23 -51 0 -57 15 -83 22 -36 4 32 32 28
36 -6 4 -36 -13 -57 -48 -57 -43 0 -51 19 -48 111 3 78 5 84 28 96 34 17 64
-3 68 -46z m-481 33 c6 -15 7 -15 19 0 21 30 49 16 52 -27 4 -50 22 -48 22 3
0 33 3 40 20 40 19 0 20 -7 20 -105 0 -98 -1 -105 -20 -105 -17 0 -20 7 -20
40 0 51 -18 53 -22 3 -3 -43 -31 -57 -53 -26 -13 17 -14 17 -15 1 0 -27 -75
-25 -90 1 -17 32 -13 157 6 175 21 21 73 21 81 0z m533 -25 c0 -51 24 -49 28
3 l3 36 71 1 c39 0 77 -4 84 -10 8 -7 14 -7 19 1 14 23 85 8 86 -19 0 -11 3
-9 9 7 6 14 18 22 34 22 20 0 27 -7 35 -32 l9 -33 1 33 c1 26 5 33 19 30 15
-3 17 -16 17 -103 0 -100 0 -100 -25 -100 -20 0 -26 6 -29 30 l-4 30 -6 -30
c-8 -37 -40 -47 -48 -14 l-6 23 -8 -22 c-6 -17 -17 -22 -43 -22 -19 0 -38 5
-41 10 -5 8 -11 8 -19 1 -7 -6 -45 -10 -84 -10 l-72 1 0 39 c0 28 -4 39 -15
39 -11 0 -15 -11 -15 -40 0 -33 -3 -40 -20 -40 -19 0 -20 7 -20 105 0 98 1
105 20 105 17 0 20 -7 20 -41z m-580 -355 c0 -95 -2 -104 -19 -104 -26 0 -31
19 -31 114 0 82 10 109 36 99 11 -4 14 -30 14 -109z m54 110 c9 -3 16 -16 16
-28 0 -20 1 -19 13 4 12 24 16 25 117 27 58 1 113 -1 123 -3 27 -8 20 -31 -13
-37 -34 -7 -40 -32 -10 -42 26 -8 26 -42 -1 -50 -29 -10 -20 -39 14 -43 20 -3
27 -8 25 -20 -2 -13 -16 -18 -51 -20 l-47 -3 0 91 c0 69 -3 91 -12 88 -9 -3
-15 -34 -18 -89 -5 -77 -7 -84 -27 -87 -21 -3 -22 0 -25 84 -2 57 -7 89 -15
91 -9 3 -13 -20 -15 -84 -3 -80 -5 -88 -24 -91 -20 -3 -21 -1 -49 93 -2 6 -4
-14 -4 -43 -1 -45 -4 -53 -18 -50 -15 3 -18 17 -21 97 -4 121 0 131 42 115z
m373 -9 c19 -13 21 -25 22 -111 0 -84 -2 -95 -16 -92 -10 2 -20 17 -24 36 -10
49 -19 51 -19 4 0 -35 -3 -42 -20 -42 -19 0 -20 7 -20 103 0 57 3 107 7 110
11 12 48 8 70 -8z m90 -15 c12 -24 13 -24 13 -3 0 22 16 33 38 25 8 -3 12 -28
13 -76 1 -80 4 -78 14 7 5 48 11 60 30 69 18 8 28 8 39 -1 10 -8 16 -9 21 -1
3 5 26 10 50 10 24 0 47 -5 50 -10 5 -8 11 -7 20 0 16 14 35 5 35 -16 0 -10 5
-9 20 6 22 22 60 26 78 8 16 -16 16 -180 0 -196 -17 -17 -63 -15 -79 4 -11 14
-13 14 -21 0 -12 -21 -34 -20 -42 0 -3 9 -6 49 -6 90 0 58 -3 74 -15 74 -11 0
-15 -19 -17 -87 -3 -73 -6 -88 -20 -91 -15 -3 -18 8 -20 85 -3 80 -5 88 -24
91 -19 3 -20 0 -13 -50 13 -88 11 -128 -6 -128 -8 0 -20 10 -26 22 l-12 22
-17 -22 c-13 -15 -29 -22 -53 -22 -37 0 -43 10 -60 85 -3 11 -5 -4 -6 -32 -1
-46 -4 -53 -21 -53 -19 0 -20 7 -20 103 0 57 3 107 7 111 13 13 37 1 50 -24z
m497 14 c5 -14 8 -14 22 1 26 25 36 5 38 -74 0 -39 4 -71 7 -71 4 0 10 34 14
75 7 80 13 90 49 81 18 -4 25 -15 30 -48 21 -122 23 -127 25 -41 1 83 10 104
36 83 11 -9 15 -34 15 -91 0 -78 0 -79 26 -79 19 0 25 -5 22 -17 -3 -15 -16
-19 -71 -21 -62 -3 -69 -1 -74 18 -7 25 -19 26 -32 1 -12 -22 -90 -28 -96 -8
-2 7 -6 21 -11 32 -6 18 -8 16 -13 -10 -4 -17 -13 -30 -21 -30 -20 0 -28 194
-8 207 20 12 35 10 42 -8z m-993 -314 c6 -35 14 -28 21 15 2 13 12 21 31 23
l27 3 0 -105 c0 -58 -4 -107 -8 -110 -12 -7 -29 7 -35 29 -4 19 -5 18 -6 -2
-1 -28 -18 -38 -36 -23 -12 10 -18 10 -29 1 -12 -10 -17 -8 -25 8 -12 22 -15
184 -4 195 4 4 19 6 33 4 20 -2 26 -10 31 -38z m137 -66 c2 -86 0 -103 -14
-108 -29 -11 -34 4 -34 103 0 101 3 114 30 109 12 -3 16 -23 18 -104z m70 69
c2 -18 7 -33 12 -33 5 0 10 15 12 33 l3 32 83 3 c76 2 82 1 82 -18 0 -15 -7
-20 -25 -20 -31 0 -35 -35 -5 -43 11 -3 20 -12 20 -20 0 -9 -9 -19 -20 -22
-28 -9 -26 -43 3 -47 14 -2 22 -10 22 -23 0 -16 -8 -21 -36 -23 -23 -2 -42 3
-52 12 -13 14 -16 14 -21 1 -8 -22 -27 -18 -34 7 l-5 22 -8 -22 c-10 -26 -27
-29 -35 -7 -6 14 -8 13 -19 -1 -24 -34 -35 -5 -35 95 0 54 3 101 7 105 4 4 16
6 28 4 15 -2 21 -12 23 -35z m2575 -10 c-13 -2 -35 -2 -50 0 -16 2 -5 4 22 4
28 0 40 -2 28 -4z m-113 -13 c0 -5 -4 -10 -10 -10 -5 0 -10 5 -10 10 0 6 5 10
10 10 6 0 10 -4 10 -10z m-2640 -251 c0 -14 -7 -19 -25 -19 -31 0 -35 -35 -5
-43 11 -3 20 -13 20 -22 0 -9 -9 -19 -20 -22 -16 -4 -20 -14 -20 -44 0 -32 -3
-39 -20 -39 -26 0 -32 26 -28 125 l3 80 35 5 c45 8 60 2 60 -21z m215 19 c23
2 137 1 175 -2 19 -1 26 -7 28 -26 6 -49 16 -56 21 -15 5 31 10 40 26 40 23 0
23 -16 4 -137 -10 -65 -12 -68 -38 -68 -26 0 -28 4 -39 64 -7 35 -13 76 -14
92 -1 16 -4 -11 -7 -61 -6 -84 -8 -90 -28 -93 -22 -3 -23 -1 -23 82 0 69 -3
86 -15 86 -11 0 -15 -18 -17 -82 -3 -75 -5 -83 -23 -83 -18 0 -20 8 -23 82 -2
60 -7 83 -17 87 -9 3 -15 -1 -15 -9 0 -18 -36 -20 -43 -2 -3 7 -6 5 -6 -6 -1
-10 10 -30 24 -45 16 -17 25 -38 25 -59 0 -24 -7 -37 -25 -49 -23 -15 -27 -15
-51 1 -18 12 -29 14 -33 6 -7 -11 -30 -15 -68 -13 -22 2 -23 5 -23 107 l0 105
44 0 c25 0 48 -5 51 -10 4 -7 14 -5 28 5 13 9 30 12 42 8 11 -4 29 -6 40 -5z
m360 -35 c19 -115 23 -121 24 -40 1 70 3 77 21 77 18 0 20 -7 21 -57 2 -108 2
-108 32 -111 19 -2 27 -9 27 -23 0 -17 -7 -19 -69 -19 -61 0 -70 3 -76 20 -3
11 -10 20 -15 20 -5 0 -12 -9 -15 -20 -4 -11 -15 -20 -27 -20 -18 0 -19 4 -13
53 3 28 11 76 16 105 10 48 12 52 39 52 26 0 30 -4 35 -37z m-581 -258 c17
-17 36 -20 36 -5 0 19 49 23 75 6 23 -15 25 -22 25 -96 0 -70 -2 -81 -22 -94
-49 -35 -88 -9 -88 59 0 24 -4 47 -10 50 -5 3 -10 0 -10 -7 0 -7 -11 -25 -25
-40 l-25 -27 28 -3 c36 -4 42 -35 8 -44 -14 -3 -37 -3 -51 0 -33 8 -33 48 -2
90 26 34 40 76 26 76 -5 0 -9 -7 -9 -16 0 -10 -7 -14 -22 -12 -18 2 -22 9 -20
28 4 45 55 65 86 35z m227 5 c31 -17 25 -74 -12 -121 l-31 -39 32 0 c27 0 31
-3 28 -22 -3 -20 -10 -23 -50 -26 l-48 -3 0 37 c0 26 7 46 24 63 26 29 43 71
28 71 -6 0 -12 -7 -16 -15 -10 -27 -36 -17 -36 13 0 47 36 66 81 42z m123 2
c10 -17 11 -191 0 -202 -13 -13 -44 -3 -44 15 0 8 -12 15 -27 17 -24 3 -28 7
-26 32 2 28 35 109 55 134 12 14 34 16 42 4z"/>
<path d="M3180 6036 c0 -71 5 -81 20 -41 6 17 16 25 27 23 12 -2 19 4 21 20 3
18 -1 22 -22 22 -16 0 -26 6 -26 14 0 8 -4 18 -10 21 -6 4 -10 -18 -10 -59z"/>
<path d="M3890 6080 c0 -13 7 -20 19 -20 11 0 22 -6 24 -12 3 -7 6 2 6 20 1
28 -2 32 -24 32 -18 0 -25 -5 -25 -20z"/>
<path d="M3997 6093 c-11 -10 -8 -123 3 -123 6 0 10 28 10 65 0 65 -1 71 -13
58z"/>
<path d="M3913 6015 c-35 -15 -30 -45 7 -45 30 0 35 10 22 40 -5 12 -12 13
-29 5z"/>
<path d="M3570 5790 c0 -19 3 -21 12 -12 9 9 9 15 0 24 -9 9 -12 7 -12 -12z"/>
<path d="M4069 5806 c-8 -8 3 -126 12 -126 5 0 9 29 9 65 0 57 -6 75 -21 61z"/>
<path d="M3812 5740 c0 -14 2 -19 5 -12 2 6 2 18 0 25 -3 6 -5 1 -5 -13z"/>
<path d="M3303 5243 c-29 -6 -32 -43 -4 -43 19 0 35 -23 24 -34 -4 -3 -15 -6
-25 -6 -13 0 -18 -7 -18 -27 0 -14 3 -24 6 -20 3 3 17 2 30 -3 20 -8 24 -6 24
10 0 22 35 28 43 8 2 -7 8 -10 12 -6 4 4 -6 23 -24 43 -17 20 -31 47 -31 60 0
14 -3 24 -7 24 -5 -1 -18 -4 -30 -6z"/>
<path d="M3762 5170 c0 -14 2 -19 5 -12 2 6 2 18 0 25 -3 6 -5 1 -5 -13z"/>
<path d="M3303 4890 c0 -36 2 -50 4 -32 2 17 2 47 0 65 -2 17 -4 3 -4 -33z"/>
<path d="M11610 6204 c0 -9 7 -14 18 -13 27 4 61 -11 73 -32 15 -28 29 -14 16
16 -8 15 -20 25 -34 25 -12 0 -25 5 -28 10 -10 16 -45 12 -45 -6z"/>
<path d="M11732 6058 c3 -34 22 -48 31 -24 9 22 -4 56 -20 56 -10 0 -13 -9
-11 -32z"/>
<path d="M12217 6072 c-24 -26 -22 -52 4 -52 14 0 24 -10 32 -30 8 -21 16 -29
27 -24 29 11 35 9 38 -13 2 -13 13 -29 24 -37 18 -13 23 -12 44 11 28 30 29
39 9 87 -27 63 -140 100 -178 58z"/>
<path d="M2747 6053 c-3 -10 -15 -43 -27 -73 -45 -115 -49 -151 -50 -453 0
-305 8 -395 43 -492 49 -136 47 -153 47 463 0 314 -2 572 -4 572 -2 0 -6 -8
-9 -17z"/>
<path d="M11590 6017 c0 -25 -7 -58 -15 -73 -8 -16 -15 -44 -15 -61 0 -30 3
-33 29 -33 17 0 33 -4 36 -10 3 -5 10 -10 15 -10 15 0 19 29 11 79 -6 39 -5
51 5 51 7 0 14 -4 16 -10 2 -5 9 -6 16 -1 11 7 11 11 -4 22 -9 8 -34 31 -56
52 l-38 38 0 -44z"/>
<path d="M11765 5942 c-13 -11 -20 -27 -18 -44 1 -19 -3 -28 -13 -28 -37 0
-84 -151 -53 -171 8 -5 42 -9 76 -9 49 0 64 4 72 17 9 17 11 16 33 -5 40 -36
42 -35 125 65 48 58 38 72 -17 23 -25 -22 -52 -40 -60 -40 -18 0 -37 39 -46
95 -15 95 -56 135 -99 97z m20 -11 c-3 -6 -11 -11 -16 -11 -5 0 -4 6 3 14 14
16 24 13 13 -3z"/>
<path d="M6172 4874 c-7 -8 -8 -14 -3 -14 10 0 25 19 20 25 -2 1 -10 -3 -17
-11z"/>
<path d="M6126 4798 c-10 -24 -24 -58 -32 -76 -18 -43 -18 -86 1 -102 8 -7 15
-18 15 -26 0 -19 17 -27 63 -29 25 -2 45 3 56 14 15 14 13 18 -18 47 -36 32
-37 39 -44 163 -3 58 -19 62 -41 9z"/>
<path d="M6395 4750 c3 -5 8 -10 11 -10 2 0 4 5 4 10 0 6 -5 10 -11 10 -5 0
-7 -4 -4 -10z"/>
<path d="M6436 4689 c-45 -47 -54 -48 -48 -10 3 20 -1 30 -14 35 -23 9 -25 5
-15 -30 7 -24 4 -35 -15 -59 -13 -17 -24 -39 -24 -49 0 -19 1 -19 23 1 12 12
42 25 67 30 l45 10 0 -67 c0 -63 -2 -69 -37 -109 -36 -39 -49 -71 -28 -71 5 0
13 6 17 14 9 14 46 36 62 36 6 0 11 -9 11 -20 0 -11 -4 -20 -10 -20 -5 0 -10
-4 -10 -10 0 -5 10 -10 23 -10 21 -1 21 -1 -7 -26 -27 -24 -27 -26 -11 -44 16
-18 15 -20 -25 -49 -79 -57 -132 -59 -161 -4 l-12 22 -39 -20 c-76 -39 -183
-121 -250 -192 -65 -68 -68 -73 -68 -120 0 -27 -7 -63 -16 -80 -16 -32 -142
-146 -176 -159 -15 -6 -18 -18 -18 -67 0 -33 -5 -72 -10 -88 -6 -15 -49 -65
-98 -110 l-87 -83 103 0 103 0 -3 -57 -3 -58 -184 -3 c-203 -3 -201 -4 -201
60 0 34 10 46 130 165 148 147 168 188 73 147 -21 -9 -47 -21 -58 -25 -99 -43
-318 -91 -368 -82 l-27 5 0 -66 c0 -84 -16 -123 -70 -169 -39 -33 -50 -37 -99
-37 l-56 -1 36 -32 c19 -17 68 -58 107 -91 40 -32 72 -62 72 -67 0 -4 -17 -36
-38 -71 -50 -81 -220 -369 -255 -430 -48 -83 -50 -84 -115 -32 -31 25 -64 53
-72 63 -8 9 -193 169 -410 355 -217 187 -411 354 -431 373 -40 38 -49 33 -49
-33 l0 -34 -190 0 -190 0 0 52 0 53 88 88 87 88 -37 35 c-31 28 -46 34 -81 34
-53 0 -67 13 -67 61 0 37 -26 69 -56 69 -7 0 -43 -26 -82 -57 -38 -32 -86 -72
-108 -89 -35 -28 -37 -33 -24 -49 9 -11 14 -41 14 -89 0 -84 -20 -127 -80
-168 -34 -24 -49 -27 -112 -28 -54 0 -83 5 -112 20 l-40 20 -219 -182 c-120
-101 -435 -363 -699 -583 -264 -219 -478 -403 -476 -407 3 -4 680 -8 1504 -8
1230 0 1501 2 1512 13 7 8 24 37 37 65 15 31 31 52 40 52 9 0 43 -16 76 -35
33 -18 85 -46 115 -61 l55 -27 570 -1 c314 -1 632 0 708 2 l137 3 0 834 0 833
-35 53 c-37 56 -41 69 -25 69 6 0 10 6 10 13 0 42 90 78 104 42 3 -8 14 -15
23 -15 10 0 26 -9 36 -20 17 -21 18 -21 81 15 34 19 69 35 75 35 7 0 25 9 41
20 27 19 81 22 120 7 30 -12 123 -27 129 -22 7 8 -36 42 -64 51 -39 13 -145
86 -164 113 l-20 27 25 27 c14 15 29 27 33 27 5 0 48 36 97 80 49 44 94 80
100 80 13 0 44 -59 44 -82 0 -8 7 -23 15 -34 8 -10 15 -35 15 -55 0 -23 7 -42
20 -54 11 -10 20 -28 20 -41 0 -12 7 -29 15 -38 8 -8 15 -21 15 -29 0 -8 7
-20 15 -27 8 -7 19 -27 23 -44 11 -42 65 -72 105 -57 33 13 36 48 9 119 l-19
49 63 -12 c37 -7 69 -8 78 -3 20 11 56 80 56 108 0 26 -19 25 -80 -1 -47 -20
-50 -20 -121 -3 -66 16 -77 23 -139 83 -36 36 -78 80 -91 97 -14 17 -60 54
-103 83 -53 36 -76 57 -72 67 26 68 47 159 44 195 -3 41 -5 44 -33 45 -23 1
-40 -8 -69 -37z m-3206 -1341 c64 -69 -36 -170 -110 -110 -28 22 -30 84 -4
113 24 27 87 26 114 -3z m2024 0 c38 -54 2 -128 -63 -128 -58 0 -92 50 -71
106 14 37 26 44 77 44 32 0 46 -5 57 -22z"/>
<path d="M6014 4608 c-5 -35 -10 -55 -12 -45 -2 9 -10 17 -18 17 -12 0 -14 -8
-9 -37 8 -47 43 -120 61 -127 18 -7 17 2 -1 34 -8 14 -14 36 -13 50 1 24 1 24
5 2 5 -25 29 -25 27 1 -1 9 4 13 12 10 19 -7 18 -4 -12 61 -14 31 -23 63 -20
71 3 8 1 17 -4 20 -5 3 -12 -23 -16 -57z"/>
<path d="M5790 4584 c-117 -76 -343 -173 -403 -174 -12 -1 -33 -7 -47 -15 -23
-12 -24 -14 -6 -21 36 -14 257 55 343 107 55 33 173 123 173 131 0 11 1 12
-60 -28z"/>
<path d="M5924 4568 c-39 -52 -43 -122 -11 -168 14 -20 14 -19 13 17 -1 30 2
38 16 37 16 -2 17 5 12 55 -7 62 -16 79 -30 59z"/>
<path d="M6290 4560 c6 -11 16 -20 23 -20 8 0 8 3 -2 9 -7 5 -10 14 -7 20 4 6
0 11 -9 11 -13 0 -14 -4 -5 -20z"/>
<path d="M3500 4366 c0 -74 3 -87 18 -92 9 -3 26 -10 37 -14 11 -5 41 -11 68
-14 l47 -6 0 58 c0 89 -38 134 -123 147 l-47 7 0 -86z"/>
<path d="M7090 3683 c0 -5 -29 -39 -65 -78 -89 -95 -119 -159 -112 -239 3 -34
11 -74 17 -91 l13 -30 8 42 c10 53 24 80 50 94 13 7 19 17 16 29 -3 12 3 21
19 29 13 6 24 19 24 28 0 10 7 29 15 43 8 14 21 40 30 57 10 21 25 35 43 39
42 11 44 25 4 56 -36 27 -62 36 -62 21z"/>
<path d="M1277 3673 c-25 -6 -47 -55 -47 -103 0 -39 1 -40 33 -40 34 0 105 15
113 23 12 11 -11 83 -32 104 -23 23 -32 25 -67 16z"/>
<path d="M1688 3647 c-12 -29 -10 -73 3 -60 6 6 9 26 7 44 -2 26 -5 30 -10 16z"/>
<path d="M4861 3434 c-24 -32 -45 -63 -48 -70 -6 -16 53 -47 76 -39 53 17 74
106 34 146 -19 20 -20 19 -62 -37z"/>
<path d="M2858 3390 c-43 -36 -53 -50 -42 -54 56 -22 107 11 102 66 l-3 36
-57 -48z"/>
<path d="M3527 3380 l-42 -39 95 -1 95 0 -45 40 c-25 21 -49 39 -53 40 -4 0
-27 -18 -50 -40z"/>
<path d="M7153 3354 c-19 -20 -32 -38 -30 -40 6 -6 86 40 91 53 3 6 -2 14 -11
17 -10 4 -28 -7 -50 -30z"/>
<path d="M7055 3240 c-10 -11 -25 -20 -34 -20 -10 0 -12 -3 -5 -10 14 -14 36
-5 52 21 18 28 10 34 -13 9z"/>
<path d="M15183 3045 c-9 -10 -8 -18 4 -35 l16 -23 9 23 c11 30 -10 56 -29 35z"/>
<path d="M17235 2260 c-3 -5 1 -10 10 -10 9 0 13 5 10 10 -3 6 -8 10 -10 10
-2 0 -7 -4 -10 -10z"/>
</g>
</svg>
