<?xml version="1.0" standalone="no"?>
<!DOCTYPE svg PUBLIC "-//W3C//DTD SVG 20010904//EN"
 "http://www.w3.org/TR/2001/REC-SVG-20010904/DTD/svg10.dtd">
<svg version="1.0" xmlns="http://www.w3.org/2000/svg"
 width="1920.000000pt" height="1080.000000pt" viewBox="0 0 1920.000000 1080.000000"
 preserveAspectRatio="xMidYMid meet">

<g transform="translate(0.000000,1080.000000) scale(0.100000,-0.100000)"
fill="#000000" stroke="none">
<path d="M8330 9705 c0 -8 -4 -15 -10 -15 -5 0 -10 -7 -10 -15 0 -13 -116
-247 -167 -336 -70 -122 -218 -341 -235 -347 -4 -2 -8 -8 -8 -14 0 -6 -12 -25
-27 -42 -16 -18 -41 -50 -58 -71 -102 -133 -310 -351 -454 -476 -41 -35 -79
-69 -85 -74 -51 -47 -398 -305 -410 -305 -3 0 -27 -15 -53 -34 -27 -18 -68
-45 -93 -58 -25 -14 -74 -42 -110 -63 -169 -97 -562 -295 -586 -295 -3 0 -24
-8 -47 -19 -23 -10 -67 -29 -97 -41 -30 -12 -68 -28 -85 -35 -16 -6 -46 -18
-65 -25 -19 -7 -39 -17 -44 -22 -6 -4 -20 -8 -32 -8 -13 0 -26 -4 -29 -10 -3
-5 -14 -10 -23 -10 -9 0 -30 -7 -46 -15 -15 -8 -37 -15 -47 -15 -10 0 -20 -4
-23 -9 -3 -5 -18 -11 -33 -14 -25 -4 -41 -9 -118 -37 -11 -4 -58 -19 -105 -33
-238 -71 -254 -76 -340 -97 -19 -5 -64 -16 -100 -25 -36 -10 -81 -21 -100 -25
-19 -5 -66 -16 -105 -25 -38 -9 -89 -21 -112 -26 -94 -20 -131 -28 -203 -43
-119 -26 -259 -46 -315 -46 -33 0 -57 -5 -64 -14 -12 -14 -23 -16 -151 -35
-36 -6 -108 -17 -160 -26 -256 -44 -414 -50 -515 -21 -33 9 -118 23 -190 30
-108 12 -154 12 -275 1 -198 -18 -292 -45 -448 -126 -91 -48 -96 -49 -180 -49
-48 0 -130 -5 -182 -10 -163 -18 -601 -32 -1205 -39 -319 -4 -581 -8 -582 -9
-2 -1 -3 -344 -3 -763 l0 -761 328 5 c332 6 950 38 1167 62 28 3 120 12 205
21 85 8 182 19 215 25 103 17 203 14 225 -6 11 -10 20 -21 20 -25 0 -10 -240
-40 -465 -59 -66 -5 -127 -12 -135 -15 -45 -17 -818 -59 -1302 -72 l-258 -6 0
-1099 0 -1099 305 0 305 0 0 110 0 110 40 0 40 0 0 -110 c0 -91 3 -110 15
-110 13 0 15 20 15 120 l0 120 173 0 c117 0 177 4 185 12 6 6 27 12 46 13 20
1 43 8 51 15 9 7 77 19 158 27 78 7 185 18 237 24 224 24 245 26 257 16 10 -7
13 -55 13 -178 l0 -169 103 -1 102 0 -55 -27 c-85 -41 -199 -160 -244 -254
-51 -106 -59 -189 -54 -528 4 -246 7 -282 26 -340 39 -119 117 -220 226 -291
l59 -39 237 0 237 0 59 38 c111 72 199 191 235 317 20 72 20 678 0 750 -39
137 -154 280 -276 343 l-60 31 328 1 c180 0 327 -2 327 -5 0 -2 -12 -11 -27
-19 -62 -33 -141 -122 -177 -200 -14 -30 -56 -160 -56 -173 0 -6 60 -32 119
-52 74 -25 86 -20 96 42 20 130 90 212 210 243 136 36 290 -53 330 -192 19
-65 19 -96 0 -157 -30 -99 -120 -194 -340 -357 -188 -140 -244 -188 -278 -236
-33 -47 -74 -136 -89 -194 -17 -64 -37 -155 -38 -167 0 -10 103 -13 480 -13
l481 0 -3 87 -3 88 -355 3 c-200 1 -358 6 -364 12 -15 15 98 117 287 259 98
73 217 171 264 218 71 70 92 99 126 171 39 85 40 90 41 197 1 129 -10 173 -70
265 -44 69 -85 111 -149 154 l-40 26 338 0 337 0 0 473 c0 259 4 477 8 483 7
11 69 44 83 44 8 0 106 42 141 61 10 5 22 9 27 9 5 0 45 16 88 36 43 20 94 43
113 52 80 35 287 134 320 152 19 10 73 38 120 62 89 45 137 71 284 156 49 29
90 52 92 52 2 0 53 32 114 70 61 39 112 70 114 70 13 0 358 240 557 388 70 52
267 208 279 222 3 3 23 20 45 39 239 202 639 607 845 854 8 10 22 28 32 38 9
11 31 38 50 61 18 23 38 46 43 52 6 6 23 29 40 51 16 22 35 47 42 55 47 58
210 284 270 375 39 61 77 115 83 122 5 7 10 15 10 18 0 3 8 18 19 33 24 36
124 198 148 242 116 209 166 303 219 410 48 97 96 200 129 275 7 17 24 56 39
88 14 32 26 63 26 71 0 7 3 16 7 20 20 19 45 120 63 256 5 36 16 115 25 175
39 265 92 872 99 1128 l3 137 -67 0 -68 0 -16 -49 c-9 -28 -16 -57 -16 -66 0
-8 -4 -23 -9 -33 -5 -9 -16 -42 -26 -72 -9 -30 -20 -64 -24 -75 -5 -11 -16
-45 -26 -75 -10 -30 -22 -59 -26 -64 -5 -6 -9 -18 -9 -28 0 -10 -4 -26 -10
-36 -8 -15 -27 -60 -50 -117 -49 -124 -172 -380 -250 -520 -60 -108 -153 -260
-162 -263 -4 -2 -8 -8 -8 -12 0 -9 -96 -156 -125 -192 -8 -9 -22 -29 -32 -45
-10 -15 -23 -35 -30 -43 -6 -8 -51 -64 -99 -125 -149 -189 -224 -274 -405
-454 -122 -123 -224 -219 -294 -277 -28 -23 -60 -51 -73 -62 -13 -11 -41 -35
-64 -54 -23 -18 -46 -37 -52 -43 -28 -25 -215 -163 -346 -254 -80 -55 -150
-105 -157 -111 -7 -5 -15 -10 -19 -10 -4 0 -22 -11 -40 -25 -18 -14 -35 -25
-38 -25 -3 0 -48 -27 -100 -60 -53 -33 -100 -60 -106 -60 -5 0 -10 -4 -10 -9
0 -5 -8 -11 -17 -14 -10 -3 -43 -20 -73 -38 -134 -77 -350 -188 -515 -264 -44
-20 -102 -47 -130 -60 -27 -13 -70 -33 -94 -44 -25 -12 -48 -21 -53 -21 -4 0
-33 -12 -65 -26 -69 -31 -106 -47 -153 -64 -44 -15 -66 -24 -112 -44 -20 -9
-43 -16 -51 -16 -9 0 -18 -4 -21 -9 -3 -5 -16 -11 -28 -14 -13 -3 -75 -24
-138 -47 -63 -23 -124 -44 -135 -47 -11 -2 -29 -8 -40 -12 -144 -56 -197 -66
-203 -38 -4 22 24 57 47 57 9 0 75 21 146 46 72 25 139 48 150 51 20 5 31 9
90 33 17 6 50 19 75 27 25 8 59 20 75 27 17 7 46 19 65 26 19 7 54 21 77 31
24 11 46 19 49 19 6 0 25 8 118 49 27 12 72 31 100 42 88 35 492 231 596 290
30 17 87 49 126 70 39 20 96 54 127 73 31 20 58 36 61 36 15 0 410 261 481
318 6 4 37 28 70 52 33 24 62 46 65 49 3 4 23 19 45 36 22 16 42 31 45 34 3 4
41 35 85 71 281 227 644 602 830 855 16 22 32 42 35 45 4 3 41 55 83 115 42
61 81 115 87 122 5 7 10 15 10 19 0 3 16 28 35 54 19 26 35 51 35 54 0 4 15
31 34 59 34 54 61 103 136 242 23 44 49 91 56 105 33 61 114 242 114 253 0 7
4 17 8 23 7 7 30 62 72 169 4 11 13 33 20 50 24 60 130 392 130 408 0 4 -56 7
-125 7 -104 0 -125 -2 -125 -15z m-4438 -4090 c-4 -27 -28 -44 -71 -51 -20 -3
-45 -9 -56 -13 -47 -19 -151 -39 -158 -32 -21 21 25 60 93 80 37 12 77 21 88
21 12 0 24 5 27 11 4 5 23 9 43 7 31 -2 36 -6 34 -23z m12 -1901 c9 -23 7
-517 -2 -532 -7 -10 -190 -12 -883 -10 l-874 3 -3 51 c-4 65 11 78 108 94 183
29 274 46 355 65 39 9 90 20 115 25 25 5 77 16 115 24 186 44 214 46 528 46
l307 0 0 83 c0 45 4 87 8 93 4 6 32 19 62 29 30 10 64 21 75 26 59 23 81 24
89 3z m-1539 -1025 c67 -25 142 -91 177 -156 34 -63 48 -165 48 -356 0 -221
-14 -367 -40 -417 -41 -80 -118 -148 -200 -177 -62 -22 -182 -16 -245 12 -77
34 -156 115 -183 188 -21 54 -22 75 -22 357 0 341 5 367 81 454 100 114 241
149 384 95z"/>
<path d="M9225 9698 c-2 -13 -7 -156 -10 -318 -7 -403 -33 -942 -51 -1050 -3
-19 -9 -89 -14 -155 -17 -250 -30 -396 -36 -406 -3 -5 -10 -58 -15 -117 -23
-247 -29 -302 -44 -407 -9 -60 -20 -144 -25 -185 -21 -189 -30 -253 -37 -263
-4 -6 -10 -43 -14 -81 -16 -139 -27 -221 -33 -236 -4 -8 -11 -46 -17 -85 -5
-38 -14 -95 -19 -125 -4 -30 -13 -87 -19 -125 -5 -39 -15 -83 -20 -99 -6 -15
-11 -45 -11 -66 0 -21 -4 -42 -10 -45 -5 -3 -10 -23 -10 -43 0 -35 -20 -137
-41 -208 -5 -17 -9 -43 -9 -59 0 -16 -4 -42 -9 -59 -11 -36 -29 -115 -61 -276
-5 -25 -16 -74 -25 -110 -20 -79 -31 -129 -44 -197 -5 -28 -14 -61 -20 -72 -6
-11 -11 -33 -11 -50 0 -16 -4 -32 -9 -35 -5 -3 -11 -23 -13 -43 -6 -46 -27
-132 -39 -155 -5 -10 -9 -29 -9 -43 0 -14 -4 -33 -9 -43 -10 -20 -30 -93 -37
-137 -3 -16 -9 -39 -14 -50 -5 -11 -11 -31 -13 -45 -3 -14 -13 -50 -22 -80
-10 -30 -19 -70 -22 -88 -3 -18 -9 -35 -14 -38 -5 -3 -9 -17 -9 -32 -1 -15 -7
-38 -15 -52 -8 -14 -14 -37 -15 -52 0 -15 -4 -30 -10 -33 -5 -3 -10 -16 -10
-28 -1 -24 -33 -123 -44 -134 -3 -3 -6 -17 -6 -30 0 -13 -4 -31 -9 -41 -5 -9
-21 -57 -36 -107 -39 -127 -57 -179 -67 -190 -4 -5 -8 -21 -8 -36 0 -15 -4
-30 -9 -33 -5 -3 -11 -18 -14 -33 -2 -16 -10 -44 -17 -63 -24 -65 -27 -75 -45
-130 -10 -30 -22 -59 -26 -64 -5 -6 -9 -20 -9 -32 0 -13 -4 -26 -10 -29 -5 -3
-10 -14 -10 -23 0 -9 -7 -30 -15 -46 -12 -23 -15 -73 -15 -250 0 -204 2 -224
20 -254 29 -47 73 -62 183 -62 59 0 97 -4 105 -12 13 -13 17 -155 4 -175 -6
-9 -55 -13 -167 -15 l-160 -3 -3 -64 c-2 -45 1 -67 10 -72 7 -5 198 -9 424 -9
l412 0 6 23 c3 12 6 39 6 59 0 70 5 68 -175 68 -139 0 -164 2 -169 16 -12 31
-6 161 7 172 8 7 73 13 163 14 l149 3 3 268 c2 267 2 267 -19 267 -17 0 -20 4
-15 22 23 76 38 138 43 173 3 22 9 44 14 49 5 6 9 22 9 37 0 14 7 46 15 69 8
23 15 55 15 71 0 15 5 31 10 34 5 3 10 26 10 50 0 24 4 46 9 49 5 3 12 30 16
61 3 30 11 57 16 60 5 4 9 22 9 42 0 20 4 50 9 67 15 50 33 127 43 181 5 28
13 73 18 100 5 28 14 79 20 115 7 36 16 69 21 75 5 5 9 27 9 49 0 22 4 53 9
70 15 50 34 150 61 321 5 33 17 96 25 140 9 44 20 109 25 145 18 133 30 205
36 220 6 14 14 70 33 225 5 39 17 113 26 165 9 52 20 129 25 170 18 167 30
256 36 270 3 8 10 56 15 105 17 166 28 259 44 385 9 69 20 170 25 225 5 55 13
156 19 225 6 69 14 132 17 140 6 14 12 85 34 405 5 72 16 220 25 330 17 204
25 342 44 795 5 140 15 306 20 369 6 63 11 272 11 465 l1 351 -195 3 -196 2
-5 -22z m-560 -7063 l0 -130 -221 -3 c-271 -3 -257 -10 -262 139 -2 55 -1 106
2 115 5 12 40 14 243 12 l238 -3 0 -130z"/>
<path d="M10164 9528 c18 -478 40 -887 52 -941 3 -15 10 -87 15 -160 11 -166
24 -296 44 -462 9 -71 20 -166 25 -210 12 -115 30 -247 36 -268 3 -9 10 -52
15 -95 19 -160 26 -208 33 -228 3 -12 11 -52 17 -90 17 -117 27 -176 44 -264
9 -47 21 -107 25 -135 9 -50 14 -73 45 -220 10 -44 21 -100 25 -125 4 -25 18
-85 30 -135 12 -49 25 -106 30 -125 5 -19 16 -64 25 -100 9 -36 21 -82 26
-102 15 -63 27 -110 44 -173 9 -33 21 -78 27 -100 6 -22 14 -51 18 -65 5 -14
16 -52 25 -85 9 -33 27 -96 41 -140 13 -44 36 -118 50 -165 14 -47 29 -94 33
-105 16 -39 53 -150 61 -180 10 -39 48 -145 61 -167 5 -10 9 -26 9 -36 0 -10
4 -22 9 -27 5 -6 18 -39 31 -75 12 -36 31 -87 42 -115 11 -27 24 -59 28 -70 4
-11 20 -51 35 -90 15 -38 36 -89 46 -113 11 -24 27 -62 35 -85 9 -23 27 -64
39 -92 13 -27 33 -72 45 -100 42 -95 53 -121 112 -245 33 -69 77 -159 98 -200
21 -41 60 -118 87 -170 26 -52 50 -97 53 -100 3 -3 14 -23 25 -45 11 -22 22
-42 26 -45 3 -3 13 -21 22 -40 10 -19 23 -44 30 -55 6 -10 22 -36 35 -57 l22
-38 395 0 c217 0 395 -3 395 -7 0 -5 -15 -24 -33 -43 -17 -19 -57 -64 -87
-100 -30 -36 -57 -67 -60 -70 -3 -3 -30 -36 -60 -75 -65 -84 -64 -83 -93 -120
-50 -63 -127 -198 -127 -222 0 -7 -4 -21 -9 -31 -41 -75 -55 -333 -25 -446 32
-122 58 -170 139 -251 110 -111 123 -115 380 -115 234 0 234 0 325 68 69 53
170 178 170 212 0 5 4 18 9 28 17 32 32 118 32 184 1 68 -18 176 -33 192 -4 6
-8 16 -8 24 0 25 -88 148 -135 188 -41 36 -71 54 -135 82 -14 6 -58 16 -98 23
-86 15 -225 -2 -280 -33 -47 -26 -57 -11 -25 37 36 53 161 209 213 265 23 25
76 82 117 127 l76 83 201 0 201 0 -156 153 c-147 143 -299 305 -351 372 -12
17 -27 35 -33 41 -33 34 -143 170 -282 349 -5 6 -26 35 -48 65 -22 30 -45 61
-52 68 -7 7 -13 16 -13 20 0 4 -14 23 -30 42 -17 19 -33 43 -36 53 -3 9 -10
17 -15 17 -5 0 -9 6 -9 14 0 8 -3 16 -7 18 -12 5 -163 234 -163 246 0 6 -4 12
-9 14 -11 4 -111 165 -111 178 0 5 -3 10 -8 10 -7 0 -25 30 -38 63 -3 9 -10
17 -15 17 -5 0 -9 9 -9 20 0 11 -4 20 -9 20 -5 0 -13 10 -17 23 -4 12 -10 24
-13 27 -4 3 -15 21 -25 40 -17 34 -39 74 -103 190 -75 135 -218 429 -300 620
-8 19 -26 57 -39 83 -13 27 -24 54 -24 61 0 7 -11 36 -25 64 -14 29 -25 56
-25 62 0 6 -4 18 -9 28 -12 21 -34 76 -51 122 -6 19 -16 44 -20 55 -32 83 -41
107 -60 160 -12 33 -28 83 -37 110 -8 28 -19 59 -23 70 -5 11 -16 45 -26 75
-9 30 -20 64 -24 75 -4 11 -16 47 -25 80 -10 33 -21 68 -26 77 -5 10 -9 25 -9
33 0 9 -11 53 -25 98 -14 45 -30 100 -36 122 -14 54 -39 143 -50 181 -5 17 -9
40 -9 52 0 12 -4 30 -9 40 -12 24 -33 110 -39 157 -2 22 -8 44 -13 49 -5 6 -9
24 -9 40 0 17 -7 50 -15 74 -8 23 -13 53 -9 66 3 13 1 27 -5 30 -6 4 -11 21
-11 37 0 38 24 34 28 -4 2 -15 8 -27 13 -27 5 0 9 -8 9 -19 0 -10 7 -24 15
-31 8 -7 15 -21 15 -31 0 -11 5 -19 10 -19 6 0 10 -11 10 -24 0 -13 7 -26 15
-30 8 -3 15 -15 15 -26 0 -11 5 -20 10 -20 6 0 10 -9 10 -19 0 -11 5 -23 10
-26 6 -3 10 -14 10 -25 0 -10 7 -20 15 -24 8 -3 15 -15 15 -26 0 -11 5 -20 10
-20 6 0 10 -11 10 -24 0 -13 7 -26 15 -30 8 -3 15 -12 15 -21 0 -8 5 -15 10
-15 6 0 10 -7 10 -15 0 -14 18 -54 30 -65 15 -14 40 -61 40 -75 0 -8 5 -15 10
-15 6 0 18 -18 27 -40 10 -22 21 -40 25 -40 5 0 8 -9 8 -20 0 -11 6 -20 14
-20 8 0 20 -16 26 -36 7 -19 18 -38 26 -41 8 -3 14 -14 14 -24 0 -10 5 -19 10
-19 6 0 10 -7 10 -15 0 -8 5 -15 10 -15 6 0 10 -7 10 -15 0 -9 11 -26 25 -39
14 -13 25 -32 25 -43 0 -12 8 -23 19 -26 10 -2 21 -17 25 -33 4 -15 16 -34 27
-42 10 -7 27 -28 36 -45 9 -18 24 -38 33 -44 10 -7 21 -24 24 -38 4 -14 11
-25 16 -25 6 0 10 -4 10 -10 0 -5 14 -23 30 -40 17 -17 30 -34 30 -39 0 -4 12
-21 28 -37 15 -16 46 -54 69 -84 23 -30 53 -68 68 -85 51 -58 65 -75 65 -79 0
-2 27 -32 60 -66 33 -34 60 -65 60 -69 0 -3 34 -42 77 -86 55 -58 82 -79 97
-77 16 2 17 0 7 -6 -10 -7 5 -27 62 -86 42 -42 81 -76 86 -76 6 0 11 -5 11
-10 0 -16 55 -67 68 -62 7 2 10 -3 6 -12 -4 -10 -1 -16 9 -16 8 0 43 -27 77
-60 34 -33 67 -60 71 -60 5 0 9 -5 9 -11 0 -14 25 -39 39 -39 6 0 11 -4 11
-10 0 -5 7 -10 16 -10 8 0 13 -4 10 -8 -3 -5 9 -17 27 -27 39 -23 57 -40 57
-54 0 -6 7 -11 15 -11 8 0 15 -3 15 -7 0 -5 27 -26 60 -48 33 -22 60 -45 60
-50 0 -6 12 -16 28 -22 15 -7 44 -29 65 -48 20 -19 44 -35 52 -35 8 0 15 -7
15 -15 0 -8 7 -15 15 -15 8 0 15 -4 15 -10 0 -5 5 -10 10 -10 11 0 24 -9 69
-51 15 -14 33 -23 39 -21 7 2 12 -2 12 -10 0 -13 71 -68 88 -68 5 0 20 -11 33
-25 13 -13 32 -25 42 -25 9 0 17 -4 17 -10 0 -5 5 -10 11 -10 6 0 17 -6 24
-12 30 -27 44 -38 50 -38 3 0 28 -16 56 -35 28 -19 57 -35 65 -35 8 0 14 -4
14 -9 0 -5 8 -12 18 -15 9 -3 26 -12 37 -19 11 -7 54 -32 95 -56 41 -23 82
-47 90 -52 8 -5 23 -12 33 -15 9 -4 17 -10 17 -15 0 -5 9 -9 19 -9 11 0 21 -3
23 -7 4 -11 103 -63 118 -63 6 0 26 -10 43 -23 18 -13 51 -32 75 -42 23 -10
42 -22 42 -27 0 -4 6 -8 13 -8 8 0 45 -15 83 -34 38 -19 105 -51 149 -71 137
-63 150 -70 153 -77 2 -5 12 -8 22 -8 15 0 68 -23 142 -61 10 -5 26 -9 37 -9
10 0 24 -7 31 -15 7 -8 21 -15 31 -15 11 0 19 -4 19 -10 0 -5 16 -10 35 -10
19 0 35 -4 35 -10 0 -5 11 -10 24 -10 13 0 26 -7 30 -15 3 -9 18 -15 35 -15
16 0 33 -4 36 -10 3 -5 16 -10 27 -10 12 0 29 -6 37 -13 9 -7 36 -19 61 -26
25 -7 52 -16 60 -21 9 -4 30 -11 48 -15 18 -3 32 -11 32 -16 0 -5 16 -9 35 -9
19 0 35 -4 35 -10 0 -5 13 -10 29 -10 16 0 34 -7 41 -15 7 -8 28 -15 46 -15
19 0 34 -4 34 -10 0 -5 16 -10 35 -10 19 0 35 -4 35 -10 0 -5 10 -10 23 -10
12 0 35 -7 51 -15 15 -8 39 -15 52 -15 12 0 26 -5 29 -10 3 -6 21 -10 38 -10
18 0 40 -7 50 -15 11 -7 25 -11 33 -8 8 3 25 -2 39 -11 13 -9 40 -16 59 -16
19 0 38 -4 41 -10 3 -5 23 -10 45 -10 24 0 40 -5 44 -15 4 -10 20 -15 51 -15
25 0 45 -4 45 -10 0 -5 19 -10 43 -10 24 0 52 -7 63 -15 10 -8 36 -15 56 -15
20 0 40 -4 43 -10 3 -5 28 -10 55 -10 27 0 51 -4 54 -9 3 -4 29 -11 58 -13 29
-3 54 -11 56 -17 2 -6 26 -11 57 -11 30 0 57 -5 60 -10 3 -5 30 -10 60 -10 30
0 56 -4 60 -9 3 -6 37 -13 75 -17 39 -3 70 -11 70 -15 0 -5 31 -9 69 -9 39 0
72 -4 75 -9 3 -4 37 -11 77 -14 39 -3 76 -10 82 -16 12 -9 71 -15 262 -27 49
-3 95 -10 101 -15 7 -5 58 -12 113 -16 56 -3 104 -10 107 -15 3 -4 56 -8 119
-8 63 0 125 -4 139 -10 14 -5 109 -11 211 -13 124 -2 189 -7 197 -15 9 -9 97
-12 320 -12 l308 0 0 965 0 965 -174 0 c-106 0 -177 4 -181 10 -4 6 -101 10
-259 10 -140 0 -256 4 -262 9 -5 5 -81 11 -170 13 -103 2 -166 7 -175 15 -8 6
-67 14 -139 17 -217 10 -531 44 -546 59 -4 4 -44 7 -89 7 -44 0 -85 4 -91 9
-5 6 -44 11 -88 13 -51 2 -80 7 -83 16 -3 7 -22 12 -44 12 -52 0 -49 14 9 41
53 24 183 31 190 10 2 -7 33 -11 87 -11 46 0 87 -4 90 -10 3 -5 42 -10 85 -10
43 0 91 -5 107 -12 33 -14 253 -33 647 -57 92 -6 174 -15 180 -20 7 -6 116
-13 257 -16 134 -2 335 -7 447 -10 l202 -6 0 746 0 745 -77 0 c-43 1 -123 5
-178 10 -55 5 -264 10 -465 11 -211 1 -380 7 -400 13 -19 5 -152 13 -295 18
-404 12 -635 24 -693 37 -29 7 -91 30 -138 52 -47 21 -91 39 -99 39 -8 0 -16
4 -19 9 -3 5 -18 11 -33 14 -16 3 -53 12 -83 21 -223 65 -643 96 -890 65 -166
-20 -302 -25 -328 -12 -13 7 -51 13 -83 13 -32 0 -61 5 -64 10 -3 6 -30 10
-60 10 -30 0 -56 4 -59 9 -3 4 -33 11 -67 14 -34 3 -65 10 -68 15 -3 6 -31 12
-61 15 -97 10 -164 24 -168 35 -2 7 -25 12 -53 12 -27 0 -49 5 -49 10 0 6 -25
10 -55 10 -30 0 -55 5 -55 10 0 6 -15 10 -33 10 -18 0 -42 7 -53 15 -10 8 -36
15 -56 15 -20 0 -40 5 -43 10 -3 6 -21 10 -39 10 -19 0 -39 7 -46 15 -7 9 -29
15 -51 15 -22 0 -39 5 -39 10 0 6 -15 10 -34 10 -18 0 -47 7 -62 15 -16 8 -39
15 -51 15 -13 0 -23 5 -23 10 0 6 -15 10 -34 10 -19 0 -38 5 -41 10 -3 6 -14
10 -23 10 -9 0 -30 7 -46 15 -15 8 -39 15 -52 15 -13 0 -24 5 -24 10 0 6 -13
10 -29 10 -17 0 -33 5 -36 10 -3 6 -14 10 -23 10 -9 0 -30 7 -46 15 -15 8 -39
15 -52 15 -13 0 -24 4 -24 9 0 5 -16 12 -35 15 -19 4 -35 11 -35 16 0 6 -11
10 -24 10 -14 0 -28 5 -31 10 -3 6 -14 10 -23 10 -9 0 -39 12 -67 25 -27 14
-63 25 -78 25 -16 0 -26 4 -22 10 3 6 -3 10 -15 10 -11 0 -23 7 -26 15 -4 8
-15 15 -25 15 -19 0 -27 3 -86 34 -17 9 -38 16 -47 16 -9 0 -16 4 -16 8 0 5
-19 15 -42 22 -24 7 -48 20 -55 28 -6 8 -17 11 -22 7 -6 -3 -14 1 -17 9 -3 9
-16 16 -29 16 -13 0 -25 7 -29 15 -3 8 -12 12 -21 9 -8 -4 -17 1 -21 10 -3 9
-14 16 -24 16 -11 0 -22 5 -25 10 -3 6 -15 10 -26 10 -10 0 -19 7 -19 15 0 8
-7 15 -16 15 -8 0 -32 11 -52 25 -20 14 -42 25 -49 25 -7 0 -13 5 -13 10 0 6
-7 10 -16 10 -9 0 -27 11 -40 25 -13 14 -32 25 -44 25 -11 0 -20 5 -20 10 0 6
-6 10 -13 10 -7 0 -24 11 -39 25 -15 14 -34 25 -42 25 -8 0 -23 11 -34 25 -11
14 -26 25 -34 25 -8 0 -23 8 -34 18 -10 10 -35 27 -54 38 -42 23 -60 39 -60
53 0 6 -8 11 -18 11 -11 0 -35 16 -56 36 -20 19 -50 40 -66 46 -17 5 -30 14
-30 20 0 14 -69 76 -93 84 -24 8 -47 28 -47 42 0 5 -11 15 -25 22 -14 7 -25
19 -25 25 0 6 -11 17 -24 24 -13 7 -30 24 -37 37 -7 13 -16 24 -21 24 -13 0
-108 97 -108 110 0 5 -7 10 -15 10 -8 0 -15 4 -15 8 0 4 -21 30 -47 58 -52 54
-93 102 -93 108 0 3 -12 17 -27 33 -27 27 -42 47 -88 109 -11 15 -39 52 -62
82 -24 31 -43 59 -43 64 0 5 -11 21 -25 36 -14 15 -25 32 -25 39 0 7 -4 13 -8
13 -5 0 -17 17 -26 38 -27 60 -40 82 -48 82 -5 0 -8 5 -8 12 0 6 -11 26 -25
44 -14 18 -25 37 -25 42 0 16 -31 72 -41 72 -5 0 -9 7 -9 15 0 8 -4 23 -9 33
-5 9 -12 24 -15 32 -4 8 -15 29 -25 45 -11 17 -20 38 -20 48 -1 9 -5 17 -11
17 -5 0 -10 11 -10 24 0 32 -15 36 -130 36 l-98 0 5 -42 c3 -24 9 -47 14 -52
5 -6 9 -22 9 -37 0 -15 6 -32 13 -38 8 -6 12 -23 9 -39 -3 -23 1 -30 16 -34
15 -4 18 -12 14 -37 -2 -19 0 -31 7 -31 6 0 11 -16 11 -35 0 -19 4 -35 9 -35
5 0 12 -13 16 -30 4 -16 11 -32 16 -35 5 -4 9 -17 9 -29 0 -13 7 -29 15 -36 8
-7 15 -18 14 -24 -3 -26 2 -35 16 -30 12 5 14 0 9 -25 -4 -20 -3 -31 5 -31 6
0 11 -13 11 -29 0 -16 6 -31 15 -35 8 -3 15 -17 15 -31 0 -14 5 -25 10 -25 6
0 10 -7 10 -15 0 -8 4 -23 9 -33 5 -9 12 -24 15 -32 4 -8 15 -28 25 -45 11
-16 20 -37 20 -46 1 -9 8 -19 16 -23 8 -3 15 -15 15 -26 0 -11 5 -20 10 -20 6
0 10 -11 10 -25 0 -14 5 -25 10 -25 6 0 10 -6 10 -13 0 -8 9 -22 19 -31 11
-10 22 -29 26 -43 3 -14 17 -40 31 -58 13 -17 24 -37 24 -43 0 -6 11 -22 25
-36 14 -14 25 -34 25 -44 0 -11 7 -23 16 -26 9 -4 14 -13 10 -21 -3 -8 0 -15
7 -15 7 0 19 -15 26 -32 8 -18 25 -43 38 -56 13 -12 23 -28 23 -35 0 -7 11
-25 25 -41 14 -16 25 -32 25 -35 0 -3 14 -22 30 -41 16 -19 30 -38 30 -41 0
-3 12 -19 26 -35 14 -16 36 -46 50 -66 13 -20 36 -50 51 -67 65 -69 78 -85 75
-93 -1 -4 2 -8 8 -8 5 0 10 -7 10 -15 0 -8 7 -15 15 -15 8 0 15 -4 15 -8 0
-12 97 -112 108 -112 5 0 15 -13 22 -30 7 -16 19 -30 26 -30 8 0 14 -4 14 -10
0 -5 7 -10 15 -10 8 0 15 -7 15 -15 0 -8 5 -15 10 -15 6 0 10 -7 10 -15 0 -8
4 -15 8 -15 5 0 15 -11 22 -25 7 -14 19 -25 27 -25 7 0 13 -4 13 -10 0 -5 7
-10 15 -10 8 0 12 -6 9 -13 -2 -7 10 -21 28 -32 18 -10 54 -39 79 -64 84 -82
139 -131 149 -131 6 0 10 -7 10 -15 0 -8 6 -15 13 -15 6 0 28 -15 47 -33 19
-18 59 -50 87 -70 29 -21 61 -49 72 -63 10 -13 26 -24 34 -24 9 0 24 -11 35
-25 11 -14 25 -25 31 -25 6 0 11 -4 11 -9 0 -5 8 -12 18 -15 10 -4 27 -14 38
-24 10 -10 34 -24 52 -31 17 -7 32 -20 32 -28 0 -10 8 -13 28 -10 15 2 21 2
15 0 -17 -6 -16 -23 1 -23 7 0 25 -11 40 -25 15 -14 32 -25 39 -25 17 -1 47
-25 47 -39 0 -6 9 -11 20 -11 11 0 20 -4 20 -10 0 -5 7 -10 15 -10 8 0 15 -4
15 -9 0 -5 11 -12 25 -15 14 -4 25 -11 25 -16 0 -6 9 -10 20 -10 11 0 20 -4
20 -10 0 -5 6 -10 14 -10 8 0 16 -7 20 -15 3 -8 15 -15 26 -15 11 0 20 -4 20
-10 0 -5 5 -10 12 -10 6 0 26 -11 44 -25 18 -14 40 -25 48 -25 9 0 16 -4 16
-9 0 -5 11 -12 25 -15 14 -4 25 -11 25 -16 0 -6 6 -10 14 -10 16 0 103 -48
111 -61 4 -5 15 -9 26 -9 10 0 19 -4 19 -10 0 -5 9 -10 19 -10 10 0 21 -7 25
-15 3 -8 15 -15 26 -15 11 0 20 -4 20 -10 0 -5 6 -10 14 -10 8 0 45 -16 82
-35 37 -19 75 -35 85 -35 11 0 19 -7 19 -15 0 -8 8 -15 18 -15 10 0 42 -11 70
-25 29 -14 56 -25 62 -25 5 0 10 -4 10 -10 0 -5 11 -10 25 -10 14 0 25 -4 25
-10 0 -5 9 -10 21 -10 11 0 27 -7 35 -15 9 -8 24 -15 35 -15 10 0 19 -4 19
-10 0 -5 13 -10 29 -10 16 0 31 -3 33 -7 5 -13 68 -43 89 -43 10 0 19 -4 19
-10 0 -5 10 -10 23 -10 13 0 32 -7 43 -15 10 -8 29 -15 42 -15 12 0 22 -4 22
-10 0 -5 11 -10 24 -10 14 0 28 -4 31 -10 3 -5 15 -10 25 -10 10 0 31 -6 47
-14 31 -16 68 -31 96 -40 19 -6 47 -63 47 -96 0 -23 -17 -25 -44 -5 -11 8 -28
15 -38 15 -10 0 -18 5 -18 10 0 6 -13 10 -29 10 -17 0 -33 5 -36 10 -3 6 -17
10 -29 10 -13 0 -29 7 -36 15 -7 8 -23 15 -36 15 -13 0 -24 5 -24 10 0 6 -12
10 -27 10 -16 0 -37 7 -47 15 -11 8 -28 15 -38 15 -10 0 -18 5 -18 10 0 6 -13
10 -30 10 -16 0 -30 5 -30 10 0 6 -9 10 -19 10 -11 0 -26 7 -35 15 -8 8 -22
15 -30 15 -9 0 -24 4 -34 9 -75 39 -127 61 -143 61 -10 0 -19 5 -19 10 0 6
-11 10 -25 10 -16 0 -25 6 -25 16 0 11 -6 15 -20 11 -10 -3 -24 1 -31 9 -6 8
-20 14 -30 14 -11 0 -19 5 -19 10 0 6 -6 10 -14 10 -17 0 -80 32 -84 43 -2 4
-12 7 -23 7 -11 0 -22 7 -25 15 -4 8 -14 15 -24 15 -11 0 -22 5 -25 10 -3 6
-15 10 -26 10 -10 0 -19 5 -19 10 0 6 -9 10 -20 10 -11 0 -23 7 -26 15 -4 8
-17 15 -30 15 -13 0 -24 4 -24 9 0 5 -11 12 -25 15 -14 4 -25 11 -25 16 0 6
-9 10 -20 10 -11 0 -20 3 -20 8 0 4 -9 12 -20 17 -98 50 -150 80 -150 87 0 4
-8 8 -17 8 -10 0 -29 9 -43 20 -14 11 -30 20 -37 20 -7 0 -16 6 -20 13 -4 6
-21 19 -38 27 -16 8 -34 21 -38 27 -4 7 -17 13 -27 13 -11 0 -20 5 -20 10 0 6
-7 10 -15 10 -8 0 -15 5 -15 10 0 6 -5 10 -10 10 -12 0 -123 80 -128 92 -2 4
-10 8 -17 8 -8 0 -25 11 -39 25 -14 14 -31 25 -39 25 -8 0 -25 11 -38 24 -13
12 -43 35 -66 50 -24 14 -43 31 -43 37 0 6 -9 8 -20 4 -14 -4 -20 -2 -20 8 0
8 -14 25 -32 38 -17 13 -37 30 -44 37 -7 6 -17 12 -22 12 -6 0 -12 7 -16 15
-3 8 -12 15 -21 15 -8 0 -15 7 -15 15 0 8 -6 15 -13 15 -7 0 -19 9 -27 20 -8
11 -18 20 -22 20 -9 0 -46 30 -98 78 -19 19 -73 68 -120 110 -111 101 -370
363 -370 375 0 2 -22 27 -50 55 -27 28 -50 56 -50 62 0 6 -20 30 -45 53 -25
24 -45 47 -45 54 0 6 -7 13 -15 17 -8 3 -15 11 -15 17 0 7 -16 27 -35 46 -19
19 -35 43 -35 53 0 11 -4 20 -10 20 -5 0 -28 26 -52 58 -23 31 -45 59 -50 60
-4 2 -8 12 -8 21 0 10 -8 25 -18 35 -11 9 -28 34 -38 56 -10 22 -25 40 -31 40
-7 0 -13 9 -13 20 0 11 -3 20 -8 20 -4 0 -15 18 -25 40 -9 22 -21 40 -27 40
-5 0 -10 9 -10 20 0 11 -4 20 -10 20 -5 0 -10 7 -10 15 0 9 -7 18 -15 21 -8 4
-15 12 -15 20 0 13 -19 53 -30 64 -3 3 -14 24 -25 47 -11 24 -23 43 -27 43 -5
0 -8 11 -8 24 0 13 -7 26 -15 30 -8 3 -15 12 -15 21 0 8 -4 15 -10 15 -5 0
-10 13 -10 29 0 16 -6 31 -15 35 -8 3 -15 15 -15 26 0 11 -4 20 -10 20 -5 0
-10 9 -10 20 0 11 -4 20 -10 20 -5 0 -10 11 -10 24 0 13 -7 29 -15 36 -8 7
-15 19 -15 27 0 8 -16 47 -35 86 -19 39 -35 79 -35 88 0 10 -4 21 -10 24 -5 3
-10 15 -10 25 0 10 -8 33 -17 52 -31 61 -33 68 -33 87 0 10 -7 32 -15 47 -8
16 -15 37 -15 46 0 9 -4 20 -10 23 -5 3 -10 19 -10 35 0 23 -4 28 -16 23 -14
-5 -15 -1 -9 27 4 19 3 41 -4 54 -6 11 -16 39 -23 61 l-13 40 -259 3 -259 2 7
-192z m413 -245 c-2 -16 -4 -5 -4 22 0 28 2 40 4 28 2 -13 2 -35 0 -50z m33
-309 c0 -8 -4 -14 -10 -14 -5 0 -10 9 -10 21 0 11 5 17 10 14 6 -3 10 -13 10
-21z m805 -34 c3 -5 1 -10 -4 -10 -6 0 -11 5 -11 10 0 6 2 10 4 10 3 0 8 -4
11 -10z m-788 -202 c-3 -7 -5 -2 -5 12 0 14 2 19 5 13 2 -7 2 -19 0 -25z m20
-210 c-3 -7 -5 -2 -5 12 0 14 2 19 5 13 2 -7 2 -19 0 -25z m1513 -338 c0 -5
-2 -10 -4 -10 -3 0 -8 5 -11 10 -3 6 -1 10 4 10 6 0 11 -4 11 -10z m30 -770
c0 -5 -4 -10 -10 -10 -5 0 -10 5 -10 10 0 6 5 10 10 10 6 0 10 -4 10 -10z
m1250 -20 c0 -5 -4 -10 -10 -10 -5 0 -10 5 -10 10 0 6 5 10 10 10 6 0 10 -4
10 -10z m-803 -306 c2 -13 1 -15 -4 -4 -3 8 -11 19 -17 23 -7 6 -6 7 4 4 8 -2
16 -12 17 -23z m1260 -750 c-3 -3 -12 -4 -19 -1 -8 3 -5 6 6 6 11 1 17 -2 13
-5z m-390 -120 c-3 -3 -12 -4 -19 -1 -8 3 -5 6 6 6 11 1 17 -2 13 -5z m1973
-2374 c0 -5 -4 -10 -10 -10 -5 0 -10 5 -10 10 0 6 5 10 10 10 6 0 10 -4 10
-10z m-2672 -1636 c64 -33 121 -90 158 -158 25 -45 28 -61 28 -146 1 -86 -2
-101 -29 -154 -57 -113 -168 -187 -292 -194 -149 -9 -277 69 -339 206 -20 43
-24 69 -24 142 0 50 4 98 9 108 5 9 14 29 21 43 23 50 97 124 151 151 68 34
85 37 184 33 64 -2 91 -8 133 -31z"/>
<path d="M3125 9620 l-140 -59 -3 -63 c-3 -94 -7 -103 -62 -138 -53 -34 -180
-87 -240 -101 -212 -48 -291 -59 -540 -73 l-205 -11 3 -75 c3 -98 21 -327 28
-362 5 -26 9 -28 60 -28 85 0 285 33 384 62 242 73 517 226 685 380 38 35 52
35 95 -3 47 -41 174 -137 229 -172 114 -73 319 -168 426 -197 167 -46 353 -75
430 -69 l40 4 6 75 c21 242 29 372 25 379 -3 5 -83 11 -178 15 -329 13 -570
59 -743 142 -125 60 -119 51 -123 213 -3 124 -6 141 -20 141 -9 -1 -80 -27
-157 -60z"/>
<path d="M16946 9633 c-8 -8 -8 -1597 0 -1618 8 -21 306 -22 323 -2 7 10 12
172 13 543 l3 529 165 5 165 5 0 240 0 240 -167 3 -168 2 0 30 0 30 -163 0
c-90 0 -167 -3 -171 -7z"/>
<path d="M14740 8955 l0 -645 1028 2 1027 3 0 230 0 230 -865 5 -865 5 -3 205
c-2 113 0 220 3 237 l6 33 827 2 827 3 0 165 0 165 -992 3 -993 2 0 -645z"/>
<path d="M2993 8942 c-9 -6 -13 -59 -15 -187 l-3 -180 -540 -5 -540 -5 -3
-145 c-1 -80 0 -155 3 -167 l5 -23 1228 0 c942 0 1231 3 1240 12 8 8 12 59 12
164 0 129 -2 153 -16 158 -9 3 -254 6 -545 6 l-529 0 -2 188 -3 187 -140 2
c-77 2 -146 -1 -152 -5z"/>
<path d="M14797 8173 c-4 -3 -7 -196 -7 -428 0 -314 3 -424 12 -433 9 -9 305
-12 1270 -12 l1258 0 -2 263 -3 262 -1100 5 -1100 5 -3 173 -2 172 -159 0
c-87 0 -161 -3 -164 -7z"/>
<path d="M2998 8149 c-14 -8 -18 -24 -18 -72 0 -74 -11 -92 -83 -145 -114 -83
-271 -138 -492 -171 -113 -17 -294 -31 -401 -31 -54 0 -104 -4 -110 -8 -7 -5
-8 -76 -2 -242 5 -129 11 -241 13 -247 15 -43 488 27 650 96 11 5 45 19 75 31
145 58 286 142 432 257 37 29 71 53 77 53 5 0 38 -24 73 -53 35 -29 74 -60 88
-70 81 -56 103 -70 225 -137 62 -34 236 -102 315 -122 157 -40 366 -70 460
-66 l64 3 8 37 c4 20 9 132 10 250 l3 213 -75 2 c-127 3 -381 24 -465 38 -70
12 -121 24 -242 54 -65 17 -200 91 -255 141 l-57 51 -3 72 -3 72 -135 2 c-80
2 -142 -2 -152 -8z"/>
<path d="M9703 7990 c0 -47 2 -66 4 -42 2 23 2 61 0 85 -2 23 -4 4 -4 -43z"/>
<path d="M9728 7730 c-11 -36 -10 -239 2 -361 5 -57 15 -203 21 -324 22 -423
27 -511 38 -695 6 -102 14 -192 17 -200 3 -8 10 -82 15 -165 18 -303 27 -430
33 -445 3 -8 11 -80 17 -160 24 -301 27 -338 38 -460 6 -69 14 -132 17 -140 3
-8 10 -69 15 -135 20 -226 43 -432 59 -526 6 -30 10 -75 10 -99 0 -24 4 -69
10 -99 5 -31 15 -94 21 -141 10 -81 15 -121 38 -320 6 -47 18 -132 26 -190 19
-122 32 -218 43 -312 7 -67 7 -68 -20 -79 -41 -17 -105 -85 -129 -138 -32 -68
-32 -217 0 -284 30 -65 82 -120 139 -148 42 -21 61 -24 188 -24 137 0 142 1
198 30 63 32 105 78 136 146 26 57 28 207 4 265 -22 54 -59 100 -107 135 -38
28 -45 29 -143 29 -99 0 -104 1 -108 23 -3 12 -12 65 -21 117 -9 52 -21 111
-26 131 -5 20 -9 50 -9 66 0 17 -4 43 -10 59 -9 27 -22 98 -40 224 -4 30 -16
100 -25 155 -18 104 -27 160 -44 285 -5 41 -12 82 -15 90 -5 14 -18 103 -36
245 -26 206 -32 243 -40 275 -6 19 -10 52 -10 74 0 21 -4 66 -10 100 -5 33
-16 115 -25 181 -8 66 -20 150 -25 188 -6 37 -10 86 -10 109 0 23 -4 67 -10
97 -5 31 -15 101 -21 156 -11 95 -16 152 -38 390 -12 130 -29 299 -41 401 -6
44 -10 109 -10 144 0 35 -4 91 -10 124 -13 79 -30 300 -58 731 -6 83 -13 162
-17 176 -4 15 -10 94 -13 175 -4 90 -10 139 -14 124z m700 -4986 c66 -33 82
-63 82 -149 0 -79 -20 -114 -80 -145 -57 -29 -166 -28 -210 3 -59 39 -73 68
-73 145 0 57 4 76 23 102 50 71 165 90 258 44z"/>
<path d="M9582 7320 c0 -14 2 -19 5 -12 2 6 2 18 0 25 -3 6 -5 1 -5 -13z"/>
<path d="M9558 6985 c-4 -66 -15 -176 -23 -245 -9 -69 -20 -165 -25 -215 -4
-49 -13 -139 -19 -198 -6 -60 -13 -113 -17 -118 -3 -5 -10 -53 -15 -107 -19
-192 -46 -407 -55 -437 -3 -11 -10 -54 -15 -95 -18 -156 -28 -226 -38 -260 -6
-19 -11 -58 -11 -85 0 -28 -4 -55 -9 -61 -5 -5 -11 -36 -14 -69 -6 -80 -26
-205 -37 -230 -5 -11 -11 -45 -14 -75 -7 -78 -22 -176 -30 -189 -4 -5 -11 -41
-17 -78 -22 -154 -29 -191 -44 -258 -16 -71 -26 -120 -44 -231 -6 -33 -15 -73
-21 -88 -5 -15 -10 -42 -10 -60 0 -17 -4 -36 -9 -41 -5 -6 -11 -30 -14 -55 -7
-62 -26 -151 -37 -175 -5 -11 -11 -38 -14 -60 -8 -69 -24 -143 -35 -164 -6
-11 -11 -35 -11 -53 0 -19 -4 -38 -9 -43 -5 -6 -11 -28 -14 -50 -9 -69 -28
-150 -38 -160 -5 -5 -9 -25 -9 -45 0 -20 -4 -40 -9 -45 -4 -6 -11 -31 -15 -57
l-6 -48 139 0 138 0 7 43 c3 23 13 85 21 137 16 94 24 160 44 335 6 49 13 96
17 105 6 14 13 75 33 265 19 178 31 281 37 300 6 20 16 115 33 307 5 58 12
111 16 117 3 6 11 62 16 124 5 61 14 155 18 207 5 52 14 156 20 230 6 74 14
142 18 150 4 8 10 69 14 135 23 352 28 411 34 426 6 17 21 208 34 469 18 342
31 517 41 565 6 28 10 106 8 175 l-3 125 -7 -120z"/>
<path d="M10352 6900 c0 -19 2 -27 5 -17 2 9 2 25 0 35 -3 9 -5 1 -5 -18z"/>
<path d="M10370 6751 c0 -11 5 -23 10 -26 6 -3 10 3 10 14 0 11 -4 23 -10 26
-5 3 -10 -3 -10 -14z"/>
<path d="M10398 6648 c-2 -7 -1 -35 3 -63 l6 -50 1 63 c2 59 -1 76 -10 50z"/>
<path d="M10425 6470 c2 -41 11 -115 20 -165 8 -49 20 -117 26 -150 18 -112
27 -160 43 -240 9 -44 21 -102 26 -130 9 -52 12 -66 35 -175 7 -36 19 -92 25
-125 11 -57 31 -148 50 -225 4 -19 20 -89 35 -155 15 -66 31 -136 35 -155 27
-103 53 -210 61 -245 5 -22 16 -65 25 -95 15 -53 22 -81 43 -165 21 -88 33
-131 41 -150 5 -11 11 -31 13 -45 3 -14 13 -50 22 -80 10 -30 19 -70 22 -88 3
-18 9 -35 14 -38 5 -3 9 -13 9 -22 0 -10 11 -53 25 -97 14 -44 30 -98 36 -120
6 -22 17 -56 24 -75 7 -19 23 -69 35 -110 35 -117 149 -463 160 -482 6 -10 10
-27 10 -37 0 -11 5 -23 10 -26 6 -3 10 -14 10 -23 0 -9 7 -30 15 -46 8 -15 15
-37 15 -47 0 -10 5 -21 10 -24 6 -3 10 -15 10 -26 0 -18 9 -19 200 -19 157 0
200 3 200 13 0 7 -4 17 -9 22 -7 9 -36 60 -128 233 -18 34 -37 70 -41 80 -5 9
-15 28 -22 42 -53 100 -165 330 -220 455 -13 28 -36 77 -51 109 -16 33 -29 63
-29 67 0 5 -12 34 -26 66 -24 54 -43 98 -63 148 -5 11 -13 31 -19 45 -6 14
-34 86 -63 160 -28 74 -55 144 -59 155 -5 11 -20 53 -34 93 -14 39 -37 102
-51 140 -14 37 -25 73 -25 80 0 7 -4 20 -9 30 -10 18 -42 113 -85 257 -16 50
-32 98 -37 107 -5 10 -9 25 -9 34 0 15 -22 91 -41 139 -4 11 -10 31 -12 45 -3
14 -13 50 -22 80 -9 30 -20 71 -25 90 -5 19 -20 80 -35 135 -15 55 -31 116
-35 135 -5 19 -16 64 -25 100 -17 70 -30 125 -44 193 -5 23 -16 74 -25 112 -9
39 -21 90 -26 115 -5 25 -16 74 -24 110 l-15 65 4 -75z"/>
<path d="M1119 3123 c-9 -10 -6 -13 15 -13 15 0 26 6 26 13 0 8 -7 14 -15 14
-8 0 -20 -6 -26 -14z"/>
<path d="M754 3000 c0 -63 1 -89 3 -57 2 31 2 83 0 115 -2 31 -3 5 -3 -58z"/>
<path d="M4697 2955 c-27 -7 -64 -24 -82 -37 l-35 -23 105 -3 c57 -1 155 -1
217 0 l113 3 -40 25 c-77 48 -182 61 -278 35z"/>
<path d="M875 2864 c-98 -65 -161 -150 -200 -271 -14 -42 -25 -83 -25 -92 0
-12 27 -26 91 -50 88 -33 92 -34 105 -16 8 10 14 33 15 49 1 71 60 168 127
209 151 94 355 16 412 -156 17 -53 8 -152 -18 -207 -38 -80 -147 -181 -403
-373 -160 -120 -186 -146 -232 -232 -28 -53 -71 -184 -82 -248 -3 -21 -9 -45
-12 -53 -4 -12 63 -14 476 -14 l482 0 -3 88 -3 87 -357 3 c-197 1 -358 5 -358
8 0 4 9 21 20 39 21 34 105 103 300 247 145 107 315 273 348 338 43 87 52 129
52 235 0 106 -10 150 -52 234 -27 52 -108 138 -166 175 l-42 26 -217 0 -218 0
-40 -26z"/>
<path d="M4336 2857 c-10 -17 -30 -52 -44 -77 -14 -25 -40 -69 -59 -98 -18
-29 -33 -55 -33 -58 0 -3 -16 -30 -35 -60 -19 -30 -35 -57 -35 -60 0 -3 -16
-30 -35 -60 -19 -30 -35 -57 -35 -59 0 -3 -22 -41 -50 -85 -27 -44 -50 -82
-50 -85 0 -3 -16 -31 -35 -61 -19 -30 -35 -56 -35 -59 0 -2 -36 -65 -80 -140
-45 -74 -78 -140 -75 -145 4 -6 121 -10 305 -10 262 0 299 -2 304 -16 3 -9 6
-96 6 -195 l0 -179 100 0 100 0 2 193 3 192 60 5 60 5 0 95 0 95 -60 5 -60 5
-3 443 -2 442 -98 0 -97 0 -19 -33z m12 -649 l-3 -203 -132 -3 c-145 -3 -147
-2 -112 53 10 17 22 37 26 45 4 8 33 56 65 107 32 51 58 95 58 97 0 3 19 35
42 71 32 52 43 63 50 51 5 -8 7 -106 6 -218z"/>
<path d="M5615 2882 c-6 -4 -35 -36 -65 -72 -30 -36 -60 -71 -67 -78 -7 -7
-29 -34 -50 -60 -21 -26 -40 -49 -43 -52 -3 -3 -18 -23 -35 -45 -16 -22 -32
-42 -35 -45 -15 -13 -110 -151 -110 -160 0 -5 -4 -10 -10 -10 -5 0 -10 -4 -10
-10 0 -5 -11 -33 -23 -62 -36 -80 -46 -115 -62 -224 -34 -226 33 -442 176
-567 96 -84 107 -87 357 -87 l219 0 60 39 c96 62 165 139 214 241 4 8 13 35
21 60 17 60 18 294 1 312 -7 6 -13 19 -13 28 1 34 -59 127 -121 189 -84 84
-139 112 -257 132 -86 14 -217 -1 -283 -33 -23 -11 -43 -17 -46 -14 -5 5 32
72 52 92 5 6 24 28 40 49 67 86 198 236 299 343 l40 42 -119 0 c-66 0 -125 -4
-130 -8z m138 -651 c6 -6 19 -11 28 -11 32 0 146 -120 174 -183 39 -90 32
-211 -17 -300 -24 -42 -114 -123 -163 -147 -105 -50 -248 -36 -345 36 -75 55
-112 108 -135 198 -25 94 -14 170 36 256 44 75 145 151 215 163 48 9 195 0
207 -12z"/>
<path d="M7008 2881 c-1 -5 -21 -29 -43 -53 -22 -24 -69 -79 -105 -123 -35
-44 -67 -82 -70 -85 -3 -3 -21 -25 -40 -50 -19 -25 -37 -47 -40 -50 -4 -3 -27
-34 -52 -70 -74 -106 -98 -157 -139 -290 -19 -60 -20 -383 -1 -402 6 -6 12
-21 12 -31 0 -42 73 -158 137 -217 107 -97 116 -100 371 -100 l219 0 59 38
c123 80 224 225 246 355 13 79 4 216 -19 281 -28 82 -96 180 -159 229 -82 65
-121 82 -226 98 -88 13 -214 -1 -277 -31 -20 -10 -39 -16 -43 -14 -8 5 1 32
18 54 7 8 44 55 83 103 65 82 161 191 275 314 l49 53 -126 0 c-69 0 -127 -4
-129 -9z m180 -667 c68 -35 126 -95 159 -164 23 -47 27 -68 27 -145 0 -79 -4
-97 -29 -148 -57 -115 -167 -187 -296 -195 -149 -9 -264 63 -341 212 -16 31
-20 59 -20 130 -1 84 2 97 31 152 35 69 86 121 152 157 59 32 84 36 184 32 64
-3 92 -9 133 -31z"/>
<path d="M9151 2842 c-25 -27 -53 -64 -62 -83 -9 -19 -22 -47 -30 -63 -9 -19
-14 -64 -14 -135 1 -95 4 -112 29 -164 15 -32 52 -84 82 -116 l54 -59 0 -301
0 -301 -82 0 c-130 0 -129 0 -126 -79 l3 -66 428 -3 428 -2 -3 72 -3 73 -92 3
-93 3 0 305 0 306 49 53 c26 29 58 75 71 101 70 150 39 341 -73 459 l-44 45
-238 0 -239 0 -45 -48z m419 -77 c74 -47 113 -158 90 -256 -31 -132 -86 -174
-230 -174 -67 0 -92 4 -119 20 -58 34 -91 84 -103 156 -24 147 41 260 162 283
56 10 162 -5 200 -29z m-81 -604 c11 -7 13 -54 11 -247 -4 -315 1 -294 -66
-294 l-54 0 0 268 c0 148 3 272 7 275 9 10 86 8 102 -2z"/>
<path d="M10812 2605 c-2 -156 -1 -298 3 -315 l7 -31 76 3 77 3 3 313 2 312
-82 0 -83 0 -3 -285z"/>
<path d="M13672 2813 c-34 -43 -71 -89 -82 -103 -11 -14 -20 -28 -20 -32 0 -5
24 -8 53 -8 29 0 58 -5 65 -12 9 -9 12 -163 12 -630 l0 -618 95 0 95 0 0 740
0 740 -78 0 -79 0 -61 -77z"/>
<path d="M14321 2883 c-43 -17 -106 -87 -136 -152 -37 -78 -35 -82 55 -116 25
-9 53 -21 62 -26 13 -6 21 -3 33 13 8 13 15 27 15 32 0 5 12 24 26 43 60 79
176 83 251 8 20 -20 43 -80 43 -110 0 -55 -67 -146 -133 -180 -13 -7 -59 -16
-101 -20 l-76 -7 0 -89 c0 -101 -9 -93 113 -104 38 -3 76 -10 85 -14 9 -5 38
-18 64 -30 147 -68 219 -226 171 -374 -19 -58 -117 -167 -150 -167 -11 0 -24
-5 -31 -12 -7 -7 -41 -12 -85 -12 -148 0 -258 96 -281 245 -11 71 -15 75 -77
53 -30 -10 -58 -22 -63 -26 -6 -4 -18 -8 -28 -8 -27 0 -32 -24 -18 -78 16 -63
27 -89 74 -177 18 -33 112 -119 157 -143 38 -20 54 -22 230 -22 182 0 191 1
237 25 58 30 151 124 184 185 124 229 35 537 -184 644 -32 15 -58 30 -58 33 0
3 29 37 65 75 36 39 65 78 65 87 0 9 5 22 12 29 8 8 12 44 12 100 -1 74 -5 96
-27 139 -30 60 -77 115 -123 143 -28 18 -49 20 -200 19 -93 0 -175 -3 -183 -6z"/>
<path d="M15430 2680 c0 -228 5 -254 54 -300 25 -23 36 -25 139 -28 62 -2 118
-8 125 -14 7 -7 12 -37 12 -82 0 -107 4 -105 -185 -108 l-160 -3 -3 -61 c-2
-43 1 -64 11 -73 11 -8 124 -11 428 -9 l414 3 0 70 0 70 -165 5 -165 5 0 95 0
95 155 5 155 5 3 268 2 267 -410 0 -410 0 0 -210z m655 -45 l0 -130 -225 -3
c-275 -3 -259 -12 -260 149 0 58 3 109 7 113 4 3 113 5 242 4 l236 -3 0 -130z"/>
<path d="M16562 2836 c-59 -65 -88 -124 -101 -204 -21 -129 21 -263 110 -353
l49 -51 0 -304 0 -304 -77 0 c-123 0 -123 0 -123 -81 l0 -69 428 2 427 3 3 67
c3 78 7 76 -118 80 l-75 3 -3 302 -2 303 49 52 c63 66 98 137 108 219 17 130
-17 242 -102 337 l-47 52 -238 0 -238 0 -50 -54z m412 -64 c104 -61 139 -241
68 -351 -80 -124 -309 -122 -390 3 -25 37 -27 50 -27 141 0 89 3 104 25 136
30 45 80 80 128 90 54 11 162 1 196 -19z m-66 -879 l2 -273 -54 0 c-40 0 -55
4 -60 16 -9 22 -8 519 1 528 4 4 30 6 58 4 l50 -3 3 -272z"/>
<path d="M17508 2857 c-89 -67 -128 -174 -115 -311 10 -105 67 -187 164 -237
43 -22 58 -24 187 -24 159 1 187 9 257 72 63 57 92 122 97 220 7 124 -37 225
-123 285 l-40 27 -192 1 -191 0 -44 -33z m344 -114 c53 -31 78 -77 78 -142 0
-114 -62 -171 -185 -171 -131 0 -190 60 -182 183 5 78 24 106 92 139 50 24
148 20 197 -9z"/>
<path d="M18232 2578 l3 -313 75 0 75 0 3 313 2 312 -80 0 -80 0 2 -312z"/>
<path d="M11260 2070 c0 -78 2 -91 19 -100 12 -6 131 -10 315 -10 282 0 296 1
306 19 11 21 13 122 4 159 l-6 22 -319 0 -319 0 0 -90z"/>
<path d="M10064 2126 c-3 -7 -4 -38 -2 -67 l3 -54 353 -5 354 -5 19 -24 c16
-19 19 -37 17 -80 l-3 -56 -370 -5 -370 -5 -3 -140 c-3 -151 7 -215 41 -252
l20 -23 429 0 429 0 -3 63 -3 62 -340 2 c-233 2 -347 6 -362 14 -26 14 -43 57
-43 110 0 22 1 40 3 41 1 1 169 5 372 8 l370 5 0 171 c0 187 -6 214 -57 240
-40 20 -846 21 -854 0z"/>
<path d="M17480 2070 l0 -70 348 0 c269 -1 351 -4 364 -14 35 -26 51 -119 26
-144 -9 -9 -106 -12 -375 -12 l-363 0 0 -159 c0 -165 8 -214 42 -243 19 -17
55 -18 444 -18 l424 0 0 49 c0 88 30 81 -352 81 l-339 0 -25 25 c-22 22 -25
32 -22 83 l3 57 365 5 365 5 0 184 0 183 -35 29 -34 29 -418 0 -418 0 0 -70z"/>
<path d="M8037 1853 c-13 -12 -8 -123 6 -128 6 -2 141 -6 299 -7 260 -3 289
-5 305 -21 15 -15 19 -39 21 -152 l4 -135 85 0 85 0 -4 183 c-4 193 -13 233
-57 257 -22 11 -733 15 -744 3z"/>
<path d="M15457 1853 c-4 -3 -7 -35 -7 -70 0 -53 3 -63 18 -63 552 -3 581 -4
596 -25 12 -15 15 -50 16 -152 l0 -133 85 0 85 0 0 180 c0 141 -3 187 -15 210
-31 61 -26 60 -416 60 -195 0 -359 -3 -362 -7z"/>
<path d="M4884 1644 c-12 -3 -36 -21 -55 -40 -29 -30 -33 -41 -33 -88 0 -33 6
-63 17 -79 17 -26 20 -27 116 -27 97 0 99 1 117 28 22 32 25 108 6 143 -27 49
-102 77 -168 63z"/>
<path d="M6257 1622 c-43 -29 -56 -53 -57 -105 0 -34 6 -58 21 -78 20 -28 23
-29 108 -29 103 0 117 9 127 82 8 56 -14 106 -55 131 -38 22 -109 22 -144 -1z"/>
<path d="M7658 1624 c-30 -16 -68 -80 -68 -114 0 -21 15 -52 39 -82 12 -15 30
-18 102 -18 85 0 89 1 106 27 12 17 18 46 18 81 0 49 -3 56 -37 88 -32 29 -45
34 -85 34 -27 -1 -60 -8 -75 -16z"/>
<path d="M13280 1623 c-50 -34 -55 -44 -55 -109 0 -92 14 -104 127 -104 l88 0
20 33 c37 61 18 146 -41 181 -36 21 -108 20 -139 -1z"/>
<path d="M15159 1623 c-59 -36 -78 -128 -38 -184 20 -28 23 -29 109 -29 84 0
90 1 109 26 42 53 21 152 -39 188 -36 20 -107 20 -141 -1z"/>
</g>
</svg>
