<?xml version="1.0" standalone="no"?>
<!DOCTYPE svg PUBLIC "-//W3C//DTD SVG 20010904//EN"
 "http://www.w3.org/TR/2001/REC-SVG-20010904/DTD/svg10.dtd">
<svg version="1.0" xmlns="http://www.w3.org/2000/svg"
 width="1920.000000pt" height="1080.000000pt" viewBox="0 0 1920.000000 1080.000000"
 preserveAspectRatio="xMidYMid meet">

<g transform="translate(0.000000,1080.000000) scale(0.100000,-0.100000)"
fill="#000000" stroke="none">
<path d="M0 8165 c0 -580 3 -1055 8 -1056 4 0 54 -2 111 -5 86 -4 106 -2 121
11 21 19 86 17 82 -2 -1 -9 14 -13 54 -13 32 0 53 4 49 9 -11 18 34 31 106 31
85 0 84 -17 0 -22 -33 -2 -56 -8 -59 -16 -3 -10 24 -12 125 -10 122 3 128 4
125 23 -3 21 1 21 353 23 234 1 355 -1 355 -8 0 -6 -44 -10 -115 -10 -70 0
-115 -4 -115 -10 0 -11 3 -11 67 -14 68 -2 62 -16 -8 -17 -35 0 -56 -4 -46 -7
22 -9 335 -8 344 1 3 4 -22 7 -56 7 -35 0 -60 4 -56 9 3 5 26 8 51 7 28 -1 51
3 59 11 8 8 37 13 74 13 54 0 61 -2 61 -20 0 -20 26 -27 83 -22 10 1 16 -2 13
-7 -3 -5 0 -13 7 -18 18 -15 108 -43 102 -32 -4 5 -13 9 -21 9 -8 0 -14 5 -14
10 0 6 -13 10 -30 10 -34 0 -37 5 -15 26 13 14 17 14 31 0 18 -18 30 -20 39
-6 4 6 82 10 201 10 118 0 194 4 194 10 0 14 37 31 54 24 25 -10 18 -25 -8
-18 -13 3 -27 1 -30 -5 -5 -7 9 -11 43 -11 39 0 51 4 54 18 4 14 5 15 6 1 1
-22 38 -31 55 -13 12 11 15 11 20 -1 3 -9 12 -12 22 -8 14 5 12 9 -12 27 -15
11 -41 33 -56 48 -16 16 -33 28 -38 28 -5 0 -13 8 -19 17 -8 15 -11 15 -28 3
-17 -14 -17 -14 -3 3 12 17 12 20 -2 28 -15 8 -127 96 -138 109 -3 3 -37 31
-76 62 -114 91 -111 86 -75 122 l30 30 38 -40 c32 -34 120 -117 387 -367 21
-20 43 -34 49 -30 5 3 7 1 4 -4 -4 -6 16 -30 44 -54 28 -24 58 -50 66 -58 7
-7 17 -11 20 -8 7 8 -48 56 -64 57 -7 0 -13 11 -13 25 0 14 -7 28 -15 31 -8 4
-15 13 -15 21 0 11 5 10 25 -4 13 -10 23 -23 20 -30 -5 -16 21 -37 30 -23 10
16 28 12 21 -5 -6 -17 19 -21 29 -5 3 6 19 10 36 10 19 0 29 5 29 14 0 8 5 18
11 21 6 4 9 -4 7 -22 -3 -23 1 -29 22 -31 14 -2 31 -9 38 -15 9 -7 16 -7 24 1
9 9 7 12 -10 12 -14 0 -26 9 -31 23 -5 12 -64 77 -130 145 -67 68 -121 129
-121 136 0 13 31 46 43 46 4 0 47 -54 97 -120 84 -111 92 -119 113 -110 22 11
22 11 2 -5 -20 -16 -20 -17 8 -39 15 -12 27 -27 27 -34 0 -16 17 -15 24 1 5
10 7 10 12 0 8 -19 32 -16 30 3 0 9 5 19 12 22 9 2 13 -3 12 -14 -4 -34 0 -37
20 -19 20 18 20 17 20 -13 0 -23 4 -30 15 -26 11 5 12 10 2 24 -6 11 -7 23 -3
27 5 4 11 2 13 -5 3 -7 10 -18 17 -25 7 -7 11 -18 8 -25 -2 -6 1 -12 7 -12 6
0 11 5 11 10 0 10 -31 58 -55 86 -13 15 -135 188 -155 219 -8 13 -62 87 -120
165 -58 78 -112 152 -120 164 -8 12 -45 63 -82 113 -38 50 -68 95 -68 101 0
11 38 42 52 42 4 0 31 -37 61 -82 29 -46 85 -130 123 -188 38 -58 71 -109 73
-113 14 -33 356 -534 371 -544 29 -20 25 -8 -7 23 l-28 26 30 -7 c17 -3 32
-11 33 -16 5 -12 32 -12 32 1 0 6 -7 10 -15 10 -8 0 -15 7 -15 15 0 8 4 15 8
15 15 0 44 -38 37 -49 -3 -6 1 -11 9 -11 9 0 16 -7 16 -15 0 -8 5 -15 10 -15
6 0 10 2 10 4 0 4 -87 154 -120 206 -5 8 -21 38 -35 65 -15 28 -35 64 -45 80
-36 58 -60 106 -60 120 0 12 28 35 44 35 3 0 30 -48 60 -107 125 -247 151
-298 157 -303 4 -3 9 -15 13 -26 5 -16 12 -20 26 -17 11 3 20 12 20 19 0 8 5
14 11 14 7 0 9 10 5 24 -8 31 6 41 22 15 7 -10 8 -19 3 -19 -5 0 -14 -13 -19
-29 -6 -16 -19 -32 -31 -36 -17 -5 -19 -9 -9 -30 12 -27 32 -24 24 3 -4 12 7
26 32 44 31 21 49 26 92 25 33 0 55 4 58 11 2 7 -6 12 -17 12 -12 0 -21 5 -21
10 0 6 15 10 33 10 26 0 33 -4 33 -20 0 -11 -6 -20 -12 -20 -12 0 -27 -36 -25
-57 1 -8 -11 -13 -33 -13 -19 0 -38 -5 -41 -11 -5 -7 5 -8 29 -4 30 6 37 4 42
-11 17 -55 23 -56 19 -3 -5 52 -3 58 20 73 24 16 25 16 26 -6 1 -20 2 -20 6
-4 8 29 -28 126 -47 126 -8 0 -2 7 14 15 15 8 34 15 42 15 17 0 34 -32 34 -64
0 -14 5 -28 10 -31 6 -3 10 -16 11 -28 0 -12 3 -16 6 -9 2 6 9 10 14 6 5 -3 9
0 9 5 0 6 5 11 10 11 6 0 10 -8 10 -17 0 -14 6 -11 25 12 16 20 24 25 25 14 0
-21 43 -43 69 -36 20 5 21 1 21 -61 0 -37 4 -85 9 -107 15 -67 13 165 -4 494
-9 177 -12 298 -6 304 5 5 19 7 32 5 l24 -3 6 -330 c3 -181 7 -332 8 -335 2
-3 6 6 10 20 8 26 11 27 50 15 23 -7 23 -7 7 16 -23 33 -20 48 7 42 12 -3 28
-10 35 -16 7 -6 17 -6 25 0 6 5 26 8 44 7 18 -1 37 4 44 12 6 8 16 14 22 14 6
0 1 -11 -11 -23 -21 -22 -21 -26 -8 -51 16 -32 22 -22 32 56 9 65 23 82 57 67
27 -12 27 -7 -9 -114 -20 -57 -17 -72 6 -42 11 14 20 34 20 45 0 31 19 36 26
7 3 -13 11 -22 16 -19 5 3 7 17 4 30 -4 14 -2 24 4 24 5 0 10 -7 10 -15 0 -9
7 -15 17 -13 10 2 19 -5 21 -16 2 -10 0 -16 -5 -13 -5 3 -9 -3 -9 -13 0 -19 1
-18 19 0 10 11 22 20 27 20 5 0 10 6 13 13 2 6 2 2 1 -10 -6 -32 14 -39 26 -9
14 38 19 32 13 -16 -3 -31 -1 -39 6 -28 5 9 11 22 13 30 2 8 5 17 8 20 19 19
40 73 35 90 -5 15 -3 18 8 14 10 -3 18 3 22 18 11 35 154 328 160 328 4 0 15
-5 26 -10 22 -12 25 -38 5 -65 -7 -11 -36 -63 -63 -115 -82 -154 -115 -214
-124 -226 -20 -24 5 -21 27 4 13 15 24 22 24 15 0 -6 -19 -28 -42 -48 -41 -35
-86 -105 -67 -105 5 0 9 6 9 13 0 6 5 4 11 -5 5 -10 15 -18 21 -18 6 0 3 11
-7 26 -16 25 -16 26 8 48 14 13 32 26 41 29 9 4 16 10 16 14 0 5 19 7 41 5 28
-3 37 -7 28 -13 -8 -5 -9 -9 -4 -9 6 0 17 6 23 12 10 10 17 10 33 0 12 -8 18
-9 14 -3 -4 7 7 11 32 11 28 0 34 -3 23 -10 -9 -6 -10 -10 -3 -10 6 0 15 5 18
10 3 6 21 10 40 10 19 0 37 5 40 10 3 6 -3 10 -14 10 -12 0 -21 5 -21 10 0 19
27 10 58 -20 34 -32 52 -38 52 -17 0 7 17 31 38 54 42 46 43 48 130 158 34 44
67 86 73 93 9 11 16 9 35 -9 13 -12 24 -26 24 -30 0 -4 -56 -63 -125 -131 -69
-68 -125 -129 -125 -136 0 -19 29 -14 42 7 9 16 14 17 25 6 7 -8 13 -19 13
-25 0 -6 5 -8 11 -5 6 4 8 14 5 22 -4 11 -1 13 14 8 11 -4 20 -2 20 4 0 6 11
11 25 11 16 0 25 -6 25 -16 0 -8 -4 -13 -9 -10 -16 10 -41 -5 -41 -24 0 -22
19 -38 21 -18 1 7 1 17 0 21 -1 5 4 7 11 5 6 -2 19 3 28 11 9 9 43 40 76 70
57 52 279 259 394 369 55 52 80 64 80 38 0 -8 7 -16 15 -20 22 -8 18 -29 -7
-50 -13 -11 -39 -33 -59 -50 -19 -17 -66 -56 -104 -86 -37 -30 -118 -98 -180
-150 -186 -158 -218 -184 -234 -197 -10 -8 -11 -12 -4 -13 6 0 15 5 18 10 4 6
10 8 15 5 5 -3 11 3 14 12 3 10 25 26 48 36 24 10 55 33 70 50 26 30 27 31 21
7 -4 -20 -3 -23 7 -13 7 6 18 10 24 9 6 -2 8 -1 4 1 -5 3 -8 17 -7 31 0 15 3
21 6 15 2 -7 11 -13 19 -13 9 0 11 -6 7 -17 -6 -15 -4 -16 9 -6 12 11 21 10
45 -2 30 -15 88 -11 99 6 3 5 42 9 86 9 45 0 79 -3 76 -6 -3 -3 -43 -9 -89
-13 -66 -6 -73 -9 -34 -10 70 -2 199 -27 203 -40 5 -14 42 -14 42 -1 0 6 -7
10 -16 10 -11 0 -14 5 -10 17 4 9 1 20 -6 25 -7 4 21 8 65 8 59 0 78 -3 74
-12 -2 -7 -11 -11 -18 -9 -38 11 -60 13 -75 7 -28 -11 4 -36 44 -36 34 0 35
-1 20 -17 -13 -12 -20 -14 -31 -5 -10 9 -18 9 -31 -1 -14 -10 -10 -12 28 -14
28 -1 49 4 57 13 6 8 18 14 26 14 8 0 30 12 49 26 19 15 36 25 38 23 2 -2 8
-13 14 -24 11 -19 11 -18 12 8 0 32 24 46 51 29 10 -7 28 -12 38 -12 11 0 23
-5 26 -10 4 -6 29 -10 56 -9 47 2 49 3 33 21 -16 17 -15 18 45 18 47 0 60 -3
55 -12 -5 -9 -2 -8 9 1 14 11 23 12 43 2 15 -6 23 -7 19 -1 -4 6 7 10 25 10
18 0 29 -4 25 -10 -7 -11 16 -13 132 -14 43 -1 77 -6 85 -14 9 -9 6 -12 -16
-12 -15 0 -25 -4 -21 -10 3 -5 19 -10 35 -10 22 0 29 5 32 23 3 25 -26 23 328
13 85 -3 145 -2 133 0 -13 3 -23 10 -23 15 0 5 58 8 138 7 75 -1 115 -3 87 -5
-66 -5 -83 -23 -24 -25 l44 -1 -45 -7 c-61 -9 -42 -11 153 -13 128 -2 167 1
167 11 0 9 68 12 303 14 166 1 266 4 222 5 -125 6 -117 23 11 23 61 0 113 -3
117 -6 3 -4 -10 -15 -31 -25 -27 -14 -58 -19 -126 -19 -79 0 -88 -2 -71 -14
26 -17 117 -29 152 -19 24 7 19 9 -32 15 -33 3 12 5 99 3 167 -4 316 3 316 15
0 4 -53 12 -117 17 -112 10 -105 10 142 10 182 1 260 4 263 12 5 14 59 15 67
1 3 -5 30 -10 60 -10 30 0 57 -4 60 -10 3 -5 34 -11 68 -12 l62 -1 -65 -7
c-59 -6 -54 -7 55 -10 l120 -4 -120 -6 -120 -6 125 0 c102 1 124 4 122 15 -5
22 338 8 354 -14 16 -21 119 -21 128 0 4 11 23 15 81 15 54 0 74 3 73 12 -2 9
21 12 92 9 52 -2 98 -5 103 -8 4 -2 7 -13 7 -24 0 -16 7 -19 53 -19 202 -1
323 -1 327 0 3 1 52 4 110 6 58 3 109 9 114 15 16 15 233 11 259 -5 17 -11 44
-12 117 -7 90 6 94 7 100 31 3 14 14 26 23 28 20 4 23 -18 5 -37 -11 -10 -10
-14 5 -22 9 -6 17 -21 17 -34 0 -13 7 -30 15 -39 19 -18 19 -33 1 -43 -8 -4
-19 -30 -24 -58 -6 -27 -15 -63 -21 -80 -5 -16 -20 -63 -32 -102 l-22 -73 -57
0 -57 0 -28 -82 c-15 -46 -30 -85 -31 -87 -2 -2 -38 -3 -81 -2 -43 0 -84 -3
-91 -7 -11 -8 -100 -223 -123 -299 l-10 -33 -84 0 -84 0 26 68 c43 113 44 119
41 154 -3 32 -5 33 -50 36 -27 2 -48 7 -48 11 0 10 21 60 62 149 31 67 42 130
27 153 -6 10 -72 13 -289 12 -237 -1 -281 1 -276 13 5 13 -29 54 -45 54 -4 0
-9 9 -12 20 -3 13 -14 20 -30 20 -27 0 -40 -16 -95 -120 -19 -36 -50 -91 -69
-122 -31 -53 -38 -58 -69 -58 -49 0 -69 -24 -184 -220 -96 -164 -97 -165 -135
-168 l-38 -3 33 58 c18 32 41 72 51 88 62 102 71 127 67 186 -7 102 -50 128
-214 130 -107 1 -108 1 -132 -27 -20 -23 -27 -26 -41 -16 -104 76 -236 67
-321 -22 l-34 -36 -16 31 c-26 55 -68 69 -202 69 l-116 0 -133 -162 c-73 -90
-175 -212 -226 -271 -51 -60 -91 -112 -88 -116 2 -5 57 -10 122 -13 133 -6
172 -19 203 -71 26 -42 26 -109 0 -161 -11 -23 -59 -92 -106 -155 -47 -62 -83
-115 -81 -117 4 -5 277 -8 420 -5 62 1 72 4 98 30 l29 29 0 145 c0 142 -1 146
-26 176 -23 27 -32 31 -79 31 -48 0 -56 -3 -80 -32 l-27 -32 4 -163 3 -163
-46 0 c-27 0 -51 6 -58 13 -6 8 -14 72 -17 143 -8 157 6 224 61 279 77 76 237
78 314 3 54 -53 61 -83 61 -254 0 -84 -4 -164 -10 -178 -17 -45 22 -31 62 22
19 26 74 98 122 160 129 169 119 202 -57 202 l-98 0 3 48 3 47 120 -1 c136 -1
172 -13 205 -67 24 -39 26 -116 5 -158 -9 -16 -56 -85 -106 -152 l-90 -122 58
-5 c101 -9 99 -10 187 151 43 79 94 172 113 207 l34 62 54 0 c31 0 55 -4 55
-10 0 -6 -14 -37 -30 -70 -16 -33 -30 -62 -30 -64 0 -3 24 -6 53 -8 l52 -3 3
-132 3 -131 112 -7 c62 -3 173 -5 247 -3 l135 3 3 93 3 92 -119 0 c-130 0
-142 5 -142 55 0 53 8 55 207 55 l183 0 0 125 0 125 -75 0 -75 0 0 -77 c0
-118 -3 -125 -59 -121 l-46 3 -3 98 -3 97 -55 0 c-48 0 -56 3 -63 23 -5 13 -7
35 -4 50 l5 27 302 -2 301 -3 0 -45 0 -45 -57 -3 -58 -3 0 -124 0 -124 58 -3
57 -3 0 -50 0 -50 -122 -3 -123 -3 0 -89 c0 -85 1 -90 23 -95 12 -3 207 -5
432 -3 459 3 462 4 491 73 40 98 -12 198 -104 198 -86 0 -141 -70 -127 -160
l6 -43 -49 0 c-36 0 -52 4 -56 16 -11 29 -6 104 9 141 9 20 12 40 8 44 -5 4
-30 9 -58 11 l-50 3 -3 39 c-2 24 2 42 10 47 7 5 68 9 135 9 l122 0 3 93 3 92
45 0 45 0 3 -92 3 -93 114 0 c62 0 120 -3 129 -6 11 -4 16 -19 16 -50 l0 -44
-53 0 c-30 0 -56 -3 -59 -6 -4 -3 1 -22 9 -42 21 -48 20 -149 -1 -194 -22 -46
-93 -113 -136 -127 -25 -8 -240 -11 -775 -11 l-740 1 -5 -53 -5 -53 -43 -3
c-56 -4 -72 10 -72 64 l0 44 -707 2 -708 3 -3 41 c-3 37 4 49 97 173 55 72
107 139 116 147 8 9 15 21 15 29 0 7 4 15 9 17 17 6 22 52 9 70 -10 14 -33 19
-114 22 -56 2 -107 6 -113 10 -6 4 -11 18 -11 32 0 13 -4 24 -10 24 -5 0 -10
-7 -10 -16 0 -10 -6 -14 -15 -10 -8 3 -19 -2 -24 -12 -9 -14 -10 -11 -11 16 0
17 -4 32 -10 32 -5 0 -10 -8 -10 -17 0 -17 -11 -17 -132 -12 -137 7 -162 10
-174 22 -10 9 -59 9 -68 0 -9 -9 -81 -15 -176 -15 -229 0 -316 -1 -584 -4
-252 -4 -300 -2 -310 10 -12 15 -106 27 -106 13 0 -4 -10 -1 -22 7 -26 18 -38
20 -38 6 0 -5 6 -10 14 -10 7 0 16 -10 20 -22 10 -39 6 -44 -12 -13 l-17 30
-5 -40 c-3 -22 -10 -39 -15 -38 -27 4 -424 24 -598 29 -190 6 -198 7 -195 26
3 19 10 20 160 19 156 -2 187 4 158 32 -9 9 -14 8 -23 -4 -17 -23 -167 -27
-167 -4 0 9 -9 15 -21 15 -13 0 -19 -5 -16 -12 3 -10 -33 -14 -157 -16 -93 -2
-166 -8 -173 -14 -10 -8 -24 -3 -53 16 -48 31 -60 33 -60 6 0 -17 -5 -19 -25
-14 -14 3 -31 1 -39 -5 -10 -8 -16 -9 -21 -1 -3 5 -21 10 -38 10 -22 0 -28 3
-18 9 8 5 10 14 6 22 -6 9 -10 8 -16 -7 -4 -12 -1 -26 8 -36 9 -10 13 -24 9
-33 -5 -14 -29 -16 -170 -15 -91 1 -169 -1 -175 -4 -13 -8 -19 23 -10 56 4 15
9 44 11 65 3 38 3 38 -55 61 -57 22 -59 23 -73 5 -7 -10 -14 -35 -14 -55 0
-32 -3 -37 -27 -40 -19 -2 -29 -10 -31 -23 -2 -11 -8 -24 -14 -30 -10 -11 -4
37 7 55 3 6 0 7 -9 4 -9 -3 -16 -12 -16 -20 0 -8 -7 -14 -15 -14 -8 0 -15 4
-15 9 0 5 -7 11 -14 14 -10 4 -13 1 -9 -9 3 -7 9 -14 13 -14 5 0 12 -9 15 -20
4 -11 10 -18 14 -16 4 3 8 -3 9 -12 1 -9 5 -36 8 -58 4 -28 1 -51 -10 -72 -20
-40 -21 -39 12 -46 87 -21 165 -38 227 -51 101 -20 150 -38 150 -55 0 -19 -40
-18 -120 4 -33 10 -85 23 -115 31 -30 8 -82 21 -115 29 -77 20 -85 20 -85 -1
0 -14 26 -26 108 -53 59 -20 218 -73 355 -120 226 -77 247 -86 247 -107 0 -13
-6 -23 -14 -23 -8 0 -70 22 -138 49 -68 27 -184 72 -258 101 -74 29 -177 70
-229 91 l-94 38 -48 -42 c-39 -34 -48 -47 -44 -67 2 -14 2 -19 -1 -12 -8 17
-24 15 -24 -3 0 -11 -7 -14 -23 -10 -15 4 -28 1 -37 -10 -11 -13 -8 -26 19
-83 33 -72 36 -82 24 -82 -5 0 -16 21 -27 46 -20 48 -36 45 -36 -6 0 -24 -50
-133 -70 -154 -5 -5 -7 -30 -5 -55 3 -34 2 -38 -3 -16 -6 26 -11 30 -37 27
-17 -2 -58 -3 -93 -4 -53 0 -67 -4 -87 -24 -13 -13 -33 -24 -45 -24 -14 0 -20
-7 -20 -22 -1 -66 -32 -91 -51 -41 -7 19 -7 35 1 52 11 25 1 40 -27 41 -6 0
-18 3 -27 6 -22 9 -20 -18 3 -37 10 -9 21 -34 24 -56 8 -49 27 -67 67 -61 28
4 29 3 17 -16 -22 -32 -63 -59 -91 -58 -15 0 -29 -5 -32 -10 -4 -6 -10 -5 -14
3 -6 8 -12 -1 -19 -28 -7 -27 -19 -43 -36 -51 -57 -26 -127 -7 -159 44 -17 24
-21 26 -70 20 -29 -4 -61 -3 -71 1 -14 6 -1 9 45 13 49 4 65 9 65 20 0 12 -12
14 -58 12 -93 -6 -146 30 -126 85 13 34 79 42 145 16 11 -4 14 6 14 50 0 31
-4 66 -9 80 -10 25 -75 97 -89 97 -4 0 -19 -21 -32 -47 -14 -27 -28 -50 -32
-53 -3 -3 -18 -28 -32 -55 -14 -28 -26 -43 -26 -35 0 8 10 31 22 50 26 43 78
146 78 156 0 7 -55 -43 -182 -164 -44 -41 -73 -62 -83 -58 -8 3 -15 10 -15 15
0 5 48 49 107 98 60 48 116 96 126 106 18 18 18 19 0 32 -10 8 -21 15 -25 15
-3 0 -17 22 -30 49 l-23 50 -55 -30 c-104 -55 -101 -54 -110 -39 -13 20 -8 24
85 71 77 38 85 45 85 70 0 31 -9 35 -38 19 -9 -5 -89 -39 -177 -75 -160 -66
-204 -84 -260 -111 -26 -12 -31 -11 -42 3 -19 25 -3 37 100 72 50 18 101 37
112 41 11 5 52 20 90 34 127 45 210 77 216 84 4 4 10 22 14 41 6 28 5 33 -8
28 -9 -3 -33 -9 -54 -13 -21 -4 -44 -11 -51 -17 -7 -5 -16 -7 -19 -3 -8 8 10
41 23 41 20 1 88 17 110 25 l24 9 -44 68 c-24 38 -46 78 -50 90 -4 13 -15 22
-24 21 -9 -1 -61 0 -114 0 -97 2 -98 2 -98 27 0 18 5 25 19 25 11 0 23 5 26
10 7 11 -17 14 -75 11 -152 -8 -216 -8 -236 -1 -14 6 -26 5 -29 0 -4 -6 -20
-10 -37 -10 -26 0 -29 2 -18 15 10 12 10 15 -3 15 -8 0 -17 -5 -19 -11 -2 -7
-12 -7 -31 0 -35 13 -87 14 -87 2 0 -5 10 -12 23 -14 14 -3 10 -5 -13 -5 -19
-1 -42 3 -50 8 -13 9 -13 11 0 20 12 8 9 10 -13 10 -16 0 -26 -4 -22 -10 4 -6
-5 -10 -20 -10 -24 0 -26 3 -21 25 4 14 2 25 -4 25 -5 0 -9 -3 -9 -7 5 -33 -3
-53 -21 -53 -11 0 -20 5 -20 11 0 7 -10 5 -26 -6 -18 -11 -29 -13 -38 -6 -6 6
-22 8 -34 4 -12 -3 -34 -2 -49 2 l-28 8 25 7 c23 7 23 8 4 9 -12 1 -25 8 -28
17 -3 8 -10 13 -15 9 -6 -3 -8 -12 -5 -20 4 -8 -3 -15 -18 -18 l-23 -4 23 -2
c31 -2 28 -19 -5 -24 -16 -2 101 -5 258 -6 221 -1 289 -4 304 -14 11 -9 14
-16 8 -20 -6 -4 -127 -9 -269 -12 -143 -3 -393 -10 -556 -17 -163 -6 -303 -8
-312 -5 -21 8 -22 82 -2 90 8 3 31 3 50 0 24 -4 36 -2 36 6 0 6 -10 11 -22 11
-13 0 -39 3 -60 6 -30 5 -36 4 -35 -11 2 -13 -7 -18 -35 -19 -34 -3 -38 0 -38
21 0 15 -5 23 -12 20 -7 -2 -12 -12 -10 -23 3 -20 -14 -20 -420 -16 -27 0 -81
0 -120 0 -304 1 -648 8 -654 15 -4 4 -34 7 -66 7 l-58 0 0 -1948 0 -1947 9590
-3 9590 -4 -1 1904 c-1 1047 -5 1885 -9 1863 -4 -22 -8 -30 -9 -18 -2 35 -12
52 -27 46 -10 -4 -14 5 -15 33 -2 31 -3 33 -6 11 -7 -47 -48 -60 -184 -56 -77
3 -122 8 -131 17 -19 19 -78 16 -78 -4 0 -15 -12 -16 -102 -10 -148 9 -720 10
-740 1 -16 -6 -18 -24 -18 -155 0 -82 4 -160 10 -175 5 -14 26 -35 45 -46 31
-19 35 -25 35 -64 0 -24 -5 -47 -11 -50 -19 -12 -97 16 -128 47 -57 55 -61 91
-61 495 l0 363 43 0 c23 0 53 7 65 16 13 9 29 13 37 10 17 -6 21 9 5 19 -5 3
-15 15 -21 27 -8 15 -8 19 0 14 6 -4 11 -2 11 4 0 6 10 15 23 19 17 7 27 4 45
-12 12 -11 22 -15 22 -8 0 6 12 16 26 22 26 9 26 10 9 32 -10 12 -36 38 -58
58 l-39 37 21 21 c25 25 21 37 -35 96 -16 17 -58 64 -94 105 -36 41 -79 91
-96 110 -60 67 -81 95 -78 105 2 6 -10 18 -28 28 l-31 18 21 19 c26 25 34 25
30 3 -2 -12 4 -19 20 -21 12 -2 22 -10 22 -18 0 -8 5 -12 10 -9 6 3 13 -1 16
-9 5 -12 9 -13 19 -3 13 13 14 25 2 45 -5 6 -5 16 -2 22 3 6 0 10 -7 10 -9 0
-9 3 2 10 23 15 43 12 36 -5 -6 -16 2 -18 47 -15 33 2 35 -7 5 -20 -20 -8 -18
-9 14 -9 20 -1 38 4 40 11 5 15 138 25 138 10 0 -6 -26 -13 -57 -15 -32 -2 24
-4 125 -5 178 -2 182 -2 182 19 0 12 5 19 12 17 7 -3 13 -13 13 -24 0 -18 12
-19 362 -19 199 0 365 -3 369 -8 11 -10 62 -9 69 3 4 6 11 5 19 -3 8 -6 12
-15 9 -19 -9 -15 7 -8 28 13 15 15 18 24 10 29 -9 5 -8 10 3 19 19 16 39 5 32
-17 -3 -10 -1 -24 4 -32 6 -10 10 389 10 1118 l0 1132 -9590 0 -9590 0 0
-1055z m3877 613 c-4 -73 -10 -214 -13 -313 -4 -99 -10 -189 -14 -199 -4 -11
-10 45 -14 125 -4 79 -11 187 -16 239 -5 52 -12 137 -15 188 l-7 92 43 0 42 0
-6 -132z m1371 -198 c32 -20 33 -22 19 -43 -38 -58 -286 -488 -292 -506 -3
-10 -13 -25 -22 -33 -14 -11 -15 -10 -8 12 4 14 23 59 42 100 35 75 188 425
204 468 10 27 15 27 57 2z m-2699 -140 c55 -122 187 -401 218 -462 2 -5 0 -8
-5 -8 -5 0 -57 80 -116 178 -59 97 -134 219 -167 270 -32 51 -59 99 -59 106 0
7 15 19 32 28 32 15 33 14 48 -11 9 -14 31 -60 49 -101z m1082 -205 c7 -93 22
-252 39 -410 5 -49 16 -160 25 -245 9 -85 21 -189 27 -230 5 -41 12 -91 15
-111 5 -37 -4 -53 -24 -41 -6 4 -16 59 -22 122 -17 179 -93 708 -137 954 -8
43 5 58 46 54 24 -3 25 -6 31 -93z m566 79 c3 -9 -6 -91 -22 -183 -29 -181
-48 -301 -69 -457 -15 -109 -35 -169 -36 -104 0 19 7 103 15 185 8 83 22 242
30 354 9 112 18 208 21 213 9 14 54 9 61 -8z m-1134 -166 c9 -24 19 -56 23
-73 4 -16 10 -34 14 -40 4 -5 11 -26 15 -45 4 -19 11 -39 15 -45 4 -5 12 -28
18 -50 5 -22 31 -98 57 -170 25 -71 51 -146 57 -165 5 -19 14 -39 18 -45 13
-17 22 -75 12 -75 -5 0 -19 24 -31 53 -12 28 -26 61 -31 72 -5 11 -38 92 -75
180 -61 148 -82 197 -105 250 -5 11 -18 43 -30 70 -12 28 -26 61 -33 74 -10
19 -8 25 8 37 33 24 51 17 68 -28z m1691 36 c20 -8 20 -36 2 -77 -38 -83 -152
-359 -236 -572 -18 -44 -38 -94 -46 -112 -8 -17 -14 -37 -14 -45 0 -7 -7 -22
-15 -32 -8 -11 -15 -28 -15 -37 0 -10 -6 -30 -14 -46 -27 -55 -45 -101 -51
-137 -4 -20 -11 -36 -16 -36 -5 0 -8 3 -7 8 1 8 -9 39 -24 67 -8 16 -8 18 3 8
20 -19 32 -16 26 7 -3 11 -1 20 3 20 5 0 12 14 15 32 4 17 16 47 26 65 11 19
19 38 19 44 0 6 6 25 14 42 8 18 19 48 25 67 5 19 19 60 31 90 12 30 24 64 27
75 2 11 9 29 14 40 5 11 25 67 44 125 20 58 40 114 45 125 5 11 27 76 50 145
23 69 44 128 47 133 5 9 26 9 47 1z m516 -272 c16 -13 20 -23 14 -33 -5 -8
-83 -114 -174 -236 -91 -122 -194 -263 -230 -312 -36 -50 -68 -90 -72 -91 -19
-1 -2 35 70 145 152 232 174 266 220 343 94 154 127 202 138 202 7 0 22 -8 34
-18z m8174 12 c10 -4 16 -18 16 -39 0 -29 4 -34 28 -37 22 -2 28 -8 30 -36 3
-29 0 -33 -27 -38 l-30 -6 21 -28 c24 -33 19 -93 -10 -109 -13 -8 -8 -10 26
-11 39 0 42 2 42 28 1 67 12 258 16 270 2 9 17 12 41 10 34 -3 38 -6 41 -33 5
-62 11 -72 42 -78 27 -6 30 -11 30 -42 0 -30 -3 -35 -24 -35 -32 0 -35 -7 -37
-68 -2 -35 -7 -53 -17 -57 -12 -5 -12 -9 4 -26 27 -30 25 -93 -4 -121 -21 -21
-33 -23 -168 -26 -159 -4 -194 3 -213 44 -19 43 -14 80 17 106 l28 23 -28 27
c-35 33 -36 71 -3 103 l24 25 -23 0 c-32 0 -50 24 -42 55 5 18 13 25 31 25 22
0 25 4 25 34 0 19 6 37 13 39 18 8 133 8 151 1z m-276 -41 c-3 -33 -7 -38 -30
-41 -26 -3 -28 -7 -28 -50 0 -26 -3 -57 -6 -69 -5 -19 -2 -22 33 -25 37 -3 38
-4 38 -43 l0 -40 -80 -3 -81 -3 4 -34 4 -35 82 0 c44 0 87 -4 94 -9 8 -5 12
-22 10 -42 l-3 -34 -237 -3 c-131 -1 -239 1 -239 5 -7 46 -6 63 5 72 6 6 50
11 96 13 90 3 88 1 81 58 0 5 -36 10 -78 12 -77 3 -78 3 -81 31 -4 37 13 57
49 57 l28 0 -2 68 c-2 66 -2 67 -32 72 -22 4 -31 11 -33 28 -8 52 -7 52 208
52 l201 0 -3 -37z m1462 -83 c0 -89 -3 -109 -16 -114 -23 -9 -207 -7 -222 2
-9 6 -12 36 -10 113 3 96 4 104 23 104 15 0 21 -8 25 -35 l5 -35 70 0 70 0 3
30 c5 37 19 56 38 48 11 -4 14 -29 14 -113z m118 73 c3 -40 4 -42 40 -45 29
-2 37 -7 37 -23 0 -15 -8 -21 -35 -25 -35 -5 -35 -5 -41 -65 -3 -33 -2 -69 2
-80 4 -11 6 -56 5 -100 -1 -78 -2 -80 -26 -80 -24 0 -25 3 -28 73 l-3 72 -44
0 c-56 0 -75 8 -75 30 0 21 31 29 102 25 36 -2 47 0 39 8 -7 7 -11 58 -11 135
0 112 2 123 18 120 12 -2 18 -15 20 -45z m339 31 c9 -24 -15 -34 -89 -34 -67
0 -85 8 -74 35 8 23 154 21 163 -1z m186 9 c4 -7 12 -419 8 -450 -2 -21 -51
-16 -52 5 -2 83 3 437 7 444 6 10 31 11 37 1z m461 -9 c3 -9 6 -51 6 -95 l0
-79 35 0 c28 0 35 -4 35 -19 0 -15 -8 -21 -32 -23 l-33 -3 -5 -115 c-5 -110
-6 -115 -27 -118 l-23 -3 0 229 c0 126 3 232 7 235 11 12 31 7 37 -9z m-5139
-6 c3 -7 6 -47 7 -88 l3 -75 73 -3 72 -3 0 78 c0 43 4 84 9 91 5 8 23 12 47
10 l39 -3 3 -228 2 -228 -47 3 -48 3 -3 98 -3 97 -69 0 -69 0 -3 -97 -3 -98
-47 -3 -48 -3 0 230 0 231 40 0 c24 0 43 -5 45 -12z m3522 -3 c24 -17 38 -64
28 -95 -12 -39 -55 -50 -195 -50 -132 0 -162 6 -187 39 -20 26 -15 70 12 96
23 24 28 25 172 25 116 0 153 -3 170 -15z m1513 -5 c0 -19 -7 -20 -110 -20
l-110 0 0 -180 0 -179 118 -3 c111 -3 117 -4 120 -24 4 -29 -18 -34 -153 -34
-73 0 -115 4 -123 12 -13 13 -18 429 -5 441 3 4 64 7 135 7 121 0 128 -1 128
-20z m-4635 -40 l0 -45 -40 0 c-38 0 -40 2 -43 33 -5 53 3 64 45 60 38 -3 38
-3 38 -48z m345 -145 l5 -190 103 -3 c108 -3 130 -13 102 -47 -11 -13 -36 -15
-134 -13 l-121 3 -3 210 c-1 115 0 216 3 223 3 7 13 12 22 10 16 -3 19 -22 23
-193z m1190 29 l0 -165 -22 3 c-23 3 -23 6 -26 153 -1 82 0 155 2 162 3 7 15
13 26 13 19 0 20 -6 20 -166z m3375 1 c0 -153 -1 -160 -20 -160 -19 0 -20 8
-23 150 -1 82 0 155 3 163 3 7 13 12 22 10 16 -3 18 -19 18 -163z m-3874 145
c1 -5 3 -14 4 -20 1 -5 3 -32 4 -59 l1 -50 35 15 c41 17 75 18 108 3 43 -19
52 -52 52 -183 0 -118 -1 -121 -22 -124 -23 -3 -23 -2 -23 117 0 111 -2 122
-22 141 -26 24 -40 25 -78 5 -43 -22 -50 -43 -50 -154 0 -88 -2 -102 -19 -110
-15 -8 -21 -7 -27 7 -7 18 -5 401 3 415 6 11 33 9 34 -3z m-386 -36 c0 -19 -6
-30 -17 -32 -14 -3 -18 3 -18 26 0 16 3 32 7 36 14 13 28 -1 28 -30z m713 -37
c2 -15 6 -27 10 -28 23 -2 56 -10 60 -14 13 -13 -11 -35 -38 -35 l-31 0 2
-102 c1 -57 4 -109 6 -115 3 -7 18 -13 33 -13 34 0 46 -15 30 -35 -21 -25 -76
-19 -99 11 -18 23 -21 41 -21 140 0 109 -1 113 -22 116 -31 4 -36 35 -6 40 14
2 24 11 26 23 6 38 12 46 29 43 11 -2 19 -14 21 -31z m2779 18 c3 -9 2 -19 -2
-23 -9 -9 -251 -9 -261 0 -3 4 -4 14 -1 23 5 12 28 15 132 15 104 0 127 -3
132 -15z m-11673 -27 c2 -7 11 -58 21 -113 9 -55 23 -129 31 -165 16 -72 18
-110 6 -110 -10 0 -30 48 -38 95 -3 22 -10 45 -14 50 -4 6 -11 26 -14 45 -4
19 -11 44 -16 55 -12 29 -40 122 -40 134 0 8 11 12 53 20 4 0 9 -5 11 -11z
m908 -7 l24 -9 -44 -139 c-24 -76 -48 -146 -53 -155 -5 -10 -9 -28 -9 -42 0
-13 -7 -30 -16 -37 -15 -12 -16 -8 -9 51 4 36 14 85 21 110 8 25 14 55 14 66
0 36 32 164 40 164 5 0 19 -4 32 -9z m6625 -15 c2 -1 6 -297 4 -314 -1 -9 -15
-12 -48 -10 l-48 3 -3 40 c-2 22 -1 95 3 162 7 131 10 136 65 125 14 -3 26 -5
27 -6z m911 -7 l32 0 2 -137 c1 -75 2 -146 3 -157 2 -34 -16 -74 -42 -95 -19
-15 -41 -20 -87 -20 -69 0 -103 17 -93 44 6 15 15 16 63 10 63 -7 104 7 104
38 0 15 -3 17 -19 8 -56 -29 -150 9 -162 65 -11 50 -10 150 2 184 17 48 63 73
119 66 25 -3 60 -6 78 -6z m-258 -11 c0 -7 3 -70 6 -139 7 -141 -1 -178 -37
-159 -18 10 -19 19 -15 128 2 64 5 132 5 150 1 25 5 32 21 32 11 0 20 -6 20
-12z m3425 -18 c39 -24 55 -63 55 -137 0 -109 -48 -160 -142 -151 -86 9 -127
76 -113 187 6 44 14 62 40 88 28 28 40 33 80 33 30 0 60 -7 80 -20z m-898 -36
c3 -9 0 -20 -8 -25 -8 -5 -106 -9 -219 -9 -113 0 -211 4 -219 9 -8 5 -11 16
-8 25 6 14 34 16 227 16 193 0 221 -2 227 -16z m-2939 -21 c3 -22 1 -23 -92
-23 -86 0 -96 2 -96 18 0 30 10 33 100 30 80 -3 85 -4 88 -25z m-4899 -39 c21
-30 22 -37 10 -48 -8 -7 -86 -57 -174 -112 -88 -54 -188 -117 -223 -141 -35
-24 -65 -43 -68 -43 -2 0 -26 -16 -54 -35 -33 -23 -51 -31 -56 -23 -8 12 45
63 116 111 25 17 47 33 50 36 9 10 102 85 200 161 52 40 97 76 100 80 9 11 63
50 69 50 3 0 17 -16 30 -36z m8172 6 l60 0 -3 -57 -3 -58 -57 -3 c-42 -2 -58
-7 -58 -17 0 -10 17 -15 63 -17 56 -3 62 -5 65 -26 3 -22 2 -23 -90 -20 l-93
3 0 60 0 60 63 3 c75 4 83 22 9 22 -52 0 -77 12 -77 36 0 14 27 24 48 18 8 -2
40 -4 73 -4z m-373 -12 c6 -6 12 -30 12 -54 0 -23 -6 -46 -12 -51 -7 -4 -83
-9 -168 -10 -85 -1 -156 -5 -158 -10 -1 -4 76 -10 170 -13 165 -5 173 -6 173
-25 0 -19 -8 -20 -202 -23 l-203 -2 0 54 c0 33 5 58 13 63 6 4 82 9 167 10 99
1 156 5 158 12 3 8 -49 11 -162 11 -169 0 -201 7 -160 37 23 17 351 17 372 1z
m-12503 -188 c124 -93 229 -170 235 -170 5 0 10 -4 10 -10 0 -5 16 -17 35 -26
34 -16 45 -37 25 -49 -7 -5 -73 33 -196 113 -10 6 -26 15 -34 19 -8 3 -37 21
-65 38 -27 17 -103 63 -167 101 -65 37 -118 74 -118 82 0 12 39 72 47 72 2 0
104 -76 228 -170z m10893 41 c4 -28 -17 -45 -35 -29 -14 11 -17 40 -6 52 14
14 38 0 41 -23z m3380 -4 c3 -23 0 -27 -22 -27 -28 0 -37 17 -24 43 14 27 42
17 46 -16z m-13048 -287 c0 -5 -2 -10 -4 -10 -3 0 -8 5 -11 10 -3 6 -1 10 4
10 6 0 11 -4 11 -10z m-230 -20 c0 -5 -2 -10 -4 -10 -2 0 -12 -3 -22 -7 -16
-6 -17 -5 -4 10 17 19 30 22 30 7z m43 -7 c-7 -2 -19 -2 -25 0 -7 3 -2 5 12 5
14 0 19 -2 13 -5z m417 -3 c0 -5 -4 -10 -10 -10 -5 0 -10 5 -10 10 0 6 5 10
10 10 6 0 10 -4 10 -10z m-125 -20 c10 -11 13 -20 7 -20 -6 0 -16 9 -22 20 -6
11 -9 20 -7 20 2 0 12 -9 22 -20z m-670 0 c3 -5 2 -10 -4 -10 -5 0 -13 5 -16
10 -3 6 -2 10 4 10 5 0 13 -4 16 -10z m850 -9 c-3 -6 -11 -11 -16 -11 -5 0 -4
6 3 14 14 16 24 13 13 -3z m1159 4 c3 -8 1 -15 -4 -15 -6 0 -10 7 -10 15 0 8
2 15 4 15 2 0 6 -7 10 -15z m890 -1 c5 -14 4 -15 -9 -4 -17 14 -19 20 -6 20 5
0 12 -7 15 -16z m212 -11 c-8 -8 -36 5 -36 17 0 7 6 7 21 0 11 -7 18 -14 15
-17z m-3566 1 c0 -2 -9 -4 -20 -4 -11 0 -20 4 -20 9 0 5 9 7 20 4 11 -3 20 -7
20 -9z m537 10 c-3 -3 -12 -4 -19 -1 -8 3 -5 6 6 6 11 1 17 -2 13 -5z m278 -4
c3 -5 1 -10 -4 -10 -6 0 -11 5 -11 10 0 6 2 10 4 10 3 0 8 -4 11 -10z m1443
-4 c-7 -8 -15 -12 -17 -11 -5 6 10 25 20 25 5 0 4 -6 -3 -14z m7442 10 c0 -3
-4 -8 -10 -11 -5 -3 -10 -1 -10 4 0 6 5 11 10 11 6 0 10 -2 10 -4z m-8214 -72
c-3 -8 -10 -14 -17 -14 -6 0 -8 7 -5 17 4 9 2 19 -4 23 -6 4 -8 15 -4 25 6 15
9 14 21 -10 8 -14 12 -33 9 -41z m207 59 c-7 -2 -21 -2 -30 0 -10 3 -4 5 12 5
17 0 24 -2 18 -5z m720 -8 c-3 -9 -8 -14 -10 -11 -3 3 -2 9 2 15 9 16 15 13 8
-4z m4054 9 c-3 -3 -12 -4 -19 -1 -8 3 -5 6 6 6 11 1 17 -2 13 -5z m-5559 -23
c3 -8 -1 -12 -9 -9 -7 2 -15 10 -17 17 -3 8 1 12 9 9 7 -2 15 -10 17 -17z
m945 7 c4 -10 8 -10 15 1 8 11 16 12 33 5 15 -7 19 -13 11 -18 -7 -4 -12 -2
-12 6 0 7 -9 2 -19 -12 -16 -20 -21 -22 -35 -11 -17 15 -22 41 -7 41 5 0 12
-6 14 -12z m1432 2 c3 -5 -3 -10 -15 -10 -12 0 -18 5 -15 10 3 6 10 10 15 10
5 0 12 -4 15 -10z m-3142 -7 c-13 -2 -33 -2 -45 0 -13 2 -3 4 22 4 25 0 35 -2
23 -4z m457 -3 c0 -5 -4 -10 -9 -10 -6 0 -13 5 -16 10 -3 6 1 10 9 10 9 0 16
-4 16 -10z m3418 3 c-15 -2 -42 -2 -60 0 -18 2 -6 4 27 4 33 0 48 -2 33 -4z
m2615 0 c-7 -2 -19 -2 -25 0 -7 3 -2 5 12 5 14 0 19 -2 13 -5z m135 0 c-16 -2
-40 -2 -55 0 -16 2 -3 4 27 4 30 0 43 -2 28 -4z m-5907 -20 c12 -16 12 -17 -2
-5 -9 7 -24 10 -33 6 -9 -3 -16 -1 -16 5 0 17 36 13 51 -6z m429 2 c0 -8 5
-15 10 -15 6 0 10 5 10 10 0 6 5 10 10 10 11 0 14 -30 3 -30 -5 0 -19 -3 -32
-7 -21 -5 -23 -3 -19 15 4 15 2 19 -8 15 -8 -3 -14 0 -14 6 0 6 9 11 20 11 11
0 20 -7 20 -15z m700 5 c0 -5 -5 -10 -11 -10 -5 0 -7 5 -4 10 3 6 8 10 11 10
2 0 4 -4 4 -10z m834 -5 c4 -12 -4 -14 -44 -12 -59 2 -66 14 -12 20 20 2 40 4
43 5 4 1 9 -5 13 -13z m112 3 c5 -7 2 -9 -9 -5 -9 3 -18 1 -21 -6 -5 -9 -7 -9
-12 0 -3 7 -12 9 -21 6 -11 -4 -14 -2 -9 5 4 7 20 12 36 12 16 0 32 -5 36 -12z
m2294 3 c0 -11 -88 -26 -97 -17 -4 3 1 6 11 6 9 0 14 5 11 10 -4 6 10 10 34
10 23 0 41 -4 41 -9z m-3295 -11 c3 -5 -1 -10 -10 -10 -9 0 -13 5 -10 10 3 6
8 10 10 10 2 0 7 -4 10 -10z m7141 -1 c4 -8 32 -10 81 -7 51 4 73 2 70 -6 -5
-14 -246 -21 -260 -7 -18 18 4 31 53 31 27 0 52 -5 56 -11z m-3278 -6 c-15 -2
-42 -2 -60 0 -18 2 -6 4 27 4 33 0 48 -2 33 -4z m75 0 c-7 -2 -21 -2 -30 0
-10 3 -4 5 12 5 17 0 24 -2 18 -5z m120 0 c-7 -2 -19 -2 -25 0 -7 3 -2 5 12 5
14 0 19 -2 13 -5z m195 0 c-10 -2 -26 -2 -35 0 -10 3 -2 5 17 5 19 0 27 -2 18
-5z m3352 -28 c0 -12 -21 -25 -40 -25 -5 0 -3 13 3 30 8 22 14 27 24 18 7 -6
13 -16 13 -23z m337 29 c-3 -3 -12 -4 -19 -1 -8 3 -5 6 6 6 11 1 17 -2 13 -5z
m1510 -50 c-2 -3 -11 -2 -20 2 -15 5 -15 8 1 32 l17 26 3 -28 c2 -15 2 -30 -1
-32z m417 47 c3 -5 -1 -14 -9 -21 -13 -10 -15 -9 -15 9 0 21 14 28 24 12z
m-7689 -11 c-3 -5 -16 -15 -28 -21 -22 -12 -22 -12 -3 10 19 21 43 30 31 11z
m3999 -6 c6 -14 -16 -15 -225 -11 -153 3 -234 8 -242 16 -8 8 48 11 225 11
207 0 237 -2 242 -16z m452 -16 c1 -24 -3 -28 -26 -28 -18 0 -27 5 -27 18 -2
32 7 43 29 40 17 -2 23 -10 24 -30z m269 22 c-8 -13 -65 -13 -85 0 -11 7 0 10
38 10 33 0 51 -4 47 -10z m1175 -5 c0 -9 6 -12 15 -9 9 4 23 -3 34 -15 20 -23
47 -28 53 -9 2 6 13 13 24 15 68 15 125 19 169 13 l50 -7 -67 -2 c-53 -1 -68
-4 -68 -16 0 -10 10 -15 29 -15 16 0 31 -5 33 -11 4 -12 150 -16 315 -10 69 3
72 4 75 30 2 20 8 26 28 26 20 0 26 -6 28 -27 3 -29 20 -36 39 -17 8 8 58 7
180 -2 119 -9 207 -10 300 -3 114 8 130 7 126 -6 -4 -12 -2 -12 9 1 7 9 19 14
26 12 7 -3 12 4 12 16 0 21 17 37 28 26 3 -3 0 -10 -7 -14 -8 -5 -11 -17 -6
-30 5 -16 2 -21 -13 -21 -15 0 -18 -5 -14 -27 4 -21 2 -25 -12 -20 -9 4 -16 2
-16 -3 0 -19 37 -10 48 13 10 21 11 20 11 -12 1 -25 -3 -32 -13 -28 -20 8 -36
-15 -37 -49 -1 -16 4 -110 10 -209 14 -236 14 -242 -1 -227 -14 14 -493 18
-501 4 -3 -4 -8 -70 -12 -147 -3 -77 -8 -155 -11 -172 l-5 -33 -124 0 -125 0
0 196 c0 115 -4 203 -10 215 -10 18 -24 19 -250 19 -218 0 -239 -1 -244 -17
-7 -21 -20 -85 -41 -198 -8 -44 -21 -109 -28 -145 l-13 -65 -57 -3 c-35 -2
-57 1 -57 7 0 6 11 64 25 128 32 149 33 223 5 230 -22 6 -23 -4 16 153 15 58
29 121 31 140 3 19 9 40 13 45 5 6 11 31 15 57 8 54 -6 77 -42 70 -21 -4 -23
-1 -23 40 0 53 8 65 27 38 14 -19 14 -19 33 0 21 21 27 50 10 50 -5 0 -10 -6
-10 -14 0 -30 -20 -26 -27 4 -4 22 -8 28 -14 18 -7 -10 -9 -10 -9 3 0 9 3 19
7 22 12 12 33 7 33 -8z m1735 4 c12 -18 -3 -22 -20 -5 -14 14 -14 16 -1 16 8
0 18 -5 21 -11z m600 0 c-9 -13 14 -69 27 -69 6 0 8 -16 6 -35 -3 -24 0 -35 9
-35 7 0 13 -4 13 -9 0 -6 -19 -11 -42 -13 -37 -3 -44 -7 -46 -27 -2 -13 3 -47
11 -75 32 -109 70 -285 64 -300 -4 -10 -16 -14 -34 -12 -15 2 -44 4 -63 5 -36
1 -36 1 -49 63 -7 35 -18 66 -24 70 -17 11 -65 10 -88 -2 -18 -10 -19 -23 -18
-198 0 -169 4 -216 25 -319 l6 -33 -96 0 c-91 0 -97 -1 -105 -22 -5 -13 -8
-129 -6 -259 4 -272 10 -300 71 -325 31 -13 108 -15 532 -13 l497 2 -4 221
c-4 249 -3 250 66 244 l38 -3 3 -92 3 -93 100 0 c96 0 100 -1 110 -24 7 -14 9
-36 5 -50 -6 -25 -8 -25 -109 -28 l-102 -3 -3 -45 c-2 -24 -1 -59 3 -77 8 -43
49 -55 170 -51 l90 3 3 219 c1 141 6 224 13 233 12 14 56 17 83 7 14 -5 16
-39 16 -278 l0 -273 -359 -6 c-198 -4 -416 -4 -485 0 l-125 6 -6 -25 c-4 -13
-5 -44 -3 -69 l3 -44 96 -5 c61 -3 102 -10 113 -19 14 -12 16 -33 14 -155 l-3
-141 -230 -5 -230 -5 -1 -45 c-1 -25 1 -51 3 -57 4 -9 65 -13 242 -15 l236 -3
3 -42 c3 -34 -1 -44 -18 -53 -33 -18 -531 -10 -553 9 -14 11 -17 36 -17 162
l0 149 230 0 230 0 0 60 0 60 -231 0 -230 0 3 48 3 47 115 5 115 5 0 65 0 65
-236 0 -235 0 -41 27 c-28 18 -50 45 -68 82 l-27 55 1 302 c1 166 4 306 7 310
3 5 28 9 55 9 l50 0 -6 58 c-17 134 -18 136 -50 137 -37 0 -41 28 -5 33 37 5
43 16 31 54 -10 31 -32 232 -32 290 0 15 -4 30 -9 33 -6 4 -10 37 -10 74 0 60
-3 71 -22 84 -22 15 -22 16 -3 17 19 1 19 2 -1 10 -12 4 -24 18 -27 29 -4 17
-2 19 13 11 15 -8 17 -6 14 8 -5 16 13 17 231 20 174 3 240 1 250 -8 12 -10
15 -9 15 6 0 11 -4 26 -10 34 -5 9 -5 19 2 27 13 16 32 17 23 2z m3335 -11 c0
-6 -6 -5 -15 2 -8 7 -15 14 -15 16 0 2 7 1 15 -2 8 -4 15 -11 15 -16z m61 6
c10 -13 10 -17 -2 -24 -9 -6 -15 -5 -18 3 -2 7 -8 18 -14 25 -15 19 18 15 34
-4z m-9953 -1 c-10 -2 -28 -2 -40 0 -13 2 -5 4 17 4 22 1 32 -1 23 -4z m3892
-36 c0 -4 -7 -2 -15 7 -8 8 -15 21 -15 28 1 14 30 -20 30 -35z m210 33 c0 -5
-4 -10 -10 -10 -5 0 -10 5 -10 10 0 6 5 10 10 10 6 0 10 -4 10 -10z m1935 -26
c-23 -23 -32 -8 -9 17 10 11 20 16 22 10 2 -6 -4 -18 -13 -27z m675 26 c0 -5
-6 -10 -14 -10 -8 0 -17 -6 -19 -12 -4 -8 -6 -7 -6 4 -1 9 7 19 17 21 9 3 18
5 20 6 1 0 2 -3 2 -9z m2748 -17 c3 -19 -2 -20 -79 -21 -45 -1 -87 -6 -93 -12
-5 -5 -50 -10 -100 -10 -49 0 -86 -3 -83 -7 11 -11 210 -3 225 9 9 8 19 8 36
-2 13 -6 38 -13 55 -15 18 -1 37 -7 44 -14 6 -6 17 -11 24 -11 7 0 13 -5 13
-11 0 -6 7 -4 15 5 8 8 15 18 15 22 0 4 -3 5 -6 1 -13 -12 -32 18 -23 36 15
27 49 22 49 -7 0 -14 5 -28 10 -31 6 -3 7 -17 4 -31 -4 -15 -2 -24 6 -24 6 0
9 4 6 9 -9 15 18 19 31 5 16 -15 17 -28 3 -19 -6 4 -17 2 -24 -4 -9 -7 -22 -8
-37 -3 -68 24 -74 -19 -12 -95 19 -23 30 -43 24 -43 -12 0 -10 -14 7 -58 3
-10 -6 -12 -37 -11 -23 2 -45 -1 -51 -7 -5 -5 -11 -63 -12 -129 l-3 -120 -59
-3 c-48 -3 -59 -7 -63 -23 -7 -24 -15 -24 -31 1 -12 20 -21 20 -260 18 l-247
-3 -3 -44 c-3 -39 4 -56 64 -154 63 -104 66 -111 49 -123 -11 -8 -27 -14 -36
-14 -10 0 -21 -4 -24 -10 -16 -25 -38 -2 -96 100 -59 106 -63 111 -90 105 -49
-11 -46 15 9 67 57 54 57 56 -1 145 -15 24 -27 45 -27 47 0 3 -24 45 -53 94
-30 49 -57 97 -60 106 -14 35 -109 174 -123 180 -9 3 -25 -5 -39 -22 -21 -23
-26 -25 -35 -12 -15 24 -12 48 9 60 23 12 34 13 28 3 -8 -13 51 -9 64 4 18 18
9 23 -50 30 -81 9 -82 28 -1 28 37 0 66 -3 63 -7 -2 -5 8 -8 22 -8 15 0 24 4
20 10 -4 6 10 10 34 10 40 0 41 -1 41 -35 0 -36 15 -46 38 -23 9 9 17 10 30 1
14 -8 23 -7 37 3 14 11 64 14 199 16 100 1 156 3 126 5 -30 3 -60 9 -66 14
-18 15 -241 14 -259 -1 -12 -10 -22 -9 -48 4 -17 8 -27 16 -22 18 12 2 501 8
590 7 33 0 90 -2 127 -3 38 -1 64 2 61 7 -3 5 0 8 8 5 8 -3 20 2 28 9 17 18
35 12 39 -14z m-5406 -25 c-9 -9 -12 -9 -12 0 0 6 -7 9 -16 5 -14 -5 -14 -3
-3 15 12 19 15 20 28 7 12 -12 13 -17 3 -27z m616 35 c-10 -2 -26 -2 -35 0
-10 3 -2 5 17 5 19 0 27 -2 18 -5z m778 -11 c-60 -1 -113 1 -117 5 -5 4 45 6
109 3 l117 -5 -109 -3z m289 8 c3 -5 1 -10 -4 -10 -6 0 -11 5 -11 10 0 6 2 10
4 10 3 0 8 -4 11 -10z m2470 0 c-3 -5 3 -10 14 -10 12 0 21 -5 21 -11 0 -12
-59 -2 -75 13 -6 6 -3 7 9 2 13 -5 17 -4 12 4 -4 7 -1 12 9 12 9 0 13 -4 10
-10z m1105 0 c0 -5 -5 -10 -11 -10 -5 0 -7 5 -4 10 3 6 8 10 11 10 2 0 4 -4 4
-10z m390 -23 c0 -5 -4 -5 -10 -2 -5 3 -10 14 -10 23 0 15 2 15 10 2 5 -8 10
-19 10 -23z m-3913 1 c-3 -8 -6 -5 -6 6 -1 11 2 17 5 13 3 -3 4 -12 1 -19z
m609 13 c-7 -10 -81 -9 -92 2 -4 4 16 7 45 7 29 0 50 -4 47 -9z m348 -6 c-7
-16 -24 -21 -24 -6 0 8 7 13 27 20 1 1 0 -6 -3 -14z m616 5 c0 -5 -7 -7 -15
-4 -8 4 -15 8 -15 10 0 2 7 4 15 4 8 0 15 -4 15 -10z m610 0 c0 -5 -20 -10
-44 -10 -25 0 -48 5 -51 10 -4 6 13 10 44 10 28 0 51 -4 51 -10z m2635 0 c-3
-5 -28 -10 -55 -10 -27 0 -52 5 -55 10 -4 6 17 10 55 10 38 0 59 -4 55 -10z
m-954 -23 c-10 -9 -11 -8 -5 6 3 10 9 15 12 12 3 -3 0 -11 -7 -18z m1707 4 c3
-8 -1 -12 -9 -9 -7 2 -15 10 -17 17 -3 8 1 12 9 9 7 -2 15 -10 17 -17z m-8455
2 c-18 -2 -48 -2 -65 0 -18 2 -4 4 32 4 36 0 50 -2 33 -4z m8125 0 c100 -3
179 -10 176 -15 -11 -18 -474 -5 -474 14 0 10 59 10 298 1z m412 -3 c8 -5 11
-10 5 -10 -5 0 -17 5 -25 10 -8 5 -10 10 -5 10 6 0 17 -5 25 -10z m-4426 -15
c3 -8 1 -15 -4 -15 -6 0 -10 7 -10 15 0 8 2 15 4 15 2 0 6 -7 10 -15z m1076 5
c0 -5 6 -7 13 -4 7 2 30 -2 50 -11 47 -19 57 -19 57 2 0 13 3 14 12 5 7 -7 17
-8 29 -1 15 8 45 1 77 -17 6 -3 -11 -34 -20 -34 -5 0 -7 4 -3 9 8 14 -30 32
-49 25 -20 -8 -34 -56 -18 -62 14 -4 16 -58 3 -66 -12 -8 -22 20 -15 39 4 8 1
15 -5 15 -6 0 -11 -7 -11 -15 0 -10 -8 -7 -26 10 -15 14 -35 25 -45 25 -13 0
-19 7 -19 22 0 17 -3 19 -12 10 -9 -9 -9 -15 -1 -23 8 -8 8 -18 1 -35 -8 -18
-8 -27 3 -40 15 -19 21 -28 72 -123 31 -59 37 -80 37 -130 l0 -61 -104 0 c-80
0 -106 -3 -116 -15 -19 -22 -4 -92 35 -173 19 -39 35 -75 35 -81 0 -5 -19 -14
-42 -18 -40 -8 -43 -11 -46 -45 -2 -20 4 -58 12 -83 9 -25 16 -48 16 -50 0 -2
-15 -5 -32 -7 l-33 -3 0 -255 c0 -239 1 -257 21 -295 35 -67 27 -67 659 -63
505 3 564 5 605 21 51 20 94 58 117 102 20 38 34 155 20 173 -6 8 -41 12 -109
12 l-99 0 3 48 3 47 240 3 c132 1 250 0 263 -3 19 -5 22 -12 22 -49 l0 -45
-52 -11 c-36 -8 -66 -9 -94 -2 -61 14 -68 6 -60 -69 14 -126 70 -192 185 -214
l56 -11 3 -49 3 -48 -69 5 c-81 6 -158 43 -203 97 l-28 35 -38 -41 c-21 -23
-65 -54 -98 -70 l-60 -28 -300 0 -300 0 -3 -77 -3 -76 101 -4 c87 -2 104 -6
116 -22 16 -22 19 -138 8 -294 l-7 -92 -48 0 -49 0 0 150 c0 147 0 150 -22
155 -13 3 -117 5 -233 3 l-210 -3 0 50 0 50 118 3 118 3 -3 77 -3 77 -270 0
c-312 0 -319 2 -367 90 -42 77 -50 152 -46 435 l3 255 48 3 c31 2 47 8 47 16
0 15 -20 66 -56 144 -13 29 -24 55 -24 58 0 15 -135 320 -144 326 -6 4 -32 8
-58 8 -39 0 -48 -4 -53 -21 -4 -12 -4 -98 0 -190 5 -110 4 -169 -3 -169 -5 0
-19 28 -31 63 -39 111 -40 112 -96 112 l-50 0 -5 -138 -5 -138 -18 50 -18 51
-69 0 c-60 0 -69 3 -75 20 -5 16 -10 18 -25 10 -10 -6 -55 -10 -100 -10 -72 0
-81 2 -78 18 3 14 17 17 96 20 50 1 92 4 92 6 0 2 -9 29 -21 62 -27 78 -88
271 -98 309 -11 43 -32 106 -44 132 -5 12 -7 28 -4 36 3 9 -1 18 -9 21 -13 5
-13 9 1 36 11 22 22 29 40 28 20 -2 24 -7 20 -23 -5 -19 -5 -19 7 1 12 21 20
22 133 20 66 -1 126 -5 133 -10 21 -13 353 -8 369 6 8 6 36 9 71 6 31 -3 82
-2 112 2 85 11 170 11 170 0z m-2200 -10 c0 -5 -5 -10 -11 -10 -5 0 -7 5 -4
10 3 6 8 10 11 10 2 0 4 -4 4 -10z m-2154 -37 c-11 -11 -19 6 -11 24 8 17 8
17 12 0 3 -10 2 -21 -1 -24z m294 33 c0 -3 -4 -8 -10 -11 -5 -3 -10 -1 -10 4
0 6 5 11 10 11 6 0 10 -2 10 -4z m5660 -6 c0 -5 -2 -10 -4 -10 -3 0 -8 5 -11
10 -3 6 -1 10 4 10 6 0 11 -4 11 -10z m-5533 -72 c-3 -8 -6 -5 -6 6 -1 11 2
17 5 13 3 -3 4 -12 1 -19z m-309 -381 c3 -82 2 -87 -18 -87 -18 0 -20 6 -20
83 0 46 3 87 7 91 19 19 28 -8 31 -87z m3097 70 c3 -12 5 -52 3 -87 -3 -57 -5
-65 -23 -65 -18 0 -20 8 -23 65 -4 77 3 110 23 110 8 0 17 -10 20 -23z m-1055
-42 c0 -25 -23 -35 -35 -15 -10 16 2 40 20 40 9 0 15 -9 15 -25z m4295 0 c0
-11 -8 -21 -17 -23 -14 -3 -18 3 -18 23 0 20 4 26 18 23 9 -2 17 -12 17 -23z
m-6479 -47 c55 -51 70 -76 55 -91 -14 -14 -137 105 -127 122 12 18 24 13 72
-31z m321 26 c6 -17 -91 -124 -114 -124 -31 0 -21 27 33 81 62 63 71 68 81 43z
m2747 -6 c8 -13 7 -21 -1 -29 -16 -16 -54 16 -46 37 7 19 33 14 47 -8z m351
11 c10 -14 -24 -49 -41 -42 -17 6 -18 25 -2 41 15 15 35 15 43 1z m-1075 -35
c0 -19 -28 -30 -42 -16 -8 8 -8 15 1 26 14 17 41 10 41 -10z m3990 -10 c0 -18
-36 -18 -43 0 -8 20 13 38 30 25 7 -7 13 -18 13 -25z m-4295 16 c4 -6 1 -17
-5 -26 -14 -16 -40 -2 -40 22 0 16 36 19 45 4z m145 -45 c0 -25 -23 -35 -35
-15 -10 16 2 40 20 40 9 0 15 -9 15 -25z m4298 -3 c3 -16 -2 -22 -16 -22 -22
0 -32 17 -24 38 7 20 37 9 40 -16z m-3340 -4 c16 -16 15 -48 -1 -48 -19 0 -50
37 -42 49 8 14 28 14 43 -1z m197 1 c8 -12 -23 -49 -42 -49 -7 0 -13 8 -13 18
0 33 40 56 55 31z m-1237 -27 c3 -19 -1 -23 -15 -20 -10 2 -19 14 -21 26 -3
19 1 23 15 20 10 -2 19 -14 21 -26z m175 14 c6 -15 -11 -36 -29 -36 -17 0 -24
26 -11 39 15 15 34 14 40 -3z m4117 -1 c13 -16 6 -35 -15 -35 -18 0 -28 17
-21 35 7 19 20 19 36 0z m178 -8 c4 -21 -25 -34 -40 -19 -8 8 -8 16 2 27 16
19 34 15 38 -8z m-1690 -69 c-2 -48 -7 -63 -18 -63 -11 0 -16 15 -18 63 -3 57
-1 62 18 62 19 0 21 -5 18 -62z m-4708 -18 l0 -50 -50 0 -50 0 0 50 0 50 50 0
50 0 0 -50z m2045 0 l0 -45 -50 0 c-49 0 -50 0 -53 33 -5 55 2 63 55 60 l48
-3 0 -45z m1050 -5 l0 -50 -45 4 c-25 1 -48 5 -52 8 -10 5 -10 77 -1 87 4 4
28 6 53 4 l45 -3 0 -50z m3249 39 c10 -26 -5 -83 -23 -88 -9 -3 -32 -2 -51 2
-30 7 -35 12 -38 41 -5 53 2 61 57 61 36 0 51 -4 55 -16z m-1750 -43 c36 -36
41 -61 13 -61 -16 0 -87 71 -87 87 0 25 36 12 74 -26z m-4739 9 c0 -12 -18
-16 -87 -18 -83 -3 -88 -2 -88 18 0 20 5 21 88 18 69 -2 87 -6 87 -18z m368 6
c9 -23 -2 -26 -90 -26 -76 0 -83 2 -83 20 0 18 7 20 84 20 63 0 85 -4 89 -14z
m1583 2 c4 -6 -4 -19 -19 -30 l-27 -20 5 -166 c4 -121 3 -160 -5 -143 -11 26
-30 219 -30 314 l0 57 34 0 c19 0 38 -5 42 -12z m92 -11 c3 -12 -3 -17 -22
-17 -25 0 -35 18 -19 34 12 12 38 2 41 -17z m242 3 c0 -15 -7 -20 -25 -20 -24
0 -34 18 -18 33 15 15 43 7 43 -13z m808 -2 c3 -16 -6 -18 -82 -18 -47 0 -88
5 -91 10 -14 23 10 31 88 28 69 -3 82 -6 85 -20z m3150 -1 c2 -11 -3 -17 -17
-17 -23 0 -35 15 -26 31 10 15 39 6 43 -14z m92 3 c0 -21 -33 -29 -45 -10 -9
15 4 30 26 30 12 0 19 -7 19 -20z m-6303 -76 c6 -17 -91 -124 -114 -124 -31 0
-21 27 33 81 62 63 71 68 81 43z m209 -35 c51 -49 70 -89 41 -89 -19 0 -130
116 -123 129 12 19 26 12 82 -40z m1832 29 c-4 -29 -38 -38 -38 -10 0 22 8 32
27 32 9 0 13 -8 11 -22z m170 7 c4 -9 5 -39 1 -68 -4 -29 -5 -74 -2 -102 8
-102 12 -141 19 -187 4 -35 3 -48 -6 -48 -8 0 -10 9 -6 25 4 14 2 25 -4 25 -5
0 -10 -7 -10 -15 0 -9 -7 -18 -15 -21 -11 -5 -12 -11 -5 -24 13 -24 13 -40 0
-20 -7 11 -10 -6 -11 -55 -1 -38 -4 -151 -8 -250 l-6 -180 -50 0 -50 0 -3 197
-2 197 -54 -6 c-30 -3 -65 -3 -78 0 -21 6 -23 12 -22 53 1 27 8 50 15 55 8 5
42 9 76 9 l63 0 2 198 3 197 50 3 c30 2 53 9 58 18 11 19 34 18 45 -1z m885 1
c7 -17 -23 -46 -46 -46 -22 0 -22 18 0 42 19 22 39 23 46 4z m169 -3 c10 -9
18 -29 18 -45 0 -24 4 -28 29 -28 31 0 57 -22 46 -40 -4 -7 -18 -9 -31 -6 -26
7 -27 4 -24 -51 1 -31 0 -32 -42 -35 l-43 -3 -5 -240 -5 -240 -257 -3 c-224
-2 -258 0 -272 14 -14 14 -16 45 -14 242 l3 227 45 0 45 0 3 -70 c2 -40 8 -73
15 -77 7 -4 70 -8 140 -8 l128 0 -3 -47 -3 -48 -135 -5 -135 -5 0 -60 0 -60
167 -3 168 -2 2 287 3 288 47 3 c25 2 52 10 58 18 16 18 29 18 52 -3z m3072 8
c9 -14 -4 -41 -19 -41 -18 0 -26 15 -19 34 7 17 29 21 38 7z m-6223 -221 c3
-107 6 -196 7 -197 1 -1 37 -3 80 -5 l77 -3 0 -45 0 -45 -80 -5 -80 -5 1 -106
c2 -114 15 -158 57 -181 33 -19 1121 -19 1192 0 102 27 154 97 163 214 5 79 9
76 -128 80 l-85 3 -3 33 c-6 62 -5 62 267 62 135 0 252 -4 259 -9 8 -5 12 -23
10 -47 l-3 -39 -100 -5 -100 -5 -3 -52 c-5 -78 13 -129 62 -178 36 -35 55 -46
107 -57 l64 -14 3 -47 3 -47 -48 0 c-70 0 -140 29 -198 82 l-52 47 -39 -40
c-21 -23 -64 -53 -94 -67 l-55 -27 -305 0 -305 0 -3 -77 -3 -76 101 -4 c87 -2
104 -6 116 -22 11 -15 14 -61 14 -203 l0 -183 -49 0 c-35 0 -51 4 -55 16 -3 9
-6 76 -6 150 0 100 -3 134 -12 135 -7 0 -112 1 -233 2 l-220 2 -3 44 c-2 28 1
47 10 52 7 5 61 9 120 9 l106 0 4 58 c7 104 27 97 -258 97 -238 0 -251 1 -291
22 -90 48 -113 116 -113 332 0 114 -4 162 -13 176 -10 15 -12 37 -6 85 4 36
11 110 14 165 4 55 9 106 11 113 2 9 18 12 46 10 l43 -3 6 -195z m4749 55 l5
-140 118 -3 117 -3 0 -49 0 -50 -120 0 c-135 0 -137 -1 -105 -77 29 -69 68
-96 175 -123 l65 -16 3 -42 3 -42 -48 0 c-74 0 -165 35 -220 85 l-48 42 -49
-43 c-58 -50 -140 -83 -216 -87 l-55 -2 0 44 0 44 63 13 c116 24 183 83 193
169 l4 30 -120 5 -120 5 0 45 0 45 120 5 120 5 3 130 c1 72 4 136 7 143 3 9
20 12 52 10 l48 -3 5 -140z m-2890 71 c-7 -9 -17 -16 -22 -16 -16 0 -21 30 -7
46 11 13 14 13 27 0 13 -12 13 -18 2 -30z m-3652 6 c2 -14 -2 -22 -12 -22 -19
0 -29 17 -22 36 8 22 30 12 34 -14z m3959 12 c3 -8 1 -20 -6 -27 -14 -14 -47
15 -37 32 10 16 36 13 43 -5z m3993 2 c0 -7 -6 -19 -14 -25 -19 -16 -41 10
-24 27 16 16 38 15 38 -2z m-3262 -22 c-5 -25 -35 -41 -49 -27 -9 9 -9 16 1
28 17 21 52 20 48 -1z m-4631 -40 c8 -21 -13 -42 -28 -27 -13 13 -5 43 11 43
6 0 13 -7 17 -16z m7856 -383 c4 -209 4 -387 1 -395 -8 -20 -104 -23 -104 -3
-1 6 0 93 0 193 1 139 -2 183 -12 192 -8 6 -41 12 -73 14 l-60 3 -3 39 c-4 49
6 56 86 56 l62 0 0 140 0 140 48 0 49 0 6 -379z m-7878 289 c0 -11 -15 -16
-62 -18 -58 -3 -63 -1 -63 18 0 19 5 21 63 18 47 -2 62 -7 62 -18z m22 -76 c9
-23 -13 -40 -32 -24 -12 10 -13 16 -4 26 15 18 28 18 36 -2z m-5147 -46 c0 -5
-6 -8 -14 -8 -7 0 -21 -11 -29 -23 -11 -17 -26 -24 -51 -25 -20 -1 -36 3 -36
7 0 5 8 7 18 5 24 -7 62 31 62 62 0 25 0 25 25 7 13 -10 25 -21 25 -25z
m-1994 -25 c-10 -10 -19 5 -10 18 6 11 8 11 12 0 2 -7 1 -15 -2 -18z m7084 8
c0 -11 -5 -23 -11 -27 -15 -9 -33 12 -26 30 9 23 37 20 37 -3z m2661 2 c10
-12 15 -59 17 -175 2 -88 1 -171 -2 -184 -6 -23 -11 -25 -54 -22 l-47 3 -3
148 -3 147 -203 0 c-113 0 -211 3 -220 6 -16 6 -23 73 -9 87 3 4 120 7 258 7
223 0 254 -2 266 -17z m-9424 -189 c2 -7 -50 -17 -144 -28 -227 -26 -542 -68
-641 -84 -47 -8 -54 -7 -63 10 -6 10 -9 27 -7 36 3 15 26 19 163 29 337 24
558 43 564 48 10 10 124 0 128 -11z m1938 -14 c50 -6 128 -14 175 -20 47 -5
153 -16 235 -25 327 -35 345 -37 346 -49 2 -19 -2 -41 -10 -49 -4 -4 -88 7
-187 23 -188 32 -303 50 -469 75 -90 13 -139 22 -227 41 -41 9 -34 23 10 18
20 -2 78 -9 127 -14z m-1888 -96 c2 -6 -4 -14 -14 -17 -77 -23 -200 -57 -210
-57 -7 0 -13 11 -13 24 0 19 7 25 38 30 20 4 64 13 97 21 68 15 97 15 102 -1z
m-1478 -33 c21 -13 4 -18 -134 -40 -72 -12 -210 -35 -309 -53 -175 -31 -179
-31 -193 -12 -8 10 -13 33 -11 49 l3 30 267 12 c147 6 278 13 290 16 40 8 73
7 87 -2z m3118 -140 c98 -48 193 -93 211 -100 19 -8 32 -20 32 -31 0 -30 -22
-29 -75 3 -50 30 -68 40 -200 112 -38 21 -86 49 -105 61 -19 13 -38 24 -43 24
-5 0 -16 7 -25 16 -15 15 -14 16 5 10 12 -4 102 -46 200 -95z m1852 64 c336
-25 363 -27 368 -40 2 -7 0 -28 -5 -46 -7 -30 -12 -34 -38 -31 -32 4 -207 37
-269 52 -22 5 -92 19 -155 30 -160 29 -210 42 -203 53 3 5 28 6 56 3 28 -4
139 -14 246 -21z m-1224 -5 c22 -5 72 -16 110 -25 39 -9 99 -22 135 -29 36 -8
94 -21 130 -29 36 -8 184 -40 328 -71 145 -31 268 -58 272 -61 8 -5 -3 -62
-14 -72 -3 -3 -35 4 -73 15 -122 37 -272 79 -593 167 -173 47 -331 92 -350
100 -31 12 -32 14 -10 14 14 0 43 -4 65 -9z m-3031 -69 c5 -7 -51 -28 -119
-44 -11 -3 -139 -40 -285 -82 -146 -43 -279 -80 -296 -82 -28 -4 -32 -2 -38
28 -3 18 -4 34 -2 37 3 2 60 15 128 28 203 38 572 115 577 120 7 7 30 4 35 -5z
m2148 -8 c9 -10 23 -35 33 -55 18 -40 45 -51 45 -19 0 49 42 27 100 -52 25
-33 27 -41 17 -67 -9 -23 -8 -33 2 -42 11 -11 15 -9 25 6 42 69 53 81 79 84
22 3 27 -1 27 -17 0 -12 -4 -21 -9 -21 -5 0 -28 -19 -51 -42 -31 -31 -40 -48
-37 -65 3 -16 -2 -28 -16 -38 -22 -16 -17 -42 10 -51 54 -17 54 -17 34 -43
l-18 -24 -57 32 c-54 32 -58 32 -99 19 -42 -13 -49 -22 -76 -92 -10 -24 -20
-35 -29 -31 -7 3 -20 5 -28 5 -20 0 -17 23 7 48 25 27 21 58 -6 55 -11 -1 -35
8 -53 19 -24 15 -52 21 -95 22 -55 1 -62 3 -62 21 0 26 50 32 100 11 56 -24
73 -4 33 36 -18 18 -22 32 -20 78 1 30 5 63 8 73 6 21 24 23 24 3 0 -19 19
-31 30 -20 5 5 11 34 14 64 5 57 12 86 29 108 13 16 21 15 39 -5z m-1277 -112
c-11 -10 -121 -90 -245 -176 -124 -87 -252 -177 -285 -201 -163 -117 -164
-118 -180 -104 -8 7 -15 18 -15 25 0 6 39 36 88 65 111 68 377 237 517 329 70
46 126 79 135 80 2 1 -4 -8 -15 -18z m2395 -61 c58 -18 127 -38 154 -45 26 -8
50 -16 52 -18 7 -6 -18 -57 -27 -57 -4 0 -43 16 -86 36 -69 32 -122 56 -215
97 -16 6 -28 16 -28 21 0 10 16 7 150 -34z m9860 -20 l0 -60 113 0 c124 0 137
-5 137 -55 0 -50 -13 -55 -137 -55 -128 0 -129 -1 -92 -76 25 -53 72 -83 159
-105 l65 -15 0 -45 0 -44 -47 2 c-69 2 -141 29 -198 74 -27 21 -51 39 -54 39
-2 0 -19 -14 -37 -32 -48 -44 -133 -79 -207 -86 l-63 -5 3 49 3 48 60 11 c33
6 74 18 90 27 54 29 95 86 95 132 l0 26 -109 0 c-116 0 -122 3 -127 49 -6 55
7 61 126 61 109 0 110 0 116 25 3 14 4 39 1 54 -8 37 -3 41 55 41 l48 0 0 -60z
m-12960 30 c0 -6 -42 -30 -92 -54 -51 -24 -122 -58 -157 -75 -78 -38 -85 -38
-99 -6 -14 30 -20 27 153 80 66 20 136 43 155 50 19 8 36 14 38 14 1 1 2 -4 2
-9z m9078 -52 l3 -48 -121 0 c-133 0 -173 -10 -208 -55 -32 -40 -37 -88 -17
-141 21 -56 62 -84 125 -84 90 0 144 64 138 163 l-3 52 42 3 c35 3 44 -1 54
-20 7 -13 13 -44 13 -69 0 -150 -135 -259 -288 -231 -108 20 -176 87 -197 193
-16 80 7 155 65 213 63 63 106 75 261 73 l130 -2 3 -47z m-6692 -15 c21 -14
153 -102 292 -195 138 -93 252 -175 252 -182 0 -8 -6 -19 -14 -25 -10 -9 -74
35 -299 201 -157 117 -286 216 -286 221 -2 13 16 7 55 -20z m-2176 -31 c-25
-16 -76 -46 -115 -67 -171 -93 -353 -196 -612 -344 -78 -44 -146 -81 -151 -81
-5 0 -15 11 -22 25 -11 20 -11 27 0 40 7 8 16 15 20 15 9 0 313 147 670 323
235 116 294 141 210 89z m546 -137 c-9 -9 -16 -13 -16 -8 0 12 22 34 28 28 2
-2 -3 -11 -12 -20z m2261 1 c67 -35 370 -178 551 -262 39 -18 72 -36 72 -38 0
-14 -24 -56 -32 -56 -13 0 -33 11 -218 120 -174 102 -377 218 -410 235 -11 5
-20 13 -20 17 0 11 3 10 57 -16z m-1157 -99 c0 -5 -4 -5 -10 -2 -5 3 -10 14
-10 23 0 15 2 15 10 2 5 -8 10 -19 10 -23z m-1170 -17 c0 -5 -5 -10 -11 -10
-5 0 -7 5 -4 10 3 6 8 10 11 10 2 0 4 -4 4 -10z m2221 -329 c167 -140 325
-272 352 -294 26 -22 47 -44 47 -49 0 -5 -9 -18 -20 -30 l-20 -22 -98 95
c-128 124 -236 226 -475 448 -296 276 -280 264 214 -148z m-1634 202 c-3 -10
-5 -2 -5 17 0 19 2 27 5 18 2 -10 2 -26 0 -35z m8599 -44 c7 -12 -63 -89 -82
-89 -29 0 -24 24 12 61 39 40 58 47 70 28z m196 -26 c42 -41 48 -63 19 -63
-22 0 -94 76 -86 90 11 18 29 11 67 -27z m3893 17 c0 -8 -10 -16 -22 -18 -22
-3 -32 16 -16 32 12 11 38 2 38 -14z m170 0 c0 -22 -39 -19 -43 3 -3 15 1 18
20 15 12 -2 23 -10 23 -18z m-4171 -16 c9 -23 7 -87 -3 -103 -5 -8 -16 -11
-25 -8 -12 5 -16 21 -16 67 0 52 2 60 19 60 10 0 22 -7 25 -16z m4086 -49 c0
-58 -2 -65 -20 -65 -18 0 -20 7 -20 65 0 58 2 65 20 65 18 0 20 -7 20 -65z
m-13936 -43 c-51 -48 -169 -161 -264 -252 -94 -91 -176 -167 -181 -168 -14 -6
-39 18 -39 37 0 9 37 45 82 81 45 36 171 138 281 228 109 89 202 162 206 162
3 -1 -35 -40 -85 -88z m13794 51 c-4 -22 -48 -31 -48 -10 0 19 10 27 32 27 13
0 18 -6 16 -17z m287 7 c4 -6 1 -17 -5 -26 -14 -16 -40 -2 -40 22 0 16 36 19
45 4z m-11526 -153 c106 -104 120 -121 110 -138 -6 -11 -16 -19 -24 -17 -11 2
-68 72 -209 256 -40 52 6 13 123 -101z m-2346 -10 c-4 -7 -32 -48 -62 -90 -43
-62 -56 -75 -67 -66 -24 20 -16 33 56 102 69 65 89 80 73 54z m-843 -30 c-9
-7 -90 -68 -180 -136 -91 -69 -195 -149 -232 -178 l-67 -53 -25 33 c-20 25
-23 34 -13 44 7 6 86 54 177 106 91 52 203 118 250 146 78 47 126 67 90 38z
m4017 -80 c46 -29 154 -96 242 -150 87 -53 169 -105 182 -116 l22 -18 -22 -32
c-14 -20 -27 -28 -35 -24 -11 7 -180 143 -424 341 -35 28 -61 52 -56 51 5 0
46 -24 91 -52z m7970 -73 c30 -19 89 -18 97 1 3 8 15 15 26 15 19 0 20 -6 20
-109 0 -82 -3 -110 -13 -114 -20 -8 -35 5 -38 33 -5 33 -39 38 -83 11 -81 -50
-166 -9 -166 80 0 88 81 131 157 83z m348 12 c39 -17 55 -42 55 -86 0 -44 -16
-69 -53 -85 -67 -28 -137 15 -137 82 0 48 22 80 63 92 18 5 33 10 35 10 1 1
18 -5 37 -13z m810 -11 c0 -12 9 -21 25 -25 16 -4 25 -13 25 -25 0 -18 -7 -20
-75 -20 -70 0 -75 1 -78 23 -3 18 1 22 22 22 19 0 26 5 26 18 0 25 10 33 35
30 12 -2 20 -10 20 -23z m-647 -77 c-3 -85 -5 -93 -23 -93 -18 0 -20 8 -23 93
l-3 92 26 0 26 0 -3 -92z m201 83 c22 -14 5 -41 -26 -41 -51 0 -54 -7 -51
-136 l3 -119 34 -3 c19 -2 44 -1 57 2 24 6 24 8 24 144 0 140 6 169 34 159 11
-4 16 -24 18 -74 3 -79 22 -92 26 -18 4 76 10 95 32 95 10 0 21 -8 23 -17 7
-29 1 -348 -7 -361 -5 -9 -13 -9 -27 -2 -16 9 -19 22 -19 96 0 64 -3 85 -12
82 -9 -3 -14 -32 -16 -87 -2 -63 -6 -83 -18 -88 -9 -3 -20 0 -24 7 -6 10 -34
14 -92 14 l-83 1 -3 172 c-2 157 -1 172 15 176 32 8 98 7 112 -2z m569 -64 c2
-51 6 -67 17 -67 12 0 15 16 15 71 0 67 1 70 23 67 22 -3 22 -5 25 -187 3
-187 -1 -207 -35 -194 -9 4 -13 29 -13 95 0 67 -3 89 -12 86 -9 -3 -14 -32
-16 -87 -2 -63 -6 -83 -18 -88 -28 -11 -34 19 -34 184 0 173 3 196 29 191 12
-3 17 -18 19 -71z m326 39 c9 -47 38 -81 86 -100 28 -11 40 -22 40 -36 0 -11
-7 -20 -15 -20 -25 0 -88 29 -111 51 l-22 20 -43 -31 c-25 -17 -61 -33 -82
-37 -32 -5 -37 -3 -37 14 0 14 14 26 48 41 48 22 82 63 82 99 0 47 45 46 54
-1z m472 0 c13 -15 24 -35 24 -45 0 -19 -35 -61 -50 -61 -6 0 -10 -9 -10 -19
0 -20 18 -31 51 -31 12 0 19 -7 19 -20 0 -20 -5 -20 -162 -18 -146 3 -163 5
-166 21 -3 14 4 17 33 17 50 0 56 24 16 60 -46 43 -41 92 13 116 21 10 58 13
120 11 82 -3 91 -5 112 -31z m269 9 c0 -14 -9 -21 -30 -25 -26 -5 -30 -10 -28
-35 2 -21 14 -40 39 -61 55 -47 18 -79 -39 -34 -32 25 -32 25 -73 -6 -35 -27
-64 -27 -64 0 0 9 13 22 29 30 30 16 57 66 47 91 -3 8 -16 15 -30 15 -28 0
-40 14 -32 36 5 12 23 14 93 12 80 -3 88 -5 88 -23z m105 -10 c0 -29 5 -37 25
-45 32 -12 34 -47 3 -52 -19 -2 -24 -10 -26 -46 -3 -38 -6 -43 -25 -40 -21 3
-22 9 -25 97 -3 108 0 121 28 121 16 0 20 -6 20 -35z m-6082 -12 c3 -21 0 -23
-48 -23 -45 0 -51 -3 -61 -27 -14 -38 -7 -48 33 -45 26 3 43 -3 64 -21 26 -23
29 -31 29 -86 0 -52 -4 -64 -26 -87 -40 -39 -104 -37 -141 6 -32 35 -36 58
-11 67 11 4 23 -3 37 -20 30 -37 73 -37 87 0 20 52 -21 110 -61 85 -11 -6 -31
-12 -45 -12 -24 0 -25 2 -25 76 0 109 5 115 93 112 66 -3 72 -5 75 -25z m433
-2 c33 -33 38 -74 13 -109 -15 -21 -15 -25 0 -41 22 -24 30 -71 17 -103 -14
-38 -54 -60 -104 -60 -34 1 -47 7 -70 32 -30 34 -33 73 -5 78 10 2 23 -9 34
-27 31 -52 94 -38 94 20 0 30 -13 43 -52 53 -37 8 -40 46 -4 46 31 0 48 22 44
57 -4 40 -43 44 -73 7 -14 -18 -27 -25 -38 -21 -25 10 -20 45 9 72 39 36 96
34 135 -4z m214 -141 c0 -163 0 -165 -22 -168 -14 -2 -23 2 -23 10 -1 7 -1 63
-1 123 0 126 -5 143 -39 125 -26 -14 -46 -1 -37 24 8 20 77 56 102 53 19 -2
20 -9 20 -167z m1446 157 c9 -7 21 -22 28 -35 22 -41 -11 -58 -44 -22 -36 39
-85 16 -85 -39 0 -17 5 -20 30 -15 43 9 86 -12 104 -51 20 -41 20 -66 2 -110
-17 -40 -42 -55 -93 -55 -70 0 -103 49 -103 153 0 126 34 187 104 187 23 0 48
-6 57 -13z m445 -5 c65 -52 58 -106 -25 -207 -23 -27 -41 -53 -41 -57 0 -4 24
-8 53 -10 44 -3 52 -6 52 -23 0 -19 -7 -20 -95 -20 -79 0 -95 3 -98 16 -2 9
26 52 61 95 86 106 93 119 72 150 -8 13 -24 24 -35 24 -22 0 -50 -25 -50 -46
0 -8 -10 -14 -25 -14 -36 0 -34 43 4 81 35 34 93 39 127 11z m-1606 -13 c0 -6
-9 -22 -20 -36 -17 -22 -20 -41 -20 -134 0 -96 2 -111 20 -129 25 -25 26 -50
1 -50 -33 0 -59 45 -67 118 -8 75 7 204 26 227 14 17 60 20 60 4z m376 -10
c16 -18 20 -40 22 -144 4 -134 -7 -177 -49 -190 -36 -12 -46 11 -18 41 23 24
24 32 24 141 0 109 -1 116 -22 131 -13 8 -23 21 -23 28 0 21 45 17 66 -7z
m1504 5 c0 -9 -8 -23 -17 -30 -16 -11 -18 -30 -18 -134 0 -105 2 -123 18 -131
9 -6 17 -19 17 -29 0 -26 -31 -26 -53 -2 -48 53 -43 303 6 334 21 13 47 9 47
-8z m366 8 c22 -14 34 -52 40 -124 11 -126 -20 -228 -68 -228 -23 0 -23 27 0
53 14 16 17 39 17 134 0 98 -3 117 -17 127 -36 26 -9 63 28 38z m-1968 -57 c3
-56 -8 -81 -32 -72 -10 4 -16 19 -16 42 l0 35 -89 0 c-90 0 -108 7 -97 36 5
12 26 14 118 12 l113 -3 3 -50z m1766 34 c58 -46 19 -139 -58 -139 -57 1 -95
55 -75 107 21 55 84 70 133 32z m114 -116 l-3 -138 -90 -6 -90 -5 86 -2 c63
-1 90 -6 99 -17 18 -22 -25 -35 -120 -35 -105 0 -110 3 -110 56 0 24 3 44 8
45 4 0 44 1 89 2 105 3 120 17 20 18 -42 1 -81 3 -87 4 -5 1 -14 3 -20 4 -5 0
-10 8 -10 16 0 16 7 17 119 19 l74 1 -2 77 c-2 83 1 98 25 98 12 0 14 -23 12
-137z m1709 69 c18 -12 43 -77 43 -114 0 -46 -17 -103 -36 -119 -25 -20 -75
-15 -96 10 -27 35 -26 168 3 205 20 26 60 34 86 18z m-3102 -87 c0 -18 -7 -20
-65 -20 -60 0 -65 2 -68 23 -3 22 -1 23 65 20 60 -3 68 -5 68 -23z m-467 -2
c-3 -16 -19 -18 -141 -21 -132 -2 -137 -2 -137 18 0 19 6 20 141 20 128 0 140
-2 137 -17z m2907 -53 l0 -55 -107 -3 c-139 -4 -143 -22 -5 -22 103 0 131 -8
120 -36 -4 -11 -34 -14 -138 -14 -144 0 -145 0 -145 58 0 49 10 54 115 56 68
1 100 5 103 14 3 9 -22 12 -102 12 -98 0 -106 1 -106 19 0 28 12 30 145 28
l120 -2 0 -55z m-400 18 c55 -25 58 -90 6 -125 -46 -31 -160 -33 -208 -4 -51
32 -57 97 -10 122 53 29 157 32 212 7z m2315 -3 c48 -25 54 -78 14 -116 -22
-20 -38 -24 -103 -27 -90 -5 -136 12 -152 55 -26 70 48 118 165 107 27 -3 61
-11 76 -19z m-685 -20 c0 -17 -8 -21 -65 -25 l-65 -5 -3 -48 c-3 -43 -5 -48
-25 -45 -19 3 -22 10 -25 51 l-3 47 -65 0 c-62 0 -64 1 -64 25 l0 26 158 -3
c149 -3 157 -4 157 -23z m-4157 -56 c3 -52 1 -57 -20 -63 -30 -8 -147 -8 -187
0 -31 6 -31 7 -31 66 l0 59 118 -3 117 -3 3 -56z m4507 -4 c0 -53 -2 -60 -20
-60 -15 0 -21 8 -25 35 l-5 35 -110 3 c-112 3 -132 9 -122 37 6 13 26 15 144
13 l138 -3 0 -60z m-5597 -8 c-2 -16 -10 -22 -28 -22 -28 0 -39 27 -20 50 18
21 52 1 48 -28z m680 0 c-2 -16 -10 -22 -28 -22 -28 0 -39 27 -20 50 18 21 52
1 48 -28z m1432 2 c0 -24 -4 -29 -25 -29 -21 0 -25 5 -25 29 0 16 6 31 13 34
23 8 37 -5 37 -34z m438 32 c8 -4 12 -19 10 -32 -2 -18 -9 -24 -28 -24 -28 0
-39 27 -20 50 14 17 20 18 38 6z m-9341 -183 c-3 -7 -5 -2 -5 12 0 14 2 19 5
13 2 -7 2 -19 0 -25z m8023 -504 c0 -8 -5 -12 -10 -9 -6 4 -8 11 -5 16 9 14
15 11 15 -7z m2070 1 c0 -8 -4 -15 -10 -15 -5 0 -10 7 -10 15 0 8 5 15 10 15
6 0 10 -7 10 -15z m-1910 -5 c0 -5 -4 -10 -10 -10 -5 0 -10 5 -10 10 0 6 5 10
10 10 6 0 10 -4 10 -10z m1587 -541 c-4 -15 1 -23 20 -30 24 -9 25 -10 9 -28
-11 -13 -14 -21 -7 -26 18 -11 12 -37 -9 -42 -14 -4 -19 -11 -15 -23 4 -14 -1
-19 -25 -22 -27 -4 -30 -2 -30 23 0 18 -7 32 -20 39 -11 6 -20 21 -20 33 0 12
9 30 20 40 11 9 20 26 20 37 0 16 7 20 31 20 27 0 31 -3 26 -21z m2493 -8 c0
-5 -11 -8 -25 -8 -13 0 -22 3 -19 8 3 5 14 9 25 9 10 0 19 -4 19 -9z m1375 -1
c3 -5 -1 -10 -9 -10 -9 0 -16 5 -16 10 0 6 4 10 9 10 6 0 13 -4 16 -10z
m-3649 -42 c0 -29 -6 -40 -20 -44 -19 -6 -19 -7 3 -25 l23 -19 -51 0 c-31 0
-50 4 -46 10 3 5 12 7 19 4 7 -3 16 2 20 11 4 11 0 18 -12 21 -13 4 -18 16
-18 45 l-1 40 42 -2 c42 -3 42 -3 41 -41z m118 36 c26 -10 18 -24 -14 -24 -30
0 -41 14 -17 23 6 3 13 6 14 6 1 1 8 -2 17 -5z m386 -4 c0 -5 -14 -7 -32 -3
-46 8 -48 13 -5 13 21 0 37 -4 37 -10z m144 -13 c8 -12 7 -23 -2 -38 -12 -18
-12 -23 0 -30 8 -6 1 -8 -22 -8 -19 0 -29 3 -23 6 9 3 10 10 3 22 -8 15 -6 17
15 13 19 -3 25 0 25 13 0 13 -6 16 -25 13 -31 -6 -42 7 -18 21 22 13 33 10 47
-12z m160 14 c3 -4 -6 -6 -19 -3 -14 2 -25 6 -25 8 0 8 39 4 44 -5z m4253 -13
c-3 -8 -6 -5 -6 6 -1 11 2 17 5 13 3 -3 4 -12 1 -19z m-4866 -16 c-6 -2 -11
-17 -11 -34 0 -26 -2 -29 -15 -18 -11 9 -13 16 -5 24 5 5 10 21 10 34 0 21 2
23 16 11 10 -8 12 -15 5 -17z m116 -16 c21 -8 33 2 33 27 0 12 4 17 9 12 4 -6
6 -26 4 -46 -5 -36 -6 -36 -34 -26 -16 6 -29 18 -29 25 0 9 -7 12 -20 9 -11
-3 -18 -2 -17 1 2 4 7 16 12 27 7 20 7 20 17 -2 6 -12 17 -24 25 -27z m383
-18 c0 -56 -1 -60 -14 -42 -8 10 -10 21 -5 22 5 2 9 21 9 43 0 21 2 39 5 39 3
0 5 -28 5 -62z m170 0 c0 -52 -2 -59 -12 -45 -8 9 -32 18 -58 20 l-45 4 53 1
52 2 0 40 c0 22 2 40 5 40 3 0 5 -28 5 -62z m130 44 c0 -4 -11 -12 -25 -18
-23 -11 -24 -11 -8 12 13 21 33 25 33 6z m-233 -7 c0 -8 -4 -12 -9 -9 -5 3 -6
10 -3 15 9 13 12 11 12 -6z m673 -16 c0 -28 -1 -29 -16 -14 -13 12 -14 19 -4
30 17 21 20 19 20 -16z m80 16 c0 -8 4 -15 9 -15 5 0 14 7 21 15 20 24 30 17
19 -13 -8 -23 -16 -29 -39 -30 -34 -1 -44 10 -35 38 7 23 25 27 25 5z m-2415
-35 c0 -27 -2 -35 -8 -24 -7 13 -2 64 6 64 1 0 2 -18 2 -40z m2241 25 c11 -27
-2 -37 -14 -11 -7 16 -8 26 -1 26 5 0 12 -7 15 -15z m-2371 -17 c6 -4 2 -8 -7
-8 -10 0 -18 7 -18 17 0 9 3 12 8 7 4 -5 12 -12 17 -16z m1838 1 c-6 -6 -19
-9 -29 -6 -16 4 -15 5 4 6 12 0 22 6 22 13 0 6 3 8 7 5 4 -4 2 -12 -4 -18z
m1764 -1 c-3 -8 -6 -5 -6 6 -1 11 2 17 5 13 3 -3 4 -12 1 -19z m57 -4 c6 -21
9 -24 21 -14 19 16 20 -1 4 -33 l-12 -21 -8 22 c-10 25 -29 30 -29 6 0 -20
-24 -13 -28 9 -2 10 3 17 12 17 9 0 16 8 16 20 0 29 17 25 24 -6z m-2489 6 c3
-5 -1 -20 -9 -32 -13 -19 -16 -20 -16 -5 0 10 -8 21 -17 24 -15 6 -15 7 3 14
27 11 32 10 39 -1z m381 -2 c4 -4 1 -14 -6 -23 -10 -12 -16 -13 -26 -4 -11 9
-17 9 -28 0 -10 -9 -16 -7 -27 5 -9 11 -9 18 -2 22 15 9 80 9 89 0z m2454 -17
c0 -9 5 -22 10 -29 7 -8 7 -9 -1 -3 -6 5 -18 7 -25 4 -10 -4 -14 4 -14 26 0
23 4 29 15 25 8 -4 15 -14 15 -23z m289 -14 c0 -15 -2 -17 -6 -7 -3 8 -13 24
-22 34 -15 18 -15 18 7 7 13 -7 22 -21 21 -34z m-4609 -7 c5 -9 2 -23 -6 -35
-13 -17 -14 -14 -13 31 0 27 3 42 6 34 3 -8 9 -22 13 -30z m3000 19 c0 -6 -4
-7 -10 -4 -5 3 -10 11 -10 16 0 6 5 7 10 4 6 -3 10 -11 10 -16z m295 11 c3 -5
-1 -10 -9 -10 -9 0 -16 5 -16 10 0 6 4 10 9 10 6 0 13 -4 16 -10z m747 -17
c-3 -16 -7 -22 -10 -15 -4 13 4 42 11 42 2 0 2 -12 -1 -27z m101 20 c-7 -2
-13 -13 -13 -24 0 -10 -4 -19 -9 -19 -5 0 -16 -3 -24 -6 -11 -4 -13 1 -10 20
3 15 10 23 18 20 7 -3 16 -1 20 5 3 6 12 11 18 10 9 0 9 -2 0 -6z m121 -10 c4
-9 2 -21 -4 -27 -7 -7 -10 -3 -10 12 0 28 -14 28 -41 1 -26 -26 -37 -18 -12
10 21 25 58 28 67 4z m129 10 c-7 -2 -13 -14 -14 -26 0 -12 -3 -16 -6 -9 -7
18 4 42 19 41 10 0 10 -2 1 -6z m55 -25 c-2 -17 -8 -33 -15 -35 -7 -3 -9 3 -6
16 3 12 0 28 -7 36 -10 13 -9 15 9 15 19 0 22 -5 19 -32z m72 22 c0 -5 7 -7
15 -4 11 5 15 -1 15 -20 0 -34 -27 -35 -36 0 -9 34 -37 27 -45 -11 -6 -29 -7
-29 -8 8 -1 35 1 37 29 37 17 0 30 -4 30 -10z m-4125 -10 c3 -5 1 -10 -4 -10
-6 0 -11 5 -11 10 0 6 2 10 4 10 3 0 8 -4 11 -10z m2962 -12 c-3 -8 -6 -5 -6
6 -1 11 2 17 5 13 3 -3 4 -12 1 -19z m-987 -21 c14 -2 -6 -4 -45 -4 -38 0 -59
2 -45 4 14 3 29 9 34 14 6 5 14 5 20 0 6 -5 22 -11 36 -14z m4097 -14 c-3 -10
-5 -4 -5 12 0 17 2 24 5 18 2 -7 2 -21 0 -30z m-5777 17 c0 -5 -5 -10 -11 -10
-5 0 -7 5 -4 10 3 6 8 10 11 10 2 0 4 -4 4 -10z m-1010 -259 c-37 -10 -37 -37
0 -49 32 -12 49 -37 34 -52 -5 -5 -22 -11 -39 -15 -28 -5 -28 -5 -7 6 31 17
28 38 -7 50 -56 20 -43 70 18 68 l26 -1 -25 -7z m288 -51 c20 -63 15 -73 -18
-40 -11 11 -15 20 -10 20 15 0 12 36 -4 49 -12 10 -17 8 -26 -9 -7 -14 -8 -25
-2 -33 7 -8 3 -18 -14 -30 -29 -22 -30 -12 -7 54 14 38 22 49 39 49 18 0 26
-11 42 -60z m76 35 c8 -32 53 -36 58 -5 2 12 8 21 13 20 15 0 13 -102 -2 -107
-8 -3 -13 5 -13 21 0 21 -5 26 -25 26 -18 0 -26 -7 -31 -25 -11 -45 -24 -26
-24 35 0 61 13 80 24 35z m-2714 -7 c37 -40 21 -89 -35 -108 -19 -6 -39 -9
-45 -5 -13 8 -13 65 0 65 6 0 10 -6 10 -14 0 -22 17 -28 40 -16 15 8 20 19 18
38 -2 22 -9 28 -37 32 -48 7 -53 30 -7 30 23 0 42 -7 56 -22z m170 14 c0 -5
-9 -17 -20 -27 -11 -10 -20 -24 -20 -32 0 -7 9 -22 20 -33 22 -22 26 -40 9
-40 -14 0 -69 58 -69 73 0 16 51 67 67 67 7 0 13 -4 13 -8z m7710 4 c0 -3 -4
-8 -10 -11 -5 -3 -10 -1 -10 4 0 6 5 11 10 11 6 0 10 -2 10 -4z m-9423 -12
c-3 -3 -12 -4 -19 -1 -8 3 -5 6 6 6 11 1 17 -2 13 -5z m1838 -4 c-3 -5 -10
-10 -16 -10 -5 0 -9 5 -9 10 0 6 7 10 16 10 8 0 12 -4 9 -10z m235 -15 c0 -14
-4 -25 -10 -25 -5 0 -10 9 -10 19 0 11 -6 22 -12 24 -7 3 -3 6 10 6 17 1 22
-5 22 -24z m69 -22 c-1 -53 -6 -49 -11 10 -2 20 0 37 4 37 4 0 8 -21 7 -47z
m191 33 c0 -8 -4 -18 -10 -21 -5 -3 -10 3 -10 14 0 12 5 21 10 21 6 0 10 -6
10 -14z m60 -11 c0 -8 -4 -17 -10 -20 -6 -4 -10 5 -10 20 0 15 4 24 10 20 6
-3 10 -12 10 -20z m3682 -10 c-2 -19 -6 -35 -8 -35 -2 0 -4 16 -4 35 0 19 4
35 8 35 4 0 6 -16 4 -35z m2253 25 c-3 -5 -10 -10 -16 -10 -5 0 -9 5 -9 10 0
6 7 10 16 10 8 0 12 -4 9 -10z m-6098 -52 c-2 -13 -4 -5 -4 17 -1 22 1 32 4
23 2 -10 2 -28 0 -40z m4200 5 c-3 -10 -5 -2 -5 17 0 19 2 27 5 18 2 -10 2
-26 0 -35z m-4227 16 c0 -11 -4 -18 -10 -14 -5 3 -7 12 -3 20 7 21 13 19 13
-6z m3917 -1 c-3 -8 -6 -5 -6 6 -1 11 2 17 5 13 3 -3 4 -12 1 -19z m-4237 3
c0 -14 -18 -23 -30 -16 -6 4 -8 11 -5 16 8 12 35 12 35 0z m2107 -17 c-2 -14
2 -31 10 -40 20 -20 4 -18 -19 3 -26 23 -23 63 5 63 5 0 7 -12 4 -26z m58 17
c3 -5 1 -12 -4 -15 -5 -3 -11 1 -15 9 -6 16 9 21 19 6z m-2021 -26 c3 -9 0
-15 -9 -15 -8 0 -15 7 -15 15 0 8 4 15 9 15 5 0 11 -7 15 -15z m4100 -19 c-5
-14 -9 -15 -15 -5 -5 8 -3 17 4 21 15 9 19 4 11 -16z m156 9 c0 -8 -8 -15 -17
-16 -15 0 -15 -2 2 -9 16 -7 12 -9 -18 -9 -25 -1 -40 4 -44 14 -7 21 3 31 19
17 9 -7 19 -6 32 4 25 17 26 17 26 -1z m-4370 -25 c0 -5 -5 -10 -11 -10 -5 0
-7 5 -4 10 3 6 8 10 11 10 2 0 4 -4 4 -10z m160 0 c0 -5 -2 -10 -4 -10 -3 0
-8 5 -11 10 -3 6 -1 10 4 10 6 0 11 -4 11 -10z"/>
<path d="M13380 7529 c-19 -4 12 -6 70 -6 104 0 111 4 15 9 -27 2 -66 0 -85
-3z"/>
<path d="M12916 7818 c2 -13 6 -44 9 -70 6 -47 7 -48 40 -48 19 0 36 4 39 9 4
5 9 37 12 70 l7 61 -55 0 c-52 0 -55 -2 -52 -22z"/>
<path d="M14437 7783 c-4 -3 -7 -17 -7 -30 0 -22 3 -23 75 -23 l75 0 0 30 0
30 -68 0 c-38 0 -72 -3 -75 -7z"/>
<path d="M13812 7858 c-17 -17 -15 -45 4 -52 9 -3 73 -6 144 -6 121 0 129 1
135 20 13 42 -8 50 -144 50 -85 0 -131 -4 -139 -12z"/>
<path d="M11774 7719 c-15 -17 -19 -37 -19 -105 0 -71 3 -85 20 -98 26 -20 65
-20 93 0 20 14 22 23 22 104 0 89 0 90 -30 105 -40 21 -63 19 -86 -6z"/>
<path d="M14947 7692 c-23 -25 -24 -144 -1 -166 42 -43 114 -24 125 34 11 52
2 123 -18 138 -25 18 -87 15 -106 -6z"/>
<path d="M12005 7030 c-3 -5 1 -10 9 -10 8 0 18 5 21 10 3 6 -1 10 -9 10 -8 0
-18 -4 -21 -10z"/>
<path d="M11868 6950 c-3 -16 -1 -30 4 -30 4 0 8 14 8 30 0 17 -2 30 -4 30 -2
0 -6 -13 -8 -30z"/>
<path d="M14177 6970 c-6 -24 8 -36 17 -14 8 22 7 34 -3 34 -5 0 -11 -9 -14
-20z"/>
<path d="M13762 6944 c-1 -13 3 -24 8 -24 12 0 14 37 2 44 -4 2 -9 -6 -10 -20z"/>
<path d="M16120 6952 c0 -15 28 -47 35 -40 8 8 -13 48 -25 48 -6 0 -10 -4 -10
-8z"/>
<path d="M16343 6953 c9 -2 25 -2 35 0 9 3 1 5 -18 5 -19 0 -27 -2 -17 -5z"/>
<path d="M16448 6953 c6 -2 18 -2 25 0 6 3 1 5 -13 5 -14 0 -19 -2 -12 -5z"/>
<path d="M15981 6924 c0 -11 3 -14 6 -6 3 7 2 16 -1 19 -3 4 -6 -2 -5 -13z"/>
<path d="M16132 6870 c0 -14 2 -19 5 -12 2 6 2 18 0 25 -3 6 -5 1 -5 -13z"/>
<path d="M15412 6978 c3 -8 26 -14 53 -16 43 -3 47 -1 36 12 -17 20 -95 22
-89 4z"/>
<path d="M14968 6963 c6 -2 18 -2 25 0 6 3 1 5 -13 5 -14 0 -19 -2 -12 -5z"/>
<path d="M14705 6951 c-6 -11 9 -23 19 -14 9 9 7 23 -3 23 -6 0 -12 -4 -16 -9z"/>
<path d="M15810 6934 c0 -8 5 -12 10 -9 6 4 8 11 5 16 -9 14 -15 11 -15 -7z"/>
<path d="M4460 5205 c-14 -16 -10 -18 14 -9 9 3 16 10 16 15 0 14 -16 11 -30
-6z"/>
<path d="M4370 5176 c0 -9 7 -12 20 -9 11 3 20 9 20 14 0 5 -9 9 -20 9 -11 0
-20 -6 -20 -14z"/>
<path d="M4422 5158 c-20 -20 -14 -29 16 -22 39 10 46 15 31 25 -19 12 -33 11
-47 -3z"/>
<path d="M13786 4301 c-22 -25 -17 -70 9 -87 46 -31 90 50 49 90 -21 21 -37
20 -58 -3z"/>
<path d="M13915 4270 c-4 -7 -3 -16 3 -22 14 -14 47 -6 47 12 0 18 -40 26 -50
10z"/>
<path d="M14156 4304 c-9 -8 -16 -24 -16 -34 0 -20 25 -50 41 -50 27 0 49 22
49 50 0 44 -44 64 -74 34z"/>
<path d="M15770 4313 c-52 -21 -43 -47 21 -58 77 -13 153 15 122 46 -11 11
-122 21 -143 12z"/>
<path d="M15795 4200 c-11 -18 10 -32 41 -28 40 4 38 32 -3 36 -17 2 -34 -2
-38 -8z"/>
<path d="M12253 4158 c-19 -24 -22 -48 -12 -78 9 -23 17 -30 38 -30 37 0 51
17 51 60 0 20 -5 41 -12 48 -16 16 -53 15 -65 0z"/>
<path d="M13142 4258 c-25 -25 -6 -68 30 -68 9 0 22 9 28 20 22 40 -26 80 -58
48z"/>
<path d="M14994 4186 c-3 -7 -4 -42 -2 -77 2 -48 7 -64 18 -64 19 0 31 58 24
113 -6 42 -29 58 -40 28z"/>
<path d="M13833 4084 c-28 -7 -44 -26 -34 -43 19 -31 148 -34 172 -4 27 32
-63 63 -138 47z"/>
<path d="M16140 4082 c-15 -5 -26 -17 -28 -29 -3 -18 4 -24 37 -33 77 -21 164
11 128 47 -17 18 -98 26 -137 15z"/>
<path d="M11260 4040 c0 -18 7 -20 75 -20 68 0 75 2 75 20 0 18 -7 20 -75 20
-68 0 -75 -2 -75 -20z"/>
<path d="M13510 2780 c0 -13 7 -20 20 -20 13 0 20 7 20 20 0 13 -7 20 -20 20
-13 0 -20 -7 -20 -20z"/>
<path d="M955 7111 c-3 -5 -1 -13 5 -16 16 -10 131 5 124 16 -7 12 -121 12
-129 0z"/>
<path d="M15 7081 c-22 -11 32 -12 513 -14 162 -1 299 1 305 5 7 4 -141 8
-328 8 -187 0 -369 2 -405 5 -36 3 -74 1 -85 -4z"/>
<path d="M4030 7084 c0 -10 45 -42 52 -38 9 6 -28 44 -42 44 -5 0 -10 -3 -10
-6z"/>
<path d="M2523 7054 c0 -14 2 -21 6 -17 3 4 9 10 12 13 4 3 1 10 -6 17 -10 9
-12 6 -12 -13z"/>
<path d="M5475 7072 c-5 -6 -19 -12 -30 -15 -11 -2 26 -5 82 -5 56 -1 105 3
108 8 4 6 -14 10 -43 10 -27 0 -62 3 -78 6 -16 3 -33 1 -39 -4z"/>
<path d="M6060 7070 c0 -5 4 -10 9 -10 6 0 13 5 16 10 3 6 -1 10 -9 10 -9 0
-16 -4 -16 -10z"/>
<path d="M6106 7063 c-4 -9 -2 -21 4 -27 7 -7 10 -2 10 17 0 31 -5 34 -14 10z"/>
<path d="M1691 7056 c-8 -10 -9 -16 -1 -21 13 -8 30 3 30 21 0 18 -14 18 -29
0z"/>
<path d="M1905 7060 c-3 -5 -1 -10 4 -10 6 0 11 5 11 10 0 6 -2 10 -4 10 -3 0
-8 -4 -11 -10z"/>
<path d="M4000 7055 c0 -9 9 -15 21 -15 20 0 21 -4 15 -72 -4 -60 -3 -65 4
-29 5 24 14 49 20 56 13 16 -7 55 -27 55 -7 0 -13 5 -13 10 0 6 -4 10 -10 10
-5 0 -10 -7 -10 -15z"/>
<path d="M5262 7036 c-16 -18 -16 -19 3 -11 11 4 30 10 43 12 34 8 35 20 1 19
-17 -1 -38 -10 -47 -20z"/>
<path d="M7828 7053 c17 -2 47 -2 65 0 17 2 3 4 -33 4 -36 0 -50 -2 -32 -4z"/>
<path d="M3458 7043 c6 -2 18 -2 25 0 6 3 1 5 -13 5 -14 0 -19 -2 -12 -5z"/>
<path d="M4097 7035 c-4 -8 -2 -17 3 -20 6 -4 10 3 10 14 0 25 -6 27 -13 6z"/>
<path d="M3970 7017 c0 -14 -3 -40 -6 -58 -4 -23 -2 -29 4 -19 15 25 24 88 12
95 -6 4 -10 -4 -10 -18z"/>
<path d="M4551 7024 c0 -11 3 -14 6 -6 3 7 2 16 -1 19 -3 4 -6 -2 -5 -13z"/>
<path d="M4920 7030 c0 -5 4 -10 9 -10 6 0 13 5 16 10 3 6 -1 10 -9 10 -9 0
-16 -4 -16 -10z"/>
<path d="M6054 7015 c1 -28 6 -31 24 -13 8 8 9 15 1 25 -17 20 -27 16 -25 -12z"/>
<path d="M2718 7023 c7 -3 16 -2 19 1 4 3 -2 6 -13 5 -11 0 -14 -3 -6 -6z"/>
<path d="M5060 7016 c0 -8 5 -18 10 -21 6 -3 10 1 10 9 0 8 -4 18 -10 21 -5 3
-10 -1 -10 -9z"/>
<path d="M5648 7023 c6 -2 18 -2 25 0 6 3 1 5 -13 5 -14 0 -19 -2 -12 -5z"/>
<path d="M4122 7000 c0 -14 2 -19 5 -12 2 6 2 18 0 25 -3 6 -5 1 -5 -13z"/>
<path d="M4245 7010 c-3 -5 -1 -10 4 -10 6 0 11 5 11 10 0 6 -2 10 -4 10 -3 0
-8 -4 -11 -10z"/>
<path d="M5210 7010 c0 -5 5 -10 10 -10 6 0 10 5 10 10 0 6 -4 10 -10 10 -5 0
-10 -4 -10 -10z"/>
<path d="M7828 7013 c17 -2 47 -2 65 0 17 2 3 4 -33 4 -36 0 -50 -2 -32 -4z"/>
<path d="M2595 7000 c3 -5 2 -10 -3 -10 -6 0 -13 -8 -16 -17 -6 -16 -6 -16 12
0 10 9 23 14 27 10 5 -5 3 0 -4 10 -14 18 -26 24 -16 7z"/>
<path d="M3540 6999 c0 -5 5 -7 10 -4 6 3 10 8 10 11 0 2 -4 4 -10 4 -5 0 -10
-5 -10 -11z"/>
<path d="M3650 6982 c0 -18 5 -32 10 -32 6 0 8 11 4 28 -10 39 -14 40 -14 4z"/>
<path d="M4381 6975 c0 -35 2 -37 11 -19 7 15 7 28 -1 40 -9 16 -10 12 -10
-21z"/>
<path d="M2540 6989 c0 -5 5 -7 10 -4 6 3 10 8 10 11 0 2 -4 4 -10 4 -5 0 -10
-5 -10 -11z"/>
<path d="M2745 6990 c-3 -5 -1 -10 4 -10 6 0 11 5 11 10 0 6 -2 10 -4 10 -3 0
-8 -4 -11 -10z"/>
<path d="M3011 6983 c7 -10 15 -20 16 -22 2 -2 3 3 3 11 0 9 -7 19 -16 22 -15
6 -15 4 -3 -11z"/>
<path d="M3580 6984 c0 -8 5 -12 10 -9 6 4 8 11 5 16 -9 14 -15 11 -15 -7z"/>
<path d="M5037 6986 c-4 -10 -5 -21 -2 -24 9 -9 17 6 13 25 -3 17 -4 17 -11
-1z"/>
<path d="M5240 6990 c0 -5 5 -10 11 -10 5 0 7 5 4 10 -3 6 -8 10 -11 10 -2 0
-4 -4 -4 -10z"/>
<path d="M5830 6990 c-8 -5 -12 -11 -9 -14 2 -3 11 -1 19 4 8 5 12 11 9 14 -2
3 -11 1 -19 -4z"/>
<path d="M6091 6974 c0 -11 3 -14 6 -6 3 7 2 16 -1 19 -3 4 -6 -2 -5 -13z"/>
<path d="M1738 6963 c7 -3 16 -2 19 1 4 3 -2 6 -13 5 -11 0 -14 -3 -6 -6z"/>
<path d="M3072 6963 c-9 -3 -4 -10 14 -19 32 -17 37 -15 15 7 -9 9 -22 14 -29
12z"/>
<path d="M3555 6960 c-3 -5 -1 -10 4 -10 6 0 11 5 11 10 0 6 -2 10 -4 10 -3 0
-8 -4 -11 -10z"/>
<path d="M3595 6960 c-3 -5 -1 -18 4 -27 9 -16 10 -14 11 10 0 28 -5 34 -15
17z"/>
<path d="M4112 6945 c0 -16 2 -22 5 -12 2 9 2 23 0 30 -3 6 -5 -1 -5 -18z"/>
<path d="M4172 6950 c-6 -11 -12 -28 -12 -37 1 -13 5 -10 16 10 18 33 15 57
-4 27z"/>
<path d="M4970 6960 c-9 -6 -10 -10 -3 -10 6 0 15 5 18 10 8 12 4 12 -15 0z"/>
<path d="M5181 6954 c0 -11 3 -14 6 -6 3 7 2 16 -1 19 -3 4 -6 -2 -5 -13z"/>
<path d="M5215 6960 c3 -5 8 -10 11 -10 2 0 4 5 4 10 0 6 -5 10 -11 10 -5 0
-7 -4 -4 -10z"/>
<path d="M5275 6960 c3 -5 8 -10 11 -10 2 0 4 5 4 10 0 6 -5 10 -11 10 -5 0
-7 -4 -4 -10z"/>
<path d="M3340 6940 c0 -13 18 -22 24 -11 3 5 -1 11 -9 15 -8 3 -15 1 -15 -4z"/>
<path d="M3430 6944 c0 -3 9 -17 20 -31 23 -29 25 -25 8 12 -10 22 -28 35 -28
19z"/>
<path d="M5915 6929 c-11 -17 1 -21 15 -4 8 9 8 15 2 15 -6 0 -14 -5 -17 -11z"/>
<path d="M11310 6936 c0 -2 7 -7 16 -10 8 -3 12 -2 9 4 -6 10 -25 14 -25 6z"/>
<path d="M5044 6906 c-10 -8 -17 -16 -14 -19 3 -2 14 4 24 14 23 22 18 25 -10
5z"/>
<path d="M17685 6910 c-3 -5 -1 -10 4 -10 6 0 11 5 11 10 0 6 -2 10 -4 10 -3
0 -8 -4 -11 -10z"/>
<path d="M1865 6900 c-3 -5 -2 -10 4 -10 5 0 13 5 16 10 3 6 2 10 -4 10 -5 0
-13 -4 -16 -10z"/>
<path d="M4406 6901 c-4 -7 -5 -15 -2 -18 9 -9 19 4 14 18 -4 11 -6 11 -12 0z"/>
<path d="M5204 6894 c-18 -14 -18 -15 4 -4 12 6 22 13 22 15 0 8 -5 6 -26 -11z"/>
<path d="M4345 6890 c-3 -5 -1 -10 4 -10 6 0 11 5 11 10 0 6 -2 10 -4 10 -3 0
-8 -4 -11 -10z"/>
<path d="M3961 6874 c0 -11 3 -14 6 -6 3 7 2 16 -1 19 -3 4 -6 -2 -5 -13z"/>
<path d="M5310 6870 c0 -5 4 -10 9 -10 6 0 13 5 16 10 3 6 -1 10 -9 10 -9 0
-16 -4 -16 -10z"/>
<path d="M3632 6830 c0 -14 2 -19 5 -12 2 6 2 18 0 25 -3 6 -5 1 -5 -13z"/>
<path d="M3680 6831 c0 -25 6 -27 13 -6 4 8 2 17 -3 20 -6 4 -10 -3 -10 -14z"/>
<path d="M3732 6830 c0 -14 2 -19 5 -12 2 6 2 18 0 25 -3 6 -5 1 -5 -13z"/>
<path d="M4082 6810 c0 -14 2 -19 5 -12 2 6 2 18 0 25 -3 6 -5 1 -5 -13z"/>
<path d="M3802 6800 c0 -14 2 -19 5 -12 2 6 2 18 0 25 -3 6 -5 1 -5 -13z"/>
<path d="M4131 6804 c0 -11 3 -14 6 -6 3 7 2 16 -1 19 -3 4 -6 -2 -5 -13z"/>
<path d="M3661 6704 c0 -11 3 -14 6 -6 3 7 2 16 -1 19 -3 4 -6 -2 -5 -13z"/>
<path d="M3235 6680 c3 -5 8 -10 11 -10 2 0 4 5 4 10 0 6 -5 10 -11 10 -5 0
-7 -4 -4 -10z"/>
<path d="M4051 6674 c0 -11 3 -14 6 -6 3 7 2 16 -1 19 -3 4 -6 -2 -5 -13z"/>
<path d="M17900 6254 c-19 -34 3 -50 36 -26 20 16 21 18 7 35 -21 23 -27 22
-43 -9z"/>
<path d="M2498 6083 c7 -3 16 -2 19 1 4 3 -2 6 -13 5 -11 0 -14 -3 -6 -6z"/>
<path d="M2738 6053 c7 -3 16 -2 19 1 4 3 -2 6 -13 5 -11 0 -14 -3 -6 -6z"/>
<path d="M2273 6033 c9 -2 25 -2 35 0 9 3 1 5 -18 5 -19 0 -27 -2 -17 -5z"/>
<path d="M5073 6033 c9 -2 23 -2 30 0 6 3 -1 5 -18 5 -16 0 -22 -2 -12 -5z"/>
<path d="M2158 6003 c7 -3 16 -2 19 1 4 3 -2 6 -13 5 -11 0 -14 -3 -6 -6z"/>
<path d="M2602 5998 c-17 -17 -15 -28 4 -28 11 0 14 5 10 16 -6 15 0 16 51 11
32 -3 65 -2 73 3 10 7 -7 10 -55 10 -42 0 -76 -5 -83 -12z"/>
<path d="M4398 6003 c7 -3 16 -2 19 1 4 3 -2 6 -13 5 -11 0 -14 -3 -6 -6z"/>
<path d="M4798 6003 c7 -3 16 -2 19 1 4 3 -2 6 -13 5 -11 0 -14 -3 -6 -6z"/>
<path d="M1510 5990 c0 -5 5 -10 10 -10 6 0 10 5 10 10 0 6 -4 10 -10 10 -5 0
-10 -4 -10 -10z"/>
<path d="M2760 5990 c0 -6 17 -10 37 -10 43 0 41 5 -4 13 -19 4 -33 2 -33 -3z"/>
<path d="M3065 5990 c3 -5 8 -10 11 -10 2 0 4 5 4 10 0 6 -5 10 -11 10 -5 0
-7 -4 -4 -10z"/>
<path d="M4954 5988 c3 -10 1 -18 -4 -18 -5 0 -7 -7 -4 -15 10 -24 32 -17 49
15 16 30 16 30 -5 18 -17 -11 -22 -11 -31 2 -9 13 -10 12 -5 -2z"/>
<path d="M1370 5974 c0 -9 5 -14 12 -12 18 6 21 28 4 28 -9 0 -16 -7 -16 -16z"/>
<path d="M1590 5980 c0 -5 7 -10 16 -10 8 0 12 5 9 10 -3 6 -10 10 -16 10 -5
0 -9 -4 -9 -10z"/>
<path d="M1661 5980 c-11 -6 -10 -9 5 -13 10 -3 -11 -5 -48 -5 -38 1 -71 -2
-75 -5 -8 -9 117 -11 335 -8 17 1 32 6 32 12 0 7 -11 9 -28 6 -15 -3 -34 -2
-42 3 -9 5 -19 5 -27 -2 -14 -12 -110 -3 -128 12 -6 5 -17 5 -24 0z"/>
<path d="M1920 5980 c0 -5 7 -10 16 -10 8 0 12 5 9 10 -3 6 -10 10 -16 10 -5
0 -9 -4 -9 -10z"/>
<path d="M2895 5980 c-3 -5 1 -10 10 -10 9 0 13 5 10 10 -3 6 -8 10 -10 10 -2
0 -7 -4 -10 -10z"/>
<path d="M4417 5979 c7 -7 15 -10 18 -7 3 3 -2 9 -12 12 -14 6 -15 5 -6 -5z"/>
<path d="M4717 5983 c-4 -3 -7 -14 -7 -24 0 -10 -8 -20 -17 -22 -10 -3 39 -5
110 -6 101 -1 127 2 127 13 0 9 -13 13 -40 13 -22 0 -40 -4 -40 -8 0 -13 -54
-11 -67 2 -6 6 -9 18 -6 25 3 8 0 14 -7 14 -7 0 -10 -8 -7 -19 3 -12 -1 -22
-10 -25 -22 -9 -32 1 -26 24 5 20 2 25 -10 13z"/>
<path d="M1758 5973 c7 -3 16 -2 19 1 4 3 -2 6 -13 5 -11 0 -14 -3 -6 -6z"/>
<path d="M2988 5968 c18 -18 14 -30 -7 -23 -11 3 -22 1 -26 -5 -4 -6 19 -10
69 -10 61 0 74 3 70 14 -3 8 -12 12 -20 9 -8 -3 -14 1 -14 11 0 9 -7 16 -16
16 -11 0 -14 -6 -9 -22 l6 -23 -17 23 c-9 12 -24 22 -32 22 -12 0 -13 -3 -4
-12z"/>
<path d="M6255 5970 c-4 -6 7 -10 24 -10 17 0 31 5 31 10 0 6 -11 10 -24 10
-14 0 -28 -4 -31 -10z"/>
<path d="M5890 5960 c0 -5 6 -10 14 -10 8 0 18 5 21 10 3 6 -3 10 -14 10 -12
0 -21 -4 -21 -10z"/>
<path d="M6025 5959 c-16 -4 -25 -8 -20 -9 24 -5 187 2 212 10 34 10 -147 9
-192 -1z"/>
<path d="M5968 5953 c7 -3 16 -2 19 1 4 3 -2 6 -13 5 -11 0 -14 -3 -6 -6z"/>
<path d="M1940 5940 c8 -5 22 -10 30 -10 13 0 13 1 0 10 -8 5 -22 10 -30 10
-13 0 -13 -1 0 -10z"/>
<path d="M3607 5763 c-4 -3 3 -17 15 -31 22 -22 22 -24 6 -36 -10 -7 -18 -16
-18 -20 0 -11 46 -6 64 7 17 12 16 16 -18 50 -38 40 -39 40 -49 30z"/>
<path d="M3861 5697 c-25 -12 -46 -26 -48 -32 -4 -13 56 -47 69 -39 5 4 3 13
-6 23 -15 16 -14 19 9 29 14 6 25 18 25 27 0 8 -1 15 -2 14 -2 0 -23 -10 -47
-22z"/>
<path d="M9360 5599 c-34 -66 -59 -123 -56 -126 8 -9 109 -8 124 0 14 9 18
247 3 247 -4 0 -36 -54 -71 -121z"/>
<path d="M3702 5618 c-17 -17 -15 -63 3 -78 37 -31 92 35 59 71 -20 22 -45 24
-62 7z"/>
<path d="M3669 5461 c-33 -33 -37 -67 -14 -111 18 -34 31 -37 57 -13 15 14 22
14 45 4 24 -11 29 -10 45 9 42 52 -3 140 -72 140 -22 0 -41 -9 -61 -29z"/>
</g>
</svg>
