<?xml version="1.0" standalone="no"?>
<!DOCTYPE svg PUBLIC "-//W3C//DTD SVG 20010904//EN"
 "http://www.w3.org/TR/2001/REC-SVG-20010904/DTD/svg10.dtd">
<svg version="1.0" xmlns="http://www.w3.org/2000/svg"
 width="64px" height="64px" viewBox="0 0 1080.000000 1080.000000"
 preserveAspectRatio="xMidYMid meet">

<g transform="translate(0.000000,1080.000000) scale(0.100000,-0.100000)"
fill="#000000" stroke="none">
<path d="M7835 9474 c-82 -7 -179 -18 -215 -24 -215 -39 -391 -80 -608 -144
-68 -20 -127 -36 -132 -36 -5 0 -19 18 -31 39 -52 93 -157 123 -246 69 -64
-38 -90 -116 -70 -209 l7 -36 -132 -58 c-506 -224 -940 -542 -1225 -895 -214
-266 -376 -629 -434 -975 -16 -94 -22 -474 -10 -615 40 -462 233 -997 527
-1465 77 -122 112 -150 193 -150 46 0 64 6 99 30 44 31 82 94 82 136 0 14 -12
65 -27 114 -23 77 -27 107 -26 210 0 103 4 131 27 199 65 191 183 329 355 416
61 30 70 32 145 28 62 -4 99 -12 159 -37 147 -62 397 -226 640 -419 179 -142
240 -161 329 -102 51 34 78 85 78 148 0 44 -29 109 -59 136 -37 33 -55 117
-54 251 0 139 22 220 93 343 39 67 159 202 179 202 16 0 20 -11 222 -542 106
-277 200 -523 209 -548 26 -67 112 -294 263 -690 74 -195 176 -463 227 -595
50 -132 116 -303 145 -380 29 -77 142 -372 250 -655 108 -283 239 -625 290
-760 51 -135 154 -406 229 -602 76 -197 135 -362 131 -368 -10 -16 -3360 -14
-3372 2 -6 7 -21 42 -35 78 -139 360 -322 824 -340 858 -23 47 -54 72 -107 90
-25 9 -525 12 -1932 12 l-1898 0 -31 81 c-61 160 -125 323 -408 1039 -77 195
-157 398 -177 450 -20 52 -75 192 -122 310 -47 118 -105 267 -130 330 -71 181
-148 376 -248 630 -51 129 -112 285 -135 345 -54 138 -81 179 -134 205 -80 38
-161 20 -213 -48 -25 -33 -28 -45 -28 -107 1 -64 8 -88 79 -265 104 -260 384
-971 643 -1630 75 -190 161 -410 193 -490 31 -80 134 -341 228 -581 l172 -437
-44 -93 c-109 -234 -379 -774 -389 -781 -7 -4 -182 -8 -390 -8 -358 0 -380 -1
-417 -20 -52 -26 -90 -91 -90 -151 1 -57 25 -104 73 -143 l39 -31 5229 -3
5229 -2 0 175 0 175 -424 0 c-327 0 -426 3 -433 13 -6 6 -45 104 -88 217 -43
113 -104 273 -135 355 -55 142 -171 448 -585 1535 -97 256 -246 645 -330 865
-84 220 -228 598 -320 840 -92 242 -178 467 -190 500 -27 69 -132 343 -265
693 -51 136 -89 250 -86 259 6 14 20 15 99 10 172 -10 318 -77 447 -207 95
-94 133 -160 156 -269 25 -117 82 -171 181 -171 62 0 110 25 146 75 23 33 34
73 62 225 81 426 133 619 205 761 63 124 100 155 229 189 224 60 491 -23 658
-204 48 -53 84 -106 123 -182 65 -126 89 -147 179 -148 107 -1 172 65 176 180
1 35 -2 64 -8 64 -5 0 -7 11 -5 25 9 47 -51 303 -126 543 -320 1008 -972 1650
-1831 1801 -230 41 -429 48 -690 25z m515 -354 c356 -43 682 -182 945 -404
202 -170 397 -429 543 -721 55 -109 153 -347 147 -354 -2 -1 -48 13 -102 32
-157 55 -262 71 -419 64 -196 -9 -358 -62 -463 -153 -62 -53 -150 -177 -191
-268 -19 -41 -40 -75 -47 -76 -6 0 -19 32 -28 73 -51 232 -186 603 -322 883
-143 296 -404 691 -576 871 -42 44 -41 47 13 56 53 9 420 6 500 -3z m-857
-202 c372 -386 664 -896 842 -1470 38 -123 115 -431 115 -460 0 -24 -17 -22
-70 8 -68 40 -205 89 -302 109 -133 27 -339 17 -468 -23 -184 -58 -292 -119
-423 -239 -133 -122 -216 -251 -281 -433 -15 -41 -29 -81 -31 -89 -9 -23 -41
14 -137 158 -239 359 -399 712 -468 1031 -71 327 -82 604 -35 875 16 91 46
199 65 234 12 23 255 144 410 204 229 89 308 116 465 162 88 26 165 48 170 50
6 2 14 4 20 4 5 1 63 -54 128 -121z m-1629 -620 c-13 -79 -7 -456 10 -583 35
-259 124 -571 235 -830 50 -115 183 -369 224 -428 10 -16 16 -31 13 -34 -3 -3
-48 4 -98 17 -164 41 -282 27 -443 -50 -193 -94 -349 -246 -450 -442 -31 -60
-58 -108 -60 -108 -2 0 -21 46 -43 103 -74 191 -140 454 -162 642 -13 116 -13
411 0 512 51 383 223 730 507 1018 118 121 239 225 261 225 11 0 12 -9 6 -42z
m-358 -6338 c174 -438 183 -465 169 -473 -7 -4 -967 -6 -2132 -5 -1947 3
-2118 4 -2115 19 1 9 74 163 162 343 l160 326 1837 -2 1837 -3 82 -205z"/>
</g>
</svg>
