<?xml version="1.0" standalone="no"?>
<!DOCTYPE svg PUBLIC "-//W3C//DTD SVG 20010904//EN"
 "http://www.w3.org/TR/2001/REC-SVG-20010904/DTD/svg10.dtd">
<svg version="1.0" xmlns="http://www.w3.org/2000/svg"
 width="64px" height="64px" viewBox="0 0 1080.000000 1080.000000"
 preserveAspectRatio="xMidYMid meet">

<g transform="translate(0.000000,1080.000000) scale(0.100000,-0.100000)"
fill="#000000" stroke="none">
<path d="M4217 10383 c-4 -3 -7 -203 -7 -444 l0 -439 -187 -2 -188 -3 -3 -612
-2 -613 -120 0 c-89 0 -120 -3 -120 -12 0 -7 0 -1842 0 -4078 0 -2236 0 -4071
0 -4077 0 -10 317 -13 1550 -13 l1550 0 0 4090 0 4090 -105 0 -105 0 0 599 c0
330 -3 606 -6 615 -6 14 -88 16 -835 16 l-829 0 -2 443 -3 442 -291 3 c-160 1
-293 -1 -297 -5z m524 -83 c1 -11 2 -27 2 -35 0 -8 -1 -184 -2 -390 l-1 -375
-235 0 -235 0 0 403 c0 222 3 407 7 410 3 4 109 7 235 7 221 0 228 -1 229 -20z
m1667 -1487 l2 -613 120 0 c116 0 120 -1 125 -22 3 -13 4 -1821 3 -4018 l-3
-3995 -1500 0 -1500 0 -3 4017 -2 4017 122 3 123 3 3 613 2 612 1253 -2 1252
-3 3 -612z"/>
<path d="M4210 8775 l0 -425 170 0 170 0 0 425 0 425 -170 0 -170 0 0 -425z
m270 10 c0 -190 0 -348 0 -352 0 -5 -47 -9 -105 -11 l-105 -3 0 356 0 355 105
0 105 0 0 -345z"/>
<path d="M4980 8775 l0 -425 170 0 170 0 0 425 0 425 -170 0 -170 0 0 -425z
m280 0 l0 -355 -105 0 -105 0 0 355 0 355 105 0 105 0 0 -355z"/>
<path d="M5758 8785 c-2 -228 -1 -420 0 -425 2 -6 69 -10 173 -10 l169 0 -2
423 -3 422 -167 3 -168 2 -2 -415z m272 -10 l0 -355 -105 0 -105 0 0 355 0
355 105 0 105 0 0 -355z"/>
<path d="M4064 7681 c-2 -2 -4 -1536 -4 -3408 l0 -3403 1093 2 1092 3 3 3402
2 3403 -1091 2 c-600 2 -1093 1 -1095 -1z m678 -351 c0 -159 1 -296 2 -302 1
-10 -67 -13 -309 -13 l-310 0 -3 290 c-1 159 0 295 3 302 3 10 73 13 310 13
l305 0 2 -290z m763 -15 l0 -300 -345 0 -345 0 -3 290 c-1 159 0 295 3 303 3
10 77 12 347 10 l343 -3 0 -300z m675 0 l0 -305 -302 2 -303 3 -3 290 c-1 159
0 295 3 302 3 10 72 13 305 13 l300 0 0 -305z m-1438 -658 c2 -156 2 -291 0
-300 -3 -15 -32 -17 -313 -17 l-309 0 0 300 0 300 310 0 309 0 3 -283z m766
-14 l-3 -298 -347 -3 -348 -2 0 300 0 300 350 0 350 0 -2 -297z m672 -3 l0
-300 -305 0 -305 0 0 300 0 300 305 0 305 0 0 -300z m-1440 -675 l0 -305 -307
2 -308 3 -3 290 c-1 159 0 295 3 302 3 10 73 13 310 13 l305 0 0 -305z m765 0
l0 -300 -345 0 -345 0 -3 290 c-1 159 0 295 3 303 3 10 77 12 347 10 l343 -3
0 -300z m675 0 l0 -305 -302 2 -303 3 -3 290 c-1 159 0 295 3 302 3 10 72 13
305 13 l300 0 0 -305z m-1438 -657 c2 -161 1 -299 -1 -305 -2 -10 -73 -13
-312 -13 l-309 0 0 298 c0 164 3 302 7 305 3 4 143 7 309 7 l303 0 3 -292z
m759 280 c2 -21 2 -39 1 -325 l-2 -273 -345 0 -345 0 0 298 c0 164 3 302 7
305 3 4 159 7 345 7 263 0 338 -3 339 -12z m679 -293 l0 -305 -305 0 -305 0 0
298 c0 164 3 302 7 305 3 4 141 7 305 7 l298 0 0 -305z m-1439 -635 c1 -143 2
-273 2 -290 0 -16 -1 -37 -2 -45 -1 -13 -40 -15 -308 -13 l-308 3 -3 303 -2
302 310 0 310 0 1 -260z m757 -42 l-3 -303 -340 0 -340 0 -3 303 -2 302 345 0
345 0 -2 -302z m682 -3 l0 -305 -305 0 -305 0 0 305 0 305 305 0 305 0 0 -305z
m-1439 -380 c1 -8 2 -28 2 -45 0 -16 -1 -147 -2 -290 l-1 -260 -310 0 -310 0
0 298 c0 164 3 302 7 305 3 4 143 7 310 7 262 0 303 -2 304 -15z m757 -292 l2
-303 -345 0 -345 0 0 298 c0 164 3 302 7 305 4 4 158 6 342 5 l336 -3 3 -302z
m680 0 l2 -303 -305 0 -305 0 0 298 c0 164 3 302 7 305 4 4 140 6 302 5 l296
-3 3 -302z m-1438 -390 c1 -16 0 -528 0 -576 0 -16 -19 -17 -307 -15 l-308 3
-3 303 -2 302 310 0 c288 0 310 -1 310 -17z m758 -285 l-3 -303 -340 0 -340 0
-3 303 -2 302 345 0 345 0 -2 -302z m682 -3 l0 -305 -305 0 c-196 0 -305 4
-306 10 -1 6 -1 17 -1 25 0 8 0 141 1 295 l1 280 305 0 305 0 0 -305z m-1440
-670 l0 -305 -307 2 -308 3 -3 290 c-1 159 0 295 3 302 3 10 73 13 310 13
l305 0 0 -305z m755 0 l0 -300 -340 0 -340 0 -3 290 c-1 159 0 295 3 303 3 10
76 12 342 10 l338 -3 0 -300z m685 0 l0 -305 -307 2 -308 3 -3 290 c-1 159 0
295 3 302 3 10 73 13 310 13 l305 0 0 -305z m-1440 -392 c0 -10 1 -145 3 -301
l2 -282 -30 -6 c-16 -3 -156 -4 -310 -2 l-280 3 -3 303 -2 302 310 0 c289 0
310 -1 310 -17z m760 -282 l0 -300 -52 -6 c-29 -4 -183 -5 -343 -3 l-290 3 -3
303 -2 302 345 0 345 0 0 -299z m681 22 c1 -312 1 -315 -15 -325 -13 -9 -551
-10 -583 -2 l-23 6 0 292 c0 161 3 296 7 299 3 4 143 7 310 7 l303 0 1 -277z
m-1441 -698 l0 -305 -310 0 -310 0 0 298 c0 164 3 302 7 305 3 4 143 7 310 7
l303 0 0 -305z m755 0 l0 -300 -342 -3 -343 -2 0 298 c0 164 3 302 7 305 4 4
158 6 342 5 l336 -3 0 -300z m685 0 l0 -305 -310 0 -310 0 0 298 c0 164 3 302
7 305 3 4 143 7 310 7 l303 0 0 -305z"/>
<path d="M7360 8155 l0 -355 -155 0 -155 0 0 -505 0 -505 -100 0 -100 0 0
-3355 0 -3355 1290 0 1290 0 0 3355 0 3354 -97 3 -98 3 -3 502 -2 503 -683 2
-682 3 -3 353 -2 352 -250 0 -250 0 0 -355z m445 -15 l0 -335 -190 0 -190 0
-3 338 -2 337 192 -2 193 -3 0 -335z m1367 -892 l3 -503 100 -5 100 -5 0
-3300 0 -3300 -1232 -3 -1233 -2 0 3305 0 3305 100 0 100 0 0 505 0 505 1030
0 1030 0 2 -502z"/>
<path d="M7365 7548 c-3 -7 -4 -164 -3 -348 l3 -335 140 0 140 0 0 345 0 345
-138 3 c-105 2 -139 0 -142 -10z m225 -333 l0 -295 -85 0 -85 0 0 295 0 295
85 0 85 0 0 -295z"/>
<path d="M8002 7213 l3 -348 138 -3 137 -3 0 351 0 350 -140 0 -140 0 2 -347z
m226 0 l2 -293 -90 0 -90 0 0 288 c0 159 3 292 7 296 4 4 43 5 88 4 l80 -3 3
-292z"/>
<path d="M8640 7210 l0 -351 138 3 137 3 3 348 2 347 -140 0 -140 0 0 -350z
m220 5 l0 -295 -85 0 -85 0 0 288 c0 159 3 292 7 295 3 4 42 7 85 7 l78 0 0
-295z"/>
<path d="M7247 6313 c-4 -3 -7 -1263 -7 -2800 l0 -2793 900 0 900 0 0 2800 0
2800 -893 0 c-492 0 -897 -3 -900 -7z m558 -303 l0 -245 -255 0 -255 0 -3 248
-2 247 257 -2 258 -3 0 -245z m625 0 l0 -250 -285 0 -285 0 0 250 0 250 285 0
285 0 0 -250z m558 3 l-3 -248 -247 -3 -248 -2 0 250 0 250 250 0 250 0 -2
-247z m-1183 -553 l0 -245 -257 -3 -258 -2 0 243 c0 134 3 247 7 251 4 3 119
5 257 4 l251 -3 0 -245z m625 0 l0 -250 -285 0 -285 0 0 250 0 250 285 0 285
0 0 -250z m560 0 l0 -250 -250 0 -250 0 0 250 0 250 250 0 250 0 0 -250z
m-1182 -530 c2 -118 0 -230 -3 -248 l-6 -32 -252 2 -252 3 -3 248 -2 247 257
-2 258 -3 3 -215z m620 -27 l-3 -248 -280 0 -280 0 -3 248 -2 247 285 0 285 0
-2 -247z m560 0 l-3 -248 -250 0 -250 0 0 60 c1 33 2 144 3 248 l2 187 250 0
250 0 -2 -247z m-1183 -346 c4 -23 5 -135 3 -247 l-3 -205 -257 -3 -258 -2 0
243 c0 134 3 247 7 250 3 4 118 7 254 7 l248 0 6 -43z m625 -207 l0 -250 -285
0 -285 0 0 250 0 250 285 0 285 0 0 -250z m560 0 l0 -250 -255 0 -255 0 0 243
c0 134 3 247 7 250 3 4 118 7 255 7 l248 0 0 -250z m-1182 -539 c2 -124 1
-235 -3 -248 l-5 -23 -253 2 -252 3 -3 248 -2 247 257 -2 258 -3 3 -224z m620
-18 l-3 -248 -280 0 -280 0 -3 248 -2 247 285 0 285 0 -2 -247z m560 0 l-3
-248 -250 0 -250 0 -3 248 -2 247 255 0 255 0 -2 -247z m-1184 -325 c9 -34 7
-451 -2 -466 -7 -9 -65 -12 -258 -10 l-249 3 -3 235 c-1 129 0 240 2 247 4 10
62 13 255 13 l249 0 6 -22z m624 -225 l-3 -248 -282 -3 -283 -2 0 250 0 250
285 0 285 0 -2 -247z m562 -3 l0 -250 -252 2 -253 3 -3 235 c-1 129 0 240 2
247 4 10 62 13 256 13 l250 0 0 -250z m-1185 -323 c4 -13 5 -124 3 -248 l-3
-224 -257 -3 -258 -2 0 243 c0 134 3 247 7 250 3 4 118 7 254 7 l249 0 5 -23z
m623 -229 l2 -248 -285 0 -285 0 0 243 c0 134 3 247 7 250 4 4 131 6 282 5
l276 -3 3 -247z m560 0 l2 -248 -255 0 -255 0 0 243 c0 134 3 247 7 251 4 3
117 5 252 4 l246 -3 3 -247z m-1183 -558 l0 -245 -255 0 -255 0 -3 248 -2 247
257 -2 258 -3 0 -245z m620 0 l0 -245 -282 -3 -283 -2 0 250 0 250 283 -2 282
-3 0 -245z m563 3 l-3 -248 -252 -3 -253 -2 0 250 0 250 255 0 255 0 -2 -247z
m-1185 -317 c3 -8 5 -119 4 -248 l-2 -233 -257 -3 -258 -2 0 243 c0 134 3 247
7 250 3 4 118 7 254 7 204 0 248 -2 252 -14z m618 2 c2 -7 3 -120 1 -250 l-3
-238 -280 0 -279 0 0 243 c0 134 3 247 7 250 3 4 129 7 279 7 209 0 273 -3
275 -12z m567 -240 l2 -248 -255 0 -255 0 0 243 c0 134 3 247 7 251 4 3 117 5
252 4 l246 -3 3 -247z m-1180 -537 c2 -123 1 -234 -2 -247 l-6 -24 -253 2
-252 3 -3 248 -2 247 257 -2 258 -3 3 -224z m612 -21 l0 -250 -280 0 -280 0 0
250 0 250 280 0 280 0 0 -250z m568 3 l-3 -248 -252 -3 -253 -2 0 250 0 250
255 0 255 0 -2 -247z"/>
<path d="M1670 7030 l0 -300 -130 0 -130 0 -2 -407 c-1 -225 -2 -420 -1 -435
0 -28 0 -28 -74 -29 -40 -1 -79 -2 -85 -3 -10 -1 -14 -588 -16 -2894 l-2
-2892 1110 0 1110 0 0 2895 0 2895 -85 0 -85 0 0 435 0 435 -590 0 -590 0 0
300 0 300 -215 0 -215 0 0 -300z m380 -10 l0 -290 -165 0 -165 0 0 290 0 290
165 0 165 0 0 -290z m1180 -775 l0 -434 88 -3 87 -3 0 -2845 0 -2845 -1062 -3
-1063 -2 0 2850 0 2850 85 0 85 0 0 435 0 435 890 0 890 0 0 -435z"/>
<path d="M1675 6508 c-3 -7 -4 -144 -3 -303 l3 -290 120 0 120 0 0 300 0 300
-118 3 c-89 2 -119 -1 -122 -10z m195 -293 l0 -255 -75 0 -75 0 0 255 0 255
75 0 75 0 0 -255z"/>
<path d="M2225 6507 c-3 -7 -4 -143 -3 -302 l3 -290 115 0 115 0 3 303 2 302
-115 0 c-84 0 -117 -3 -120 -13z m193 -289 l-3 -253 -72 -3 -73 -3 0 256 0
255 75 0 75 0 -2 -252z"/>
<path d="M2772 6218 l3 -303 115 0 115 0 3 303 2 302 -120 0 -120 0 2 -302z
m188 -3 l0 -256 -70 3 -70 3 -1 245 c0 135 0 248 0 253 1 4 33 7 71 7 l70 0 0
-255z"/>
<path d="M1560 3030 l0 -2410 780 0 780 0 0 2410 0 2410 -780 0 -780 0 0
-2410z m490 2155 l0 -215 -220 0 -220 0 0 215 0 215 220 0 220 0 0 -215z m540
0 l0 -215 -245 0 -245 0 0 215 0 215 245 0 245 0 0 -215z m480 0 l0 -215 -215
0 -215 0 0 215 0 215 215 0 215 0 0 -215z m-1020 -480 l0 -215 -220 0 -220 0
0 215 0 215 220 0 220 0 0 -215z m540 0 l0 -215 -245 0 -245 0 0 215 0 215
245 0 245 0 0 -215z m480 0 l0 -215 -215 0 -215 0 0 215 0 215 215 0 215 0 0
-215z m-1020 -480 l0 -215 -220 0 -220 0 0 215 0 215 220 0 220 0 0 -215z
m540 0 l0 -215 -245 0 -245 0 0 215 0 215 245 0 245 0 0 -215z m480 0 l0 -215
-215 0 -215 0 0 215 0 215 215 0 215 0 0 -215z m-1020 -480 l0 -215 -220 0
-220 0 0 215 0 215 220 0 220 0 0 -215z m540 0 l0 -215 -245 0 -245 0 0 215 0
215 245 0 245 0 0 -215z m480 0 l0 -215 -215 0 -215 0 0 215 0 215 215 0 215
0 0 -215z m-1020 -475 l0 -220 -217 2 -218 3 -3 205 c-1 112 0 210 2 217 4 10
55 13 221 13 l215 0 0 -220z m538 3 l-3 -218 -242 -3 -243 -2 0 220 0 220 245
0 245 0 -2 -217z m482 -3 l0 -220 -215 0 -215 0 0 220 0 220 215 0 215 0 0
-220z m-1020 -475 l0 -215 -220 0 -220 0 0 215 0 215 220 0 220 0 0 -215z
m540 0 l0 -215 -245 0 -245 0 0 215 0 215 245 0 245 0 0 -215z m480 0 l0 -215
-217 2 -218 3 1 28 c1 15 2 110 3 212 l1 185 215 0 215 0 0 -215z m-1020 -480
l0 -215 -220 0 -220 0 0 215 0 215 220 0 220 0 0 -215z m540 0 l0 -215 -245 0
-245 0 0 215 0 215 245 0 245 0 0 -215z m480 0 l0 -215 -220 0 -220 0 0 208
c0 115 3 212 7 215 3 4 102 7 220 7 l213 0 0 -215z m-1020 -480 l0 -215 -220
0 -220 0 0 215 0 215 220 0 220 0 0 -215z m538 3 l-3 -213 -242 -3 -243 -2 0
215 0 215 245 0 245 0 -2 -212z m482 -3 l0 -215 -217 2 -218 3 -3 213 -2 212
220 0 220 0 0 -215z m-1036 -261 c14 -5 16 -34 16 -220 l0 -214 -217 2 -218 3
-3 212 -2 213 197 3 c109 1 201 3 205 5 3 1 13 -1 22 -4z m549 -4 c9 0 9 -180
0 -323 l-6 -107 -239 0 -238 0 0 214 c0 193 2 215 17 218 12 2 361 1 466 -2z
m487 -210 l0 -220 -217 2 -218 3 -3 212 -2 213 207 3 c115 1 214 3 221 5 9 1
12 -47 12 -218z m-1020 -475 l0 -215 -220 0 -220 0 0 215 0 215 220 0 220 0 0
-215z m528 -2 c-2 -120 -6 -217 -10 -215 -5 1 -111 2 -238 2 l-230 0 0 215 0
215 240 0 240 0 -2 -217z m492 2 l0 -215 -220 0 -220 0 0 208 c0 115 3 212 7
215 3 4 102 7 220 7 l213 0 0 -215z"/>
</g>
</svg>
