<?xml version="1.0" standalone="no"?>
<!DOCTYPE svg PUBLIC "-//W3C//DTD SVG 20010904//EN"
 "http://www.w3.org/TR/2001/REC-SVG-20010904/DTD/svg10.dtd">
<svg version="1.0" xmlns="http://www.w3.org/2000/svg"
 width="100.000000pt" height="104.000000pt" viewBox="0 0 100.000000 104.000000"
 preserveAspectRatio="xMidYMid meet">

<g transform="translate(0.000000,104.000000) scale(0.100000,-0.100000)"
fill="#000000" stroke="none">
<path d="M410 968 c0 -7 23 -46 50 -87 28 -40 50 -77 50 -82 0 -4 -17 -1 -37
8 -28 11 -57 14 -112 10 -80 -6 -123 -26 -53 -25 40 0 153 -32 182 -53 12 -9
12 -12 2 -16 -28 -11 -83 -67 -107 -108 -15 -25 -27 -66 -31 -103 -5 -47 -11
-61 -25 -65 -26 -7 -24 -22 6 -41 15 -10 25 -26 25 -39 0 -47 31 -124 65 -164
47 -55 99 -73 185 -62 114 14 184 53 227 127 25 42 28 58 29 142 1 52 4 106 5
120 3 21 0 24 -18 22 -16 -2 -24 5 -33 32 -19 57 -84 122 -146 146 -31 11 -60
18 -65 15 -16 -11 -10 6 17 41 22 28 27 48 31 107 l4 72 -20 -48 c-10 -26 -32
-62 -48 -80 l-29 -34 -17 47 c-17 49 -40 73 -99 109 -27 16 -38 19 -38 9z
m124 -117 c2 -9 7 -29 10 -46 l7 -30 -21 25 c-11 14 -20 28 -20 32 0 4 -11 24
-25 44 -14 20 -25 42 -25 47 0 15 69 -53 74 -72z m97 -22 c-16 -37 -61 -87
-61 -68 0 15 61 100 68 94 1 -1 -2 -13 -7 -26z m-165 -40 c18 -5 40 -19 50
-31 19 -21 19 -21 -6 -8 -14 8 -54 24 -90 37 -53 19 -58 22 -25 17 22 -3 54
-10 71 -15z m219 -78 c88 -41 155 -162 163 -292 2 -43 1 -90 -3 -106 l-8 -28
-6 24 c-9 35 -29 37 -43 6 -9 -20 -9 -34 -1 -55 13 -35 9 -40 -71 -75 -67 -30
-129 -40 -180 -31 -31 6 -36 11 -36 35 0 35 -32 77 -49 66 -7 -4 -11 -18 -8
-32 4 -22 3 -23 -14 -7 -37 33 -76 217 -63 300 12 85 89 182 161 204 48 14
116 10 158 -9z m172 -193 c-3 -8 -6 -5 -6 6 -1 11 2 17 5 13 3 -3 4 -12 1 -19z
m-45 -240 c-10 -22 -11 -21 -11 12 -1 26 2 31 11 22 8 -8 8 -17 0 -34z m-327
-75 c3 -13 2 -23 -3 -23 -11 0 -22 24 -22 48 0 21 15 5 25 -25z"/>
<path d="M620 575 c0 -8 5 -15 10 -15 6 0 10 7 10 15 0 8 -4 15 -10 15 -5 0
-10 -7 -10 -15z"/>
<path d="M500 550 c0 -5 5 -10 10 -10 6 0 10 5 10 10 0 6 -4 10 -10 10 -5 0
-10 -4 -10 -10z"/>
<path d="M612 323 c3 -51 24 -69 34 -29 9 35 -3 76 -22 76 -12 0 -14 -10 -12
-47z m19 -20 c-9 -15 -10 -12 -10 17 0 29 1 32 10 18 7 -12 7 -24 0 -35z"/>
<path d="M296 945 c4 -8 10 -15 15 -15 4 0 6 7 3 15 -4 8 -10 15 -15 15 -4 0
-6 -7 -3 -15z"/>
<path d="M240 929 c0 -12 32 -49 43 -49 2 0 4 10 4 22 2 16 0 19 -6 9 -7 -10
-12 -8 -25 10 -11 16 -16 18 -16 8z"/>
<path d="M210 915 c0 -13 32 -66 36 -62 6 6 -23 67 -31 67 -3 0 -5 -2 -5 -5z"/>
<path d="M308 913 c6 -2 9 -10 6 -15 -4 -7 -2 -8 4 -4 18 11 14 26 -5 25 -11
0 -13 -3 -5 -6z"/>
<path d="M185 867 c8 -13 12 -28 8 -33 -4 -5 -2 -4 6 2 10 9 10 17 2 33 -7 12
-16 21 -22 21 -5 0 -3 -10 6 -23z"/>
<path d="M136 853 c4 -12 12 -28 20 -34 20 -17 17 2 -6 31 -18 24 -19 24 -14
3z"/>
<path d="M94 823 c1 -21 6 -28 20 -28 26 0 31 19 11 39 -23 23 -32 20 -31 -11z
m34 -12 c3 -8 -1 -12 -9 -9 -7 2 -15 10 -17 17 -3 8 1 12 9 9 7 -2 15 -10 17
-17z"/>
<path d="M785 834 c-6 -8 -18 -16 -27 -18 -29 -4 -33 -16 -5 -16 14 0 28 4 32
10 3 5 14 1 25 -10 11 -11 34 -20 50 -20 27 0 29 -2 18 -20 -10 -16 -9 -23 11
-44 15 -16 22 -32 18 -46 -3 -11 -2 -20 3 -20 4 0 10 12 13 27 3 19 -1 31 -17
44 -18 15 -19 21 -8 38 17 29 16 31 -22 31 -36 0 -66 21 -66 46 0 19 -13 18
-25 -2z"/>
</g>
</svg>
