<?xml version="1.0" standalone="no"?>
<!DOCTYPE svg PUBLIC "-//W3C//DTD SVG 20010904//EN"
 "http://www.w3.org/TR/2001/REC-SVG-20010904/DTD/svg10.dtd">
<svg version="1.0" xmlns="http://www.w3.org/2000/svg"
 width="118.000000pt" height="119.000000pt" viewBox="0 0 118.000000 119.000000"
 preserveAspectRatio="xMidYMid meet">

<g transform="translate(0.000000,119.000000) scale(0.100000,-0.100000)"
fill="#000000" stroke="none">
<path d="M665 1036 c-60 -28 -77 -46 -106 -110 -15 -34 -19 -59 -15 -85 6 -37
5 -37 -40 -49 -35 -10 -62 -28 -110 -76 -53 -54 -66 -73 -80 -125 -15 -51 -20
-60 -36 -55 -23 7 -25 -26 -4 -59 8 -12 19 -50 25 -84 10 -62 31 -113 59 -146
14 -16 14 -19 -4 -31 -29 -22 -5 -42 33 -28 21 7 52 6 109 -4 87 -16 148 -11
209 16 22 10 57 21 78 25 38 6 60 31 39 44 -7 4 -6 23 4 61 8 30 14 68 14 85
0 16 9 44 20 60 26 39 26 59 0 52 -15 -4 -21 2 -30 32 -6 20 -16 53 -22 74
-16 52 -75 117 -133 146 l-47 23 43 29 c46 30 115 49 179 49 49 0 51 11 5 33
-62 30 -119 17 -198 -45 l-42 -33 24 34 c26 36 110 81 170 90 61 10 50 31 -16
31 -92 -1 -143 -31 -205 -120 l-17 -25 10 35 c5 19 9 36 9 37 0 12 121 123
133 123 10 0 17 5 17 10 0 16 -21 12 -75 -14z m-48 -63 c-14 -16 -33 -44 -41
-63 -8 -19 -15 -28 -15 -20 0 25 56 109 73 110 6 0 -2 -12 -17 -27z m158 -7
c-68 -22 -122 -54 -156 -93 -27 -32 -29 -33 -14 -8 46 78 102 112 185 113 18
1 14 -3 -15 -12z m55 -66 c-8 -5 -28 -10 -45 -10 -16 0 -50 -10 -75 -21 -50
-22 -38 -2 15 25 33 18 131 23 105 6z m-144 -142 c46 -29 91 -79 106 -117 29
-74 40 -140 35 -211 -8 -115 -22 -146 -90 -194 l-59 -41 -111 1 c-151 1 -191
23 -238 129 -28 62 -30 174 -6 257 20 67 94 155 157 186 58 28 152 24 206 -10z
m-396 -259 c0 -6 -4 -7 -10 -4 -5 3 -10 11 -10 16 0 6 5 7 10 4 6 -3 10 -11
10 -16z m570 1 c0 -5 -4 -10 -10 -10 -5 0 -10 5 -10 10 0 6 5 10 10 10 6 0 10
-4 10 -10z m-60 -255 c-33 -19 -50 -18 -26 0 11 8 27 15 35 15 10 -1 7 -6 -9
-15z m-420 -45 c-8 -5 -17 -7 -19 -4 -3 3 1 9 9 14 8 5 17 7 19 4 3 -3 -1 -9
-9 -14z"/>
<path d="M473 584 c-4 -10 1 -22 12 -30 15 -11 22 -11 46 3 27 16 31 16 60 -1
28 -16 33 -17 46 -3 9 9 13 23 10 31 -7 18 -42 22 -52 6 -3 -5 -17 -10 -30
-10 -13 0 -27 5 -30 10 -10 16 -55 11 -62 -6z"/>
<path d="M552 400 c2 -8 15 -15 28 -15 13 0 26 7 28 15 5 13 3 13 -11 1 -14
-11 -20 -11 -34 0 -14 12 -16 12 -11 -1z"/>
<path d="M294 915 c-10 -26 4 -45 33 -44 24 2 25 2 6 6 -14 3 -23 12 -23 23 0
11 9 20 23 23 19 4 18 4 -6 6 -16 0 -30 -5 -33 -14z"/>
<path d="M378 924 c-9 -9 -11 -54 -2 -54 3 0 12 7 20 15 9 8 11 15 5 15 -5 0
-11 7 -13 16 -2 9 -6 12 -10 8z"/>
<path d="M304 849 c-3 -6 0 -15 7 -20 30 -19 89 -3 75 20 -4 6 -22 11 -41 11
-19 0 -37 -5 -41 -11z m66 -9 c0 -5 -11 -10 -25 -10 -14 0 -25 5 -25 10 0 6
11 10 25 10 14 0 25 -4 25 -10z"/>
<path d="M161 815 c0 -17 -8 -41 -17 -53 -14 -21 -14 -22 7 -19 17 1 25 -5 30
-23 l7 -25 1 25 c1 14 5 32 10 40 7 10 4 18 -9 27 -10 7 -21 23 -23 36 -3 17
-5 15 -6 -8z m24 -45 c3 -5 1 -10 -4 -10 -6 0 -11 5 -11 10 0 6 2 10 4 10 3 0
8 -4 11 -10z"/>
<path d="M890 765 c0 -14 3 -25 8 -25 4 0 7 11 7 25 0 14 -3 25 -7 25 -5 0 -8
-11 -8 -25z"/>
<path d="M970 764 c0 -15 3 -23 8 -18 4 5 10 11 13 14 4 3 1 11 -7 18 -12 11
-14 8 -14 -14z"/>
<path d="M900 721 c-23 -16 2 -33 41 -29 22 2 34 8 34 18 0 18 -52 25 -75 11z
m60 -11 c0 -5 -12 -10 -26 -10 -14 0 -23 4 -19 10 3 6 15 10 26 10 10 0 19 -4
19 -10z"/>
<path d="M1012 567 c-7 -15 -19 -30 -27 -33 -22 -9 -19 -24 5 -24 15 0 20 -7
20 -25 0 -14 5 -25 10 -25 6 0 10 13 10 29 0 17 5 33 10 36 7 4 8 11 2 18 -6
7 -12 21 -14 32 -4 18 -6 17 -16 -8z m18 -31 c0 -3 -4 -8 -10 -11 -5 -3 -10
-1 -10 4 0 6 5 11 10 11 6 0 10 -2 10 -4z"/>
</g>
</svg>
