<?xml version="1.0" standalone="no"?>
<!DOCTYPE svg PUBLIC "-//W3C//DTD SVG 20010904//EN"
 "http://www.w3.org/TR/2001/REC-SVG-20010904/DTD/svg10.dtd">
<svg version="1.0" xmlns="http://www.w3.org/2000/svg"
 width="2346.000000pt" height="1154.000000pt" viewBox="0 0 2346.000000 1154.000000"
 preserveAspectRatio="xMidYMid meet">

<g transform="translate(0.000000,1154.000000) scale(0.100000,-0.100000)"
fill="#000000" stroke="none">
<path d="M7683 11225 c-53 -32 -77 -72 -113 -187 -126 -404 -233 -975 -296
-1577 l-6 -64 -67 6 c-104 9 -96 -5 -93 175 10 486 -118 909 -373 1237 -115
148 -328 331 -447 385 -142 64 -291 -44 -276 -200 7 -71 38 -111 141 -181 290
-199 448 -450 527 -838 21 -105 43 -374 33 -412 -5 -17 -11 -20 -37 -15 -568
107 -1159 -209 -1586 -849 -309 -464 -487 -989 -506 -1500 -10 -246 14 -430
82 -635 62 -186 132 -301 316 -516 472 -555 728 -1149 728 -1690 0 -275 -59
-488 -184 -666 -46 -65 -146 -170 -146 -153 0 6 -7 72 -15 147 -46 434 -164
740 -356 924 -153 145 -276 168 -374 69 -96 -96 -79 -223 43 -312 31 -23 69
-54 84 -70 68 -72 140 -254 177 -447 31 -157 63 -506 47 -506 -2 0 -27 16 -56
35 -28 19 -69 40 -90 46 -117 35 -249 -61 -250 -181 0 -68 18 -107 74 -157 29
-26 60 -62 69 -78 19 -39 47 -132 62 -213 l12 -63 -43 -106 c-124 -299 -182
-575 -191 -908 -15 -555 145 -1108 452 -1565 47 -69 91 -133 98 -142 13 -16
39 -18 277 -18 l263 0 -55 58 c-339 357 -566 844 -628 1347 -14 116 -14 385 0
500 42 343 163 670 351 950 96 142 159 218 313 375 74 76 161 174 193 217 114
153 193 338 240 561 24 115 27 148 27 347 1 248 -13 360 -69 580 -72 282 -183
540 -351 823 -119 200 -229 349 -459 624 -103 123 -140 186 -182 307 -50 149
-66 272 -60 486 10 361 94 675 279 1037 195 383 442 667 721 830 165 96 286
131 462 132 136 1 187 -10 366 -78 328 -124 616 -120 899 15 214 102 376 243
734 639 472 523 706 726 1021 883 297 148 564 209 915 210 273 0 450 -34 637
-123 184 -87 324 -202 473 -387 66 -81 239 -340 350 -523 121 -200 329 -506
415 -610 466 -566 997 -844 1815 -950 123 -16 254 -24 510 -30 387 -9 427 -15
598 -88 246 -107 512 -318 711 -565 218 -270 413 -665 489 -992 115 -492 34
-975 -221 -1319 -83 -112 -135 -165 -334 -342 -447 -399 -726 -793 -871 -1229
-52 -156 -85 -308 -116 -530 -14 -99 -37 -265 -52 -370 -30 -220 -59 -340
-115 -480 -131 -328 -450 -678 -797 -875 -40 -23 -76 -39 -79 -36 -12 12 -42
273 -55 468 -29 473 43 832 207 1028 71 85 88 123 83 191 -8 105 -75 170 -184
177 -54 4 -70 1 -107 -21 -82 -48 -200 -216 -266 -379 -151 -370 -177 -891
-76 -1525 8 -51 15 -95 15 -98 0 -5 -98 -35 -115 -35 -8 0 -15 29 -19 78 -10
111 -71 461 -105 605 -100 416 -240 691 -411 805 -95 64 -188 66 -260 5 -103
-86 -91 -243 25 -323 24 -17 58 -51 76 -76 71 -104 153 -349 209 -625 43 -213
86 -527 74 -538 -5 -5 -57 -12 -115 -16 l-106 -7 -7 119 c-19 342 -110 593
-278 763 -75 77 -185 147 -257 166 -95 24 -183 -15 -226 -100 -54 -109 -16
-214 99 -273 68 -35 138 -103 174 -171 54 -100 92 -284 92 -440 l0 -64 -27 6
c-16 2 -68 8 -118 11 -287 21 -680 94 -1024 191 -308 87 -479 123 -701 149
-453 51 -808 -26 -1078 -234 -100 -78 -167 -152 -249 -277 -64 -98 -96 -168
-175 -379 -72 -194 -145 -343 -233 -476 l-65 -99 238 2 237 3 52 100 c48 93
81 170 182 433 54 142 112 233 206 327 158 159 329 216 640 216 235 0 419 -32
799 -137 395 -109 685 -167 1091 -216 171 -20 763 -17 930 5 677 91 1189 324
1593 725 253 251 430 528 526 824 52 161 78 302 131 723 28 222 52 348 90 481
119 410 359 751 815 1159 247 221 387 389 494 595 285 546 284 1211 0 1880
-100 233 -259 502 -409 690 -91 113 -309 329 -416 412 -206 159 -418 272 -628
334 -157 47 -230 55 -547 61 -166 3 -307 9 -313 13 -14 8 -1 174 30 385 53
358 118 533 252 670 93 95 116 151 96 228 -16 67 -69 123 -132 142 -87 26
-162 -1 -253 -92 -209 -209 -338 -593 -386 -1146 l-12 -139 -45 7 c-25 4 -47
8 -49 9 -1 2 -9 66 -17 142 -54 524 -57 1002 -9 1334 56 391 170 612 339 659
59 16 103 52 130 105 53 105 14 219 -90 267 -54 25 -109 24 -192 -4 -319 -108
-513 -450 -588 -1039 -36 -288 -38 -738 -4 -1170 7 -82 9 -151 6 -155 -4 -3
-54 17 -112 45 -95 46 -105 54 -100 74 26 116 36 643 16 818 -41 348 -125 608
-267 821 -95 143 -132 172 -224 173 -79 1 -139 -36 -174 -106 -42 -84 -33
-143 36 -236 131 -177 210 -426 238 -757 11 -135 12 -361 2 -418 l-7 -38 -81
83 c-152 155 -280 334 -539 748 -251 402 -372 568 -530 725 -352 351 -814 509
-1388 475 -601 -37 -1070 -235 -1544 -653 -143 -127 -276 -262 -539 -551 -109
-121 -219 -241 -244 -268 -49 -52 -196 -184 -220 -198 -20 -10 -20 -13 26 310
55 386 122 703 216 1023 46 159 46 196 1 261 -61 86 -174 112 -260 61z"/>
<path d="M10752 10319 c-80 -40 -123 -133 -101 -222 10 -44 25 -65 118 -161
177 -184 233 -265 481 -691 187 -320 273 -462 338 -555 460 -652 1038 -983
1886 -1079 228 -26 613 -38 676 -21 102 27 155 101 148 206 -3 52 -9 70 -34
101 -59 74 -80 79 -366 86 -711 17 -1177 159 -1574 480 -227 184 -412 430
-699 927 -200 346 -270 457 -374 596 -103 139 -269 309 -326 335 -54 25 -120
24 -173 -2z"/>
<path d="M10915 8725 c-55 -19 -111 -84 -124 -143 -18 -84 -2 -119 162 -367
306 -462 593 -724 1012 -926 190 -91 314 -133 368 -124 56 10 88 27 125 69 28
33 52 89 52 126 0 38 -24 95 -55 129 -35 39 -51 47 -190 101 -44 17 -129 57
-190 89 -356 185 -592 423 -878 887 -64 103 -109 148 -164 163 -49 14 -69 13
-118 -4z"/>
<path d="M7328 8070 c-175 -21 -354 -99 -527 -229 -41 -31 -80 -60 -88 -66
-11 -8 -44 21 -146 126 -146 150 -173 166 -259 156 -98 -12 -165 -81 -174
-178 -7 -78 12 -109 164 -268 l132 -140 -140 -168 c-77 -92 -147 -183 -156
-202 -11 -24 -15 -52 -12 -97 3 -52 9 -70 34 -101 43 -54 107 -85 164 -80 85
7 113 29 258 204 l135 163 31 -25 c73 -59 228 -157 307 -194 143 -67 223 -85
379 -85 155 0 217 13 348 75 108 50 189 108 279 200 174 179 222 281 178 384
-36 87 -224 295 -336 372 -173 120 -381 175 -571 153z m237 -421 c73 -28 153
-84 214 -152 l25 -27 -45 -46 c-156 -160 -347 -186 -570 -80 -71 34 -191 116
-197 135 -4 12 127 105 198 140 124 62 260 73 375 30z"/>
<path d="M10494 6655 c-32 -14 -92 -76 -178 -182 l-49 -60 -81 55 c-166 113
-297 157 -466 156 -200 -2 -338 -63 -496 -219 -207 -204 -220 -284 -79 -463
165 -211 416 -337 630 -318 147 13 286 68 433 169 l73 50 76 -82 c87 -94 137
-125 205 -124 103 1 186 74 196 172 7 73 -13 118 -87 196 -36 39 -78 84 -93
100 l-27 30 95 114 c52 63 102 127 110 142 23 46 18 135 -11 185 -48 83 -162
118 -251 79z m-623 -462 c35 -17 75 -39 89 -51 25 -21 25 -21 5 -37 -11 -9
-49 -30 -85 -48 -55 -27 -76 -32 -140 -32 -83 1 -136 20 -200 74 -35 29 -35
29 -16 50 11 11 47 35 80 52 55 28 68 30 132 26 52 -3 88 -12 135 -34z"/>
<path d="M13248 6408 c-22 -13 -93 -88 -168 -180 -72 -87 -133 -158 -135 -158
-2 0 -44 31 -95 69 -287 215 -596 287 -861 200 -75 -25 -186 -79 -248 -122
-104 -71 -265 -248 -316 -346 -29 -57 -18 -143 27 -211 150 -223 377 -396 598
-457 98 -26 289 -24 400 5 122 32 291 118 411 208 l101 77 120 -127 c67 -71
138 -136 161 -147 105 -54 245 6 277 119 13 48 13 66 -2 116 -12 39 -29 60
-240 282 l-48 50 140 169 c77 93 147 184 155 201 39 82 5 196 -73 245 -59 37
-147 40 -204 7z m-925 -443 c86 -18 154 -49 249 -113 110 -74 110 -73 41 -126
-200 -157 -417 -188 -591 -83 -66 39 -162 124 -162 142 0 22 110 114 175 146
99 48 177 58 288 34z"/>
<path d="M12645 5041 c-50 -23 -69 -44 -310 -336 -109 -132 -200 -242 -202
-244 -2 -3 -20 11 -41 30 -252 236 -588 415 -872 465 -136 23 -330 15 -465
-21 -305 -80 -590 -295 -799 -603 -43 -62 -50 -81 -54 -131 -3 -43 1 -69 16
-102 54 -121 304 -394 457 -500 221 -153 399 -216 635 -226 160 -6 271 10 426
62 194 65 421 198 593 347 46 40 91 79 100 86 15 10 29 0 106 -80 367 -382
385 -397 466 -398 19 0 60 12 90 28 45 22 59 36 82 82 23 45 28 64 23 102 -3
26 -12 60 -20 76 -8 16 -113 132 -233 257 -120 125 -219 232 -221 239 -1 6
104 139 234 296 130 157 243 299 250 317 18 43 18 105 -1 151 -44 104 -159
150 -260 103z m-1445 -486 c179 -35 419 -169 601 -333 70 -64 73 -53 -51 -157
-239 -198 -463 -295 -682 -296 -184 0 -328 50 -490 171 -68 52 -238 224 -238
243 0 5 41 52 92 103 242 247 472 328 768 269z"/>
<path d="M9690 2205 c-306 -51 -543 -167 -782 -382 -175 -158 -374 -409 -399
-504 -21 -79 6 -151 76 -205 30 -22 51 -29 100 -32 96 -6 127 14 232 156 309
414 609 586 1023 585 190 0 336 -27 595 -110 83 -26 120 -33 149 -29 82 14
141 67 162 147 19 72 4 129 -50 184 -36 37 -57 47 -166 83 -148 48 -215 66
-359 93 -140 27 -457 35 -581 14z"/>
</g>
</svg>
