<?xml version="1.0" standalone="no"?>
<!DOCTYPE svg PUBLIC "-//W3C//DTD SVG 20010904//EN"
 "http://www.w3.org/TR/2001/REC-SVG-20010904/DTD/svg10.dtd">
<svg version="1.0" xmlns="http://www.w3.org/2000/svg"
 width="64px" height="64px" viewBox="0 0 2346.000000 1154.000000"
 preserveAspectRatio="xMidYMid meet">

<g transform="translate(0.000000,1154.000000) scale(0.100000,-0.100000)"
fill="#000000" stroke="none">
<path d="M7670 11504 c-7 -20 -10 -63 -8 -95 6 -76 35 -113 158 -199 110 -76
245 -207 313 -303 166 -233 266 -579 267 -920 0 -117 0 -117 -22 -112 -138 30
-333 34 -472 9 -602 -105 -1171 -650 -1513 -1449 -253 -590 -312 -1230 -156
-1700 63 -191 140 -320 307 -515 236 -276 398 -514 531 -785 184 -375 267
-694 268 -1030 0 -282 -61 -511 -186 -695 -37 -54 -147 -180 -157 -180 -4 0
-11 39 -15 87 -45 574 -225 982 -505 1145 -54 32 -74 38 -123 38 -105 0 -175
-52 -204 -150 -28 -97 4 -168 110 -245 130 -95 213 -263 267 -543 23 -117 50
-376 50 -474 l0 -70 -35 31 c-88 77 -182 94 -272 50 -65 -32 -105 -91 -111
-162 -6 -74 21 -131 86 -186 64 -54 96 -128 128 -293 13 -69 13 -81 0 -106
-47 -92 -138 -367 -174 -527 -49 -218 -57 -297 -56 -585 0 -236 3 -294 22
-410 65 -389 192 -745 374 -1047 l49 -83 255 0 c140 0 254 3 254 6 0 3 -20 31
-44 62 -249 324 -425 758 -481 1185 -17 135 -20 409 -5 542 34 292 143 629
281 868 118 202 227 342 431 554 174 180 237 262 308 403 82 163 125 304 155
505 22 143 22 410 0 570 -82 616 -394 1244 -908 1829 -86 97 -137 175 -175
269 -71 171 -98 349 -89 592 12 294 71 561 187 844 310 753 845 1251 1349
1252 130 1 202 -14 356 -71 244 -91 365 -115 545 -107 187 9 305 39 469 121
216 109 393 268 813 731 374 412 542 568 793 737 438 296 1036 420 1551 323
182 -35 383 -122 524 -229 193 -145 336 -327 638 -809 111 -179 242 -381 290
-450 487 -701 1068 -1064 1923 -1201 230 -37 360 -47 729 -56 407 -9 451 -18
675 -130 179 -89 320 -194 496 -370 219 -218 347 -397 489 -685 181 -365 253
-653 254 -1005 1 -295 -42 -495 -157 -728 -95 -193 -205 -328 -443 -539 -485
-431 -755 -794 -924 -1243 -85 -226 -126 -415 -180 -830 -73 -565 -120 -722
-293 -980 -124 -184 -319 -392 -482 -513 -98 -72 -293 -192 -301 -184 -2 2
-13 69 -24 148 -85 645 -26 1155 163 1402 28 38 62 83 75 100 123 167 -64 395
-253 308 -99 -45 -242 -250 -320 -458 -137 -362 -161 -934 -65 -1531 11 -67
20 -126 20 -131 0 -8 -121 -43 -127 -37 -2 1 -12 70 -23 152 -69 517 -175 910
-313 1156 -143 256 -327 368 -469 285 -53 -31 -81 -71 -98 -140 -23 -90 16
-162 133 -250 74 -56 176 -309 242 -605 55 -250 118 -662 104 -677 -3 -2 -58
-8 -122 -11 l-117 -7 0 50 c0 28 -5 97 -10 154 -39 403 -174 671 -418 830 -91
60 -158 83 -223 77 -125 -12 -211 -142 -174 -265 18 -62 55 -101 133 -143 117
-62 189 -167 232 -335 21 -85 48 -350 37 -361 -9 -9 -233 11 -407 37 -302 43
-526 92 -900 194 -113 30 -269 69 -347 85 -656 137 -1135 68 -1480 -212 -91
-74 -148 -138 -228 -259 -75 -110 -117 -198 -185 -382 -58 -157 -105 -268
-151 -357 -19 -36 -35 -68 -37 -72 -2 -5 102 -8 231 -8 l235 0 36 84 c19 46
55 139 80 208 24 69 56 149 71 179 120 239 307 389 550 441 82 18 134 22 285
22 276 0 429 -25 877 -148 131 -35 299 -78 373 -95 866 -197 1693 -195 2336 4
441 137 802 352 1095 652 214 218 335 384 444 606 126 259 165 421 235 963 68
537 153 797 358 1109 141 215 305 403 514 591 366 328 503 491 630 748 142
286 202 559 202 916 0 240 -16 369 -74 595 -232 905 -881 1678 -1625 1934
-186 65 -238 71 -623 81 -189 4 -345 10 -348 12 -6 7 13 226 32 368 34 250 83
436 156 590 32 66 57 101 115 158 104 103 127 160 103 246 -33 120 -166 187
-276 141 -71 -29 -171 -123 -244 -230 -146 -212 -268 -669 -296 -1108 l-7
-109 -46 7 c-25 4 -49 10 -53 13 -19 19 -57 505 -65 827 -13 539 44 960 162
1195 67 133 131 195 234 227 126 40 193 167 147 278 l-15 35 -228 0 -228 0
-57 -47 c-206 -172 -345 -503 -402 -963 -38 -302 -44 -734 -16 -1103 24 -315
23 -307 10 -307 -7 0 -59 23 -117 50 l-105 51 6 37 c16 94 26 297 26 507 0
322 -27 545 -95 781 -74 254 -246 548 -348 595 -163 74 -343 -85 -285 -252 6
-19 35 -68 64 -109 172 -249 247 -562 246 -1029 -1 -123 -4 -226 -8 -230 -8
-8 -145 138 -249 267 -99 123 -201 274 -428 636 -255 408 -354 544 -521 714
-154 159 -286 254 -479 348 l-112 54 -783 0 -783 0 -97 -36 c-201 -74 -441
-206 -625 -342 -231 -171 -406 -339 -768 -737 -240 -264 -440 -466 -508 -514
l-34 -24 7 69 c44 427 154 983 273 1377 28 94 34 127 28 162 l-6 45 -200 0
c-109 0 -199 -2 -199 -4 0 -2 -24 -88 -54 -192 -116 -406 -210 -905 -266
-1424 -12 -107 -23 -197 -25 -200 -2 -4 -30 -3 -62 1 -32 4 -68 8 -80 8 -23 1
-23 1 -23 185 0 301 -32 519 -110 758 -107 326 -276 578 -529 789 l-94 79
-203 0 -202 0 -12 -36z"/>
<path d="M12675 10691 c-72 -33 -125 -111 -125 -183 0 -76 18 -107 130 -222
173 -176 260 -300 475 -671 306 -528 402 -675 581 -889 390 -467 906 -751
1584 -870 187 -33 364 -48 640 -53 l285 -5 55 29 c153 81 151 287 -5 371 -25
14 -77 18 -305 23 -151 4 -336 14 -410 23 -775 93 -1267 373 -1677 952 -96
135 -144 213 -338 549 -92 160 -213 360 -270 445 -160 241 -353 456 -450 501
-51 24 -119 24 -170 0z"/>
<path d="M12836 9006 c-106 -40 -164 -170 -121 -273 8 -20 49 -91 91 -158 332
-531 660 -849 1104 -1069 251 -124 396 -166 474 -136 67 25 136 124 136 194 0
45 -22 95 -60 139 -32 36 -55 50 -117 72 -107 38 -305 133 -407 194 -296 179
-528 429 -795 859 -67 107 -91 137 -126 158 -53 31 -127 39 -179 20z"/>
<path d="M8993 8305 c-180 -33 -392 -137 -551 -272 l-53 -45 -131 136 c-72 75
-148 146 -169 156 -74 38 -191 18 -246 -41 -51 -56 -68 -155 -38 -226 8 -20
57 -79 107 -132 51 -53 115 -119 142 -148 l49 -51 -148 -178 c-81 -98 -156
-196 -166 -219 -62 -136 38 -285 193 -285 90 0 121 24 274 210 75 91 140 167
145 168 5 2 31 -14 57 -36 160 -133 364 -234 540 -268 292 -56 593 46 820 278
147 150 206 245 206 328 -1 86 -62 182 -216 337 -237 240 -522 341 -815 288z
m301 -435 c78 -26 138 -66 206 -134 l54 -56 -39 -40 c-134 -137 -299 -187
-474 -144 -82 20 -218 89 -295 150 l-59 47 24 19 c56 44 138 97 194 125 53 26
82 36 170 57 39 10 161 -4 219 -24z"/>
<path d="M12415 6828 c-50 -18 -90 -54 -176 -158 -44 -55 -85 -100 -91 -100
-5 0 -32 18 -61 39 -73 55 -188 115 -282 147 -104 34 -267 44 -366 21 -198
-47 -367 -162 -498 -340 -54 -73 -71 -115 -71 -169 1 -58 25 -108 97 -198 187
-234 417 -351 658 -337 50 3 117 13 150 21 79 21 246 104 324 161 l63 46 101
-98 c128 -123 171 -141 269 -108 85 30 140 106 140 196 -1 72 -24 112 -122
214 -49 51 -90 98 -90 103 0 6 47 67 104 137 121 148 136 183 116 272 -26 119
-152 190 -265 151z m-674 -500 c41 -20 83 -43 94 -52 20 -16 20 -16 -5 -37
-14 -12 -54 -36 -90 -53 -119 -56 -256 -38 -358 49 l-33 28 22 23 c13 14 50
38 83 55 56 28 68 30 137 27 62 -4 91 -11 150 -40z"/>
<path d="M15348 6580 c-58 -17 -94 -51 -221 -204 -73 -88 -135 -164 -139 -169
-3 -6 -34 12 -70 40 -352 280 -725 350 -1052 199 -143 -66 -280 -173 -381
-298 -102 -127 -125 -171 -125 -243 0 -48 6 -70 29 -110 45 -77 153 -206 228
-272 264 -232 543 -307 849 -227 135 35 314 128 446 232 l81 64 138 -138 c76
-77 155 -147 176 -157 56 -26 143 -17 197 20 80 56 111 164 73 255 -8 20 -78
102 -156 183 l-141 147 67 81 c37 45 103 125 147 177 43 52 87 113 97 135 72
157 -80 334 -243 285z m-989 -497 c30 -8 84 -30 120 -48 81 -41 213 -133 209
-146 -5 -16 -121 -98 -188 -133 -93 -49 -171 -69 -265 -68 -130 1 -243 53
-357 162 l-52 50 45 46 c139 142 303 188 488 137z"/>
<path d="M14690 5129 c-19 -6 -49 -22 -67 -35 -18 -13 -136 -150 -263 -304
-128 -154 -237 -280 -242 -280 -6 0 -35 22 -64 49 -74 68 -224 179 -325 242
-442 275 -900 314 -1303 112 -220 -111 -415 -284 -578 -513 -71 -99 -88 -136
-87 -187 1 -57 18 -93 87 -192 160 -226 381 -425 597 -535 356 -181 725 -180
1114 5 180 85 346 197 505 339 l69 62 106 -108 c365 -376 373 -384 424 -399
166 -49 313 111 252 272 -14 37 -69 99 -258 295 -173 179 -236 252 -230 261 6
6 118 143 250 302 132 160 248 306 259 325 28 53 24 137 -10 194 -46 78 -150
120 -236 95z m-1630 -513 c98 -9 202 -41 325 -101 124 -60 219 -123 359 -239
81 -67 94 -82 83 -94 -26 -33 -196 -168 -275 -219 -105 -70 -246 -136 -347
-165 -105 -29 -306 -32 -405 -4 -163 45 -318 143 -460 289 -114 118 -116 121
-92 155 11 15 60 66 108 112 135 130 243 198 382 240 71 22 197 40 237 34 11
-2 49 -5 85 -8z"/>
<path d="M11570 2126 c-386 -62 -676 -216 -961 -513 -103 -107 -260 -310 -296
-382 -70 -137 36 -301 192 -301 45 0 129 44 157 81 134 182 183 243 266 328
177 180 367 296 572 349 97 24 120 26 300 26 244 0 355 -20 634 -111 124 -41
170 -40 242 2 125 73 128 267 6 347 -58 38 -359 127 -537 159 -144 26 -454 34
-575 15z"/>
</g>
</svg>
