<?xml version="1.0" standalone="no"?>
<!DOCTYPE svg PUBLIC "-//W3C//DTD SVG 20010904//EN"
 "http://www.w3.org/TR/2001/REC-SVG-20010904/DTD/svg10.dtd">
<svg version="1.0" xmlns="http://www.w3.org/2000/svg"
 width="64px" height="64px" viewBox="0 0 1080.000000 1080.000000"
 preserveAspectRatio="xMidYMid meet">

<g transform="translate(0.000000,1080.000000) scale(0.100000,-0.100000)"
fill="#000000" stroke="none">
<path d="M2595 9650 c-356 -82 -949 -328 -1245 -516 -292 -186 -479 -386 -551
-591 -46 -130 -34 -325 27 -445 65 -129 270 -273 534 -378 185 -73 657 -210
1141 -329 296 -73 709 -193 867 -252 217 -81 405 -183 496 -268 83 -79 116
-156 117 -281 0 -68 -5 -103 -26 -166 -48 -144 -132 -239 -325 -366 -131 -86
-221 -133 -429 -223 -155 -67 -216 -89 -601 -220 -753 -256 -1287 -539 -1583
-840 -144 -146 -215 -273 -238 -423 -23 -151 21 -307 115 -404 153 -160 423
-288 876 -416 340 -96 378 -107 680 -182 899 -225 1309 -388 1452 -578 69 -90
81 -131 76 -251 -8 -190 -71 -302 -253 -453 -94 -79 -374 -230 -603 -326 -68
-29 -235 -90 -370 -136 -305 -103 -314 -107 -337 -142 -64 -97 54 -204 208
-191 87 7 557 167 785 266 749 327 1035 633 992 1061 -10 97 -18 127 -50 190
-78 154 -228 279 -485 405 -274 135 -530 219 -1120 370 -891 228 -1069 281
-1284 387 -206 101 -266 175 -263 326 3 145 78 269 258 426 172 151 478 328
833 481 191 83 242 102 621 230 353 118 558 200 755 300 424 216 619 400 715
675 19 53 23 86 23 185 1 131 -9 179 -54 268 -81 161 -227 281 -514 422 -223
110 -695 260 -1235 394 -344 85 -812 216 -950 266 -260 94 -412 196 -441 296
-20 68 -17 204 6 264 64 166 182 292 423 450 251 164 656 334 1112 465 57 17
83 31 112 60 48 48 50 85 8 134 -58 65 -152 84 -275 56z"/>
<path d="M8355 9650 c-208 -47 -608 -191 -870 -313 -323 -150 -542 -294 -707
-463 -180 -186 -250 -328 -250 -514 -1 -213 67 -338 255 -468 225 -155 547
-266 1363 -472 356 -90 665 -175 829 -229 422 -138 662 -284 739 -451 18 -38
21 -63 20 -165 l0 -120 -43 -88 c-32 -67 -59 -105 -109 -156 -188 -189 -538
-364 -1122 -561 -704 -237 -1122 -433 -1480 -694 -112 -82 -279 -247 -336
-331 -162 -241 -151 -523 27 -697 124 -121 279 -204 584 -312 174 -62 359
-114 1005 -281 745 -192 1030 -292 1255 -440 93 -61 153 -122 192 -197 26 -49
28 -61 27 -163 0 -95 -4 -119 -27 -180 -64 -163 -176 -274 -420 -414 -212
-123 -411 -208 -782 -336 -154 -53 -290 -103 -302 -111 -34 -22 -56 -71 -49
-109 13 -67 124 -121 230 -112 159 13 799 258 1111 424 349 186 558 386 629
602 60 185 53 364 -20 497 -43 78 -148 191 -243 262 -92 68 -270 159 -446 229
-250 100 -462 163 -1030 308 -726 185 -962 257 -1170 360 -203 99 -265 174
-265 314 0 62 33 161 75 231 38 62 178 206 265 271 303 228 769 444 1420 659
321 106 489 173 705 282 358 179 573 356 673 554 80 158 99 365 49 513 -68
195 -277 372 -612 516 -294 127 -521 197 -1195 369 -162 41 -349 91 -415 110
-66 19 -181 51 -255 71 -301 82 -529 184 -625 280 -51 50 -63 69 -73 113 -56
249 80 468 436 701 110 72 386 209 562 279 116 46 434 152 560 186 33 9 72 29
95 49 34 30 40 40 40 77 0 36 -6 47 -37 75 -61 56 -149 71 -263 45z"/>
<path d="M9554 9323 c-65 -82 -137 -173 -161 -203 -23 -30 -104 -131 -178
-225 -91 -113 -135 -176 -133 -190 3 -18 12 -20 91 -23 54 -2 87 -7 87 -14 0
-5 -53 -77 -117 -160 -156 -198 -183 -236 -176 -253 4 -12 32 -15 147 -15 79
0 146 -3 149 -6 7 -7 0 -16 -173 -234 -64 -80 -119 -153 -123 -162 -3 -10 1
-24 10 -33 13 -14 49 -16 252 -15 130 1 246 1 259 1 l23 -1 -2 -161 c0 -88 1
-163 4 -166 8 -7 335 -6 347 2 6 4 10 66 10 166 0 145 2 159 18 160 9 0 122 0
249 -1 243 -1 277 4 271 40 -2 10 -69 102 -150 204 -82 101 -148 189 -148 195
0 7 52 11 147 13 131 3 148 5 151 20 2 11 -55 93 -147 209 -83 106 -148 196
-145 200 3 5 43 9 89 9 69 0 84 3 89 17 8 20 7 20 -209 294 -88 111 -206 261
-263 333 -104 132 -117 146 -139 146 -7 0 -65 -66 -129 -147z m349 -207 c114
-145 225 -285 247 -312 22 -27 40 -52 40 -56 0 -5 -35 -8 -77 -8 -43 0 -84 -4
-92 -9 -24 -15 -4 -52 100 -181 55 -69 121 -152 146 -185 l45 -60 -148 -5
c-190 -6 -189 -4 -61 -166 51 -65 119 -153 151 -194 l57 -75 -617 -3 c-339 -1
-619 0 -622 3 -4 4 35 57 200 268 97 125 103 134 88 152 -10 12 -40 15 -151
15 -87 0 -139 4 -139 10 0 9 105 144 240 310 84 103 78 120 -47 120 -82 0 -85
1 -72 19 15 21 189 243 376 479 62 78 117 142 122 142 4 0 101 -119 214 -264z
m-295 -1465 c-3 -111 -5 -126 -20 -129 -16 -3 -18 8 -18 131 0 73 3 137 7 140
3 4 12 2 20 -5 10 -8 13 -40 11 -137z m192 3 c0 -112 -2 -134 -15 -134 -13 0
-15 21 -15 133 0 74 3 137 6 140 18 18 24 -16 24 -139z m-95 1 c0 -116 -2
-130 -17 -133 -16 -3 -18 8 -18 133 0 125 2 136 18 133 15 -3 17 -17 17 -133z"/>
<path d="M2927 8866 c-128 -35 -168 -132 -85 -202 113 -94 339 -157 568 -156
140 0 203 8 328 44 71 21 76 21 125 5 105 -35 201 -48 342 -49 204 -1 372 38
507 117 117 69 137 122 71 187 -81 79 -205 87 -336 22 -85 -42 -146 -56 -238
-56 -99 0 -134 9 -238 60 -67 33 -81 36 -160 37 -80 0 -93 -3 -162 -36 -107
-53 -141 -61 -238 -62 -94 0 -149 14 -251 61 -78 37 -164 47 -233 28z"/>
<path d="M1041 7423 c-39 -47 -327 -410 -366 -462 -11 -14 -54 -69 -96 -121
-97 -121 -104 -134 -83 -154 11 -12 36 -16 90 -16 46 0 74 -4 74 -11 0 -6 -65
-94 -145 -196 -80 -102 -145 -193 -145 -203 0 -25 31 -31 171 -29 66 0 123 -2
126 -5 6 -5 0 -13 -179 -239 -65 -82 -118 -157 -118 -167 0 -10 7 -21 16 -24
9 -3 130 -6 270 -6 l254 0 0 -154 c0 -85 3 -161 6 -170 9 -24 342 -24 351 -1
3 9 6 84 7 168 l1 152 265 5 265 5 3 25 c2 17 -8 38 -31 65 -80 95 -257 325
-257 335 0 6 47 10 129 10 71 0 136 3 145 6 26 10 18 47 -17 90 -18 21 -55 68
-83 103 -27 35 -77 100 -111 145 -35 44 -63 83 -63 87 0 4 36 9 80 10 86 4
109 16 94 48 -5 11 -49 71 -99 133 -218 276 -324 409 -393 498 -74 94 -99 120
-113 120 -5 0 -26 -21 -48 -47z m246 -284 c103 -132 214 -273 246 -312 31 -39
57 -75 57 -79 0 -4 -33 -8 -74 -8 -80 0 -111 -15 -99 -48 6 -16 109 -150 240
-312 29 -36 53 -68 53 -72 0 -5 -60 -8 -134 -8 -109 0 -138 -3 -150 -16 -22
-22 -13 -37 149 -242 75 -94 134 -176 130 -181 -6 -11 -1223 -13 -1229 -2 -3
4 62 93 145 198 82 106 149 198 149 207 0 26 -22 31 -164 36 l-139 5 151 190
c83 105 151 198 152 207 0 27 -32 38 -109 38 -39 0 -71 2 -71 5 0 3 46 64 103
135 56 71 167 212 247 314 79 102 148 186 151 186 4 0 92 -108 196 -241z
m-279 -1479 c3 -139 0 -159 -23 -140 -12 10 -15 38 -15 125 0 119 5 148 24
142 7 -2 12 -47 14 -127z m102 -4 c0 -74 -4 -137 -9 -140 -19 -12 -28 23 -30
118 -2 114 5 156 25 156 11 0 14 -25 14 -134z m98 -4 c2 -127 2 -132 -18 -132
-19 0 -20 6 -20 128 0 71 3 132 7 136 21 21 28 -10 31 -132z"/>
<path d="M5855 6691 c-42 -11 -75 -29 -107 -59 -36 -33 -38 -94 -5 -134 27
-32 131 -90 213 -118 200 -70 555 -71 726 -3 34 14 43 13 100 -5 107 -34 187
-44 343 -45 150 0 264 16 358 49 35 13 46 12 86 -1 109 -35 196 -47 356 -47
166 0 251 12 369 53 155 53 246 123 246 188 0 32 -56 88 -108 108 -76 29 -163
24 -247 -16 -109 -51 -151 -61 -260 -61 -111 0 -158 11 -255 61 -58 30 -74 34
-145 34 -74 0 -87 -3 -165 -42 -104 -51 -121 -55 -237 -54 -103 0 -160 14
-254 62 -57 30 -73 33 -145 34 -73 0 -87 -3 -155 -37 -103 -51 -135 -59 -241
-59 -114 -1 -130 3 -238 51 -89 41 -178 56 -235 41z"/>
<path d="M9433 5233 c-108 -137 -232 -293 -276 -348 -102 -127 -109 -139 -101
-159 5 -13 21 -16 83 -16 43 0 81 -3 84 -6 8 -8 -7 -30 -159 -220 -68 -86
-124 -162 -124 -168 0 -30 26 -36 151 -36 70 0 130 -3 133 -8 2 -4 -14 -31
-37 -59 -69 -84 -195 -245 -223 -285 -47 -65 -40 -67 250 -70 l251 -3 5 -160
5 -160 159 -3 c104 -2 163 1 170 8 7 7 10 58 7 144 -1 74 0 143 4 155 6 21 11
21 254 21 208 0 251 2 261 15 15 19 18 14 -144 220 -69 88 -126 166 -126 173
0 9 31 12 124 12 102 0 128 3 141 16 9 9 14 23 11 30 -3 7 -66 90 -140 183
-75 94 -137 176 -138 183 -2 9 19 14 76 18 118 8 119 13 4 156 -52 66 -183
230 -292 367 -108 136 -201 247 -206 247 -6 0 -99 -111 -207 -247z m317 25
c57 -73 164 -208 237 -299 73 -92 133 -171 133 -178 0 -7 -24 -11 -69 -11
-146 0 -152 15 121 -328 32 -40 58 -77 58 -83 0 -11 0 -11 -132 -9 -111 2
-148 -8 -148 -38 0 -9 35 -60 76 -112 151 -188 204 -258 204 -269 0 -8 -167
-11 -596 -11 l-596 0 19 28 c10 16 74 99 143 186 71 90 125 167 125 179 0 29
-27 35 -162 36 -62 1 -113 4 -113 7 0 9 36 58 162 219 65 82 118 157 118 167
0 21 -22 27 -114 30 l-69 3 179 225 c99 124 209 262 244 307 36 46 68 83 71
83 3 0 53 -60 109 -132z m-192 -1536 c2 -113 0 -132 -13 -132 -13 0 -15 21
-15 136 0 104 3 135 13 132 8 -3 13 -42 15 -136z m97 116 c3 -13 5 -72 3 -133
-2 -90 -6 -110 -18 -110 -12 0 -16 21 -18 119 -1 66 0 126 2 133 8 20 25 15
31 -9z m95 -119 c0 -100 -3 -130 -12 -127 -9 3 -14 39 -16 123 -3 123 1 151
18 140 6 -4 10 -60 10 -136z"/>
<path d="M3283 5080 c-120 -25 -178 -112 -122 -184 46 -58 237 -140 389 -166
94 -17 315 -17 395 -1 33 7 93 22 133 33 l74 21 66 -20 c197 -62 417 -64 640
-8 98 25 105 26 150 11 157 -52 394 -65 567 -31 155 29 344 118 374 174 49 90
-52 176 -204 175 -60 -1 -83 -7 -161 -42 -169 -77 -309 -77 -464 1 -80 40 -90
42 -170 42 -79 -1 -91 -4 -170 -43 -158 -77 -303 -77 -460 1 -80 40 -90 42
-170 42 -79 -1 -91 -4 -170 -43 -154 -76 -296 -77 -459 -3 -94 42 -169 55
-238 41z"/>
<path d="M2435 4461 c-126 -33 -176 -129 -102 -198 56 -54 203 -117 347 -149
52 -11 121 -16 225 -16 149 0 182 5 367 53 40 10 54 10 90 -4 94 -36 190 -49
348 -49 155 1 170 3 361 53 40 10 54 9 110 -9 185 -60 410 -64 613 -12 119 30
280 110 306 152 37 61 18 110 -62 153 -45 25 -64 29 -128 29 -64 0 -87 -5
-157 -37 -111 -49 -152 -59 -242 -59 -95 0 -157 15 -246 60 -54 27 -86 36
-141 40 -66 4 -78 2 -155 -33 -129 -57 -166 -66 -264 -66 -96 0 -134 10 -274
71 -98 43 -173 40 -276 -9 -106 -50 -152 -61 -250 -61 -96 -1 -173 19 -268 66
-52 27 -150 39 -202 25z"/>
<path d="M1294 3123 c-87 -109 -214 -269 -283 -356 -69 -87 -128 -167 -129
-179 -5 -30 14 -38 96 -38 39 0 72 -4 72 -9 0 -5 -53 -76 -118 -158 -182 -229
-176 -221 -162 -238 10 -12 38 -15 134 -15 66 0 127 -4 135 -9 11 -7 -20 -52
-133 -196 -124 -159 -144 -189 -136 -206 10 -18 24 -19 265 -19 l255 0 0 -153
c0 -106 4 -157 12 -165 17 -17 309 -17 326 0 8 8 12 59 12 165 l0 153 244 0
c134 0 251 3 260 6 9 3 16 14 16 24 0 10 -65 101 -144 202 -117 148 -141 184
-128 190 10 4 67 7 129 7 123 1 143 5 143 30 0 9 -63 95 -140 191 -76 96 -139
181 -140 188 0 8 21 12 73 12 71 0 97 10 97 36 0 7 -98 135 -218 286 -119 150
-248 312 -285 361 -38 48 -75 87 -83 87 -7 0 -84 -89 -170 -197z m286 -28 c56
-71 114 -146 128 -165 15 -19 75 -95 135 -168 59 -74 107 -138 107 -142 0 -5
-39 -11 -87 -12 -71 -2 -88 -6 -91 -19 -1 -9 63 -99 143 -202 80 -102 145
-188 145 -191 0 -3 -60 -6 -133 -6 -176 0 -187 -10 -114 -101 128 -160 244
-305 250 -316 6 -9 -131 -12 -598 -12 -509 0 -604 2 -598 14 5 7 72 95 151
194 78 99 142 182 142 185 0 2 -7 12 -16 20 -12 13 -41 16 -146 16 -109 0
-129 2 -125 14 3 8 57 79 119 158 177 222 172 216 158 233 -9 11 -34 15 -92
15 -62 0 -79 3 -76 13 6 25 473 606 485 604 6 -1 57 -60 113 -132z m-192
-1519 c3 -114 -6 -155 -29 -140 -10 6 -12 247 -2 258 20 20 28 -9 31 -118z
m90 -8 c-4 -175 -22 -173 -26 2 -2 112 0 130 13 130 13 0 15 -18 13 -132z m97
1 c0 -110 -2 -124 -17 -127 -16 -3 -18 8 -18 121 0 68 3 127 7 131 21 21 28
-9 28 -125z"/>
<path d="M6479 2460 c-128 -22 -187 -113 -124 -189 80 -94 362 -181 586 -181
95 0 257 25 335 51 62 20 62 20 120 0 75 -25 250 -51 344 -51 175 0 385 52
509 126 94 56 120 100 89 157 -30 56 -104 90 -200 90 -71 0 -86 -4 -164 -42
-164 -79 -311 -78 -467 1 -77 39 -87 42 -167 42 -81 0 -89 -2 -167 -42 -153
-78 -299 -79 -463 -4 -92 42 -158 54 -231 42z"/>
</g>
</svg>
