<?xml version="1.0" standalone="no"?>
<!DOCTYPE svg PUBLIC "-//W3C//DTD SVG 20010904//EN"
 "http://www.w3.org/TR/2001/REC-SVG-20010904/DTD/svg10.dtd">
<svg version="1.0" xmlns="http://www.w3.org/2000/svg"
 width="139.000000pt" height="109.000000pt" viewBox="0 0 139.000000 109.000000"
 preserveAspectRatio="xMidYMid meet">

<g transform="translate(0.000000,109.000000) scale(0.100000,-0.100000)"
fill="#000000" stroke="none">
<path d="M818 1013 c-14 -16 -28 -36 -31 -46 -6 -16 -8 -16 -27 3 -11 11 -29
20 -39 20 -11 0 -26 3 -35 6 -9 3 -16 1 -16 -5 0 -6 9 -11 19 -11 26 0 61 -46
61 -81 0 -24 -4 -29 -23 -29 -49 0 -106 -97 -91 -155 4 -17 -7 -25 -63 -52
-72 -33 -134 -87 -152 -132 -7 -15 -25 -32 -41 -38 -32 -12 -41 -33 -14 -33
12 0 15 -6 10 -22 -15 -51 -23 -134 -15 -162 7 -24 5 -32 -11 -43 -11 -8 -20
-21 -20 -30 0 -12 8 -14 38 -9 34 5 42 2 66 -23 33 -35 98 -53 182 -52 56 1
62 -1 73 -25 15 -33 36 -26 36 13 0 22 8 37 27 52 14 11 38 41 52 66 18 30 31
42 41 38 12 -4 15 4 15 38 -1 24 2 82 5 129 6 71 4 93 -12 136 l-20 51 71 -54
c74 -55 209 -128 261 -139 43 -9 20 10 -30 26 -57 18 -190 98 -244 147 l-46
41 21 24 c29 31 44 61 46 92 2 19 8 26 23 26 32 0 219 -28 238 -36 9 -3 17 -2
17 4 0 6 -12 13 -27 16 -55 12 -169 26 -209 26 -36 0 -42 4 -55 32 -8 17 -30
40 -49 50 -19 10 -28 18 -20 18 8 0 25 3 37 6 17 5 30 -2 53 -26 30 -32 30
-32 30 -8 0 38 -39 68 -89 68 -42 0 -43 1 -37 28 4 15 16 39 27 55 14 19 16
27 6 27 -7 0 -25 -12 -39 -27z m-12 -64 c-15 -34 -15 -34 -9 -4 7 35 13 48 20
42 2 -3 -3 -20 -11 -38z m-35 -26 c7 -19 6 -29 -2 -37 -9 -8 -10 -8 -5 1 3 6
2 23 -4 37 -5 14 -7 26 -5 26 3 0 10 -12 16 -27z m119 -7 c0 -2 -13 -6 -29 -8
-17 -2 -28 -1 -25 4 5 8 54 12 54 4z m-29 -66 c38 -28 47 -78 24 -130 -24 -52
-57 -74 -101 -65 l-35 6 26 30 c14 17 25 35 25 40 0 6 5 7 12 3 8 -5 9 -2 5
10 -4 10 -7 22 -7 27 0 5 -13 9 -29 9 -33 0 -46 22 -31 50 23 43 67 50 111 20z
m-121 -9 c-19 -36 -12 -61 20 -72 35 -13 36 -14 10 -56 -24 -40 -61 -51 -95
-29 -21 14 -25 24 -25 62 0 39 5 51 34 80 38 38 74 48 56 15z m-30 -182 c19
-4 48 -11 63 -15 28 -7 49 -36 74 -104 42 -117 -35 -338 -137 -390 -44 -23
-130 -27 -195 -9 -43 12 -94 55 -127 107 -47 76 9 265 103 346 50 43 146 88
169 79 8 -3 31 -9 50 -14z m-326 -438 c3 -5 -1 -12 -10 -15 -27 -11 -37 -7
-24 9 14 17 26 19 34 6z m329 -111 c3 -11 1 -20 -4 -20 -5 0 -9 2 -9 4 0 2 -3
11 -6 20 -3 9 -2 16 4 16 5 0 12 -9 15 -20z"/>
<path d="M590 515 c0 -8 5 -15 10 -15 6 0 10 7 10 15 0 8 -4 15 -10 15 -5 0
-10 -7 -10 -15z"/>
<path d="M696 493 c-11 -11 -6 -23 9 -23 8 0 15 4 15 9 0 13 -16 22 -24 14z"/>
<path d="M584 305 c22 -17 40 -20 32 -6 -3 5 -16 11 -28 14 -22 6 -22 5 -4 -8z"/>
</g>
</svg>
