<?xml version="1.0" standalone="no"?>
<!DOCTYPE svg PUBLIC "-//W3C//DTD SVG 20010904//EN"
 "http://www.w3.org/TR/2001/REC-SVG-20010904/DTD/svg10.dtd">
<svg version="1.0" xmlns="http://www.w3.org/2000/svg"
 width="64px" height="64px" viewBox="0 0 2346.000000 1154.000000"
 preserveAspectRatio="xMidYMid meet">

<g transform="translate(0.000000,1154.000000) scale(0.100000,-0.100000)"
fill="#000000" stroke="none">
<path d="M6905 11300 c-533 -162 -1092 -411 -1425 -633 -376 -252 -601 -512
-686 -797 -15 -53 -19 -94 -18 -220 0 -142 3 -162 28 -235 118 -345 538 -572
1581 -854 61 -16 225 -59 365 -96 969 -252 1403 -404 1693 -591 99 -64 226
-194 260 -266 52 -111 56 -300 10 -437 -82 -247 -304 -442 -765 -672 -201
-101 -406 -184 -748 -302 -533 -185 -809 -297 -1155 -472 -714 -361 -1103
-705 -1236 -1095 -31 -88 -33 -104 -33 -225 0 -116 3 -139 28 -210 33 -97 80
-171 157 -246 232 -228 673 -411 1539 -640 146 -39 384 -102 530 -141 922
-244 1375 -433 1587 -662 103 -112 142 -245 122 -420 -36 -318 -250 -539 -779
-802 -286 -142 -480 -223 -794 -330 -259 -89 -294 -103 -334 -139 -39 -36 -45
-47 -49 -90 -6 -67 22 -109 102 -150 53 -27 68 -30 154 -30 l96 0 320 112
c331 115 500 185 790 328 329 162 552 309 713 473 159 160 254 329 294 522 28
133 21 320 -16 436 -72 226 -284 429 -636 608 -359 183 -767 317 -1712 562
-507 131 -817 224 -1063 319 -302 116 -473 240 -510 370 -23 77 -16 217 13
299 72 198 261 398 567 601 397 263 822 459 1505 695 396 136 585 212 835 335
318 156 534 294 698 445 138 127 251 303 303 476 25 80 27 105 28 249 1 180
-8 231 -60 342 -138 292 -497 528 -1144 751 -296 102 -429 141 -1110 322 -813
216 -1094 306 -1333 427 -96 48 -151 86 -215 147 -66 63 -76 82 -96 178 -20
94 -20 143 -2 230 83 391 594 765 1501 1100 88 32 225 79 305 103 80 24 158
48 175 55 86 33 138 116 115 184 -16 48 -78 102 -141 120 -95 29 -176 21 -354
-34z"/>
<path d="M14055 11311 c-356 -108 -704 -245 -1020 -401 -364 -180 -603 -339
-794 -529 -214 -212 -323 -411 -350 -639 -16 -127 4 -271 51 -381 100 -236
417 -439 973 -625 199 -67 383 -120 935 -267 267 -72 572 -155 678 -185 605
-172 989 -344 1176 -528 122 -119 156 -199 156 -372 0 -350 -213 -592 -768
-872 -242 -123 -401 -187 -769 -313 -844 -288 -1425 -570 -1868 -908 -119 -90
-300 -268 -373 -366 -64 -85 -134 -221 -164 -318 -32 -103 -32 -301 -1 -402
86 -272 378 -480 949 -675 178 -61 509 -158 804 -235 969 -254 1308 -358 1622
-500 273 -123 457 -264 527 -404 34 -67 44 -137 38 -265 -5 -131 -21 -189 -77
-295 -113 -212 -400 -417 -905 -646 -116 -52 -228 -104 -250 -115 -22 -11 -44
-20 -50 -20 -27 0 -575 -195 -605 -215 -45 -31 -70 -73 -70 -120 0 -110 121
-184 286 -173 93 6 601 180 854 293 664 296 1002 523 1187 800 118 176 174
385 159 595 -9 124 -29 199 -77 290 -178 331 -616 580 -1479 839 -91 27 -403
113 -695 191 -885 236 -1102 304 -1350 425 -293 142 -365 227 -365 430 0 98
18 165 72 265 140 263 502 539 1068 814 307 149 560 251 998 400 404 138 630
232 919 381 256 132 511 310 634 441 116 125 211 293 251 444 29 113 32 350 4
450 -97 356 -491 635 -1256 890 -285 95 -445 141 -1060 305 -803 214 -1067
298 -1303 416 -245 123 -321 214 -334 404 -10 145 40 298 140 431 63 82 225
236 326 308 319 228 849 470 1381 631 179 54 224 79 251 139 15 35 17 49 8 82
-24 88 -106 135 -243 141 -83 3 -103 0 -221 -36z"/>
<path d="M7433 10326 c-98 -32 -153 -89 -153 -159 0 -71 50 -122 185 -189 163
-82 342 -121 560 -122 173 0 271 14 418 61 l81 25 85 -26 c253 -77 499 -84
752 -20 185 47 347 130 396 203 82 122 -66 253 -269 239 -57 -5 -86 -14 -171
-57 -121 -60 -170 -72 -297 -72 -120 1 -190 19 -299 79 l-86 47 -105 0 c-111
0 -115 -1 -230 -68 -68 -39 -152 -58 -265 -58 -124 0 -190 17 -307 78 -82 43
-96 47 -171 50 -51 2 -98 -2 -124 -11z"/>
<path d="M12076 7528 c-40 -5 -84 -21 -141 -53 -105 -57 -175 -75 -295 -75
-120 0 -190 18 -305 78 l-90 47 -100 0 c-115 -1 -172 -22 -225 -81 -38 -43
-46 -76 -31 -124 14 -47 60 -87 161 -139 181 -94 354 -134 580 -134 167 -1
265 13 421 60 l85 25 81 -25 c141 -45 246 -60 408 -60 165 0 280 16 416 59
l83 26 85 -26 c151 -46 235 -58 401 -59 238 -1 421 40 604 136 101 52 143 89
156 136 20 74 -17 134 -110 183 -39 20 -59 23 -145 23 -99 -1 -101 -1 -190
-47 -128 -67 -193 -81 -335 -75 -127 5 -178 19 -268 73 -71 43 -116 55 -202
55 -72 0 -146 -23 -209 -64 -65 -43 -129 -59 -251 -64 -125 -6 -212 9 -280 48
-130 73 -199 90 -304 77z"/>
<path d="M7875 5451 c-108 -28 -175 -93 -175 -169 0 -41 4 -50 48 -91 57 -56
158 -110 278 -150 155 -52 242 -65 424 -65 177 0 274 14 421 60 l79 25 79 -25
c145 -46 244 -60 416 -60 172 0 271 14 416 60 l79 25 78 -25 c357 -113 771
-72 1064 103 76 46 108 89 108 145 0 106 -129 185 -282 174 -54 -4 -87 -14
-151 -46 -127 -62 -154 -72 -238 -81 -83 -9 -205 0 -268 20 -20 6 -74 32 -120
57 -72 39 -94 46 -156 50 -90 6 -158 -10 -227 -52 -111 -67 -233 -91 -374 -75
-99 11 -131 21 -234 78 l-85 46 -100 0 -100 0 -115 -57 c-98 -49 -127 -59
-198 -67 -86 -9 -208 0 -271 20 -20 6 -75 32 -123 57 -78 41 -95 46 -165 48
-43 2 -91 0 -108 -5z"/>
<path d="M7852 4659 c-48 -6 -73 -17 -192 -80 -91 -48 -272 -64 -398 -34 -34
8 -104 36 -154 62 -90 48 -91 48 -187 48 -79 0 -105 -4 -146 -23 -94 -43 -134
-105 -114 -177 19 -67 121 -138 289 -202 146 -54 272 -75 455 -75 174 0 271
13 416 58 l88 27 83 -27 c146 -46 230 -58 408 -58 177 0 258 11 412 58 l87 27
83 -27 c145 -46 230 -58 408 -58 243 -1 407 38 603 140 91 48 142 93 153 137
17 67 -30 139 -116 179 -36 17 -65 21 -140 21 -95 0 -96 0 -201 -52 -132 -66
-183 -77 -323 -71 -122 5 -191 25 -276 77 -118 73 -278 71 -393 -5 -73 -48
-136 -66 -246 -72 -144 -7 -219 9 -336 69 -105 54 -173 69 -263 58z"/>
<path d="M12821 2080 c-24 -5 -65 -21 -90 -35 -134 -75 -205 -95 -331 -95
-113 0 -171 15 -290 73 -89 44 -116 52 -174 56 -209 11 -353 -118 -271 -243
39 -59 223 -153 380 -194 124 -33 205 -43 350 -43 152 0 286 19 406 57 88 28
97 27 204 -5 235 -72 550 -70 787 5 318 101 432 237 299 357 -56 50 -125 70
-226 65 -75 -4 -93 -9 -186 -55 -125 -62 -196 -77 -327 -71 -106 6 -182 28
-260 76 -26 16 -62 34 -80 40 -48 16 -141 22 -191 12z"/>
</g>
</svg>
